Anthony-Regular.ufo
<glyph name="exclam" format="2">
	<advance width="233"/>
	<unicode hex="0021"/>
	<outline>
		<contour>
			<point x="68" y="46" type="line"/>
			<point x="30" y="65" type="line"/>
			<point x="72" y="151" type="line"/>
			<point x="110" y="132" type="line"/>
		</contour>
		<contour>
			<point x="166" y="47" type="line"/>
			<point x="117" y="132" type="line"/>
			<point x="154" y="153" type="line"/>
			<point x="203" y="68" type="line"/>
		</contour>
		<contour>
			<point x="164" y="0" type="line"/>
			<point x="70" y="0" type="line"/>
			<point x="70" y="43" type="line"/>
			<point x="164" y="43" type="line"/>
		</contour>
		<contour>
			<point x="134" y="209" type="line"/>
			<point x="91" y="209" type="line"/>
			<point x="91" y="700" type="line"/>
			<point x="134" y="700" type="line"/>
		</contour>
	</outline>
</glyph>
<glyph name="quotedbl" format="2">
	<advance width="286"/>
	<unicode hex="0022"/>
	<outline>
		<contour>
			<point x="92" y="453" type="line"/>
			<point x="50" y="458" type="line"/>
			<point x="74" y="707" type="line"/>
			<point x="116" y="703" type="line"/>
		</contour>
		<contour>
			<point x="202" y="453" type="line"/>
			<point x="160" y="458" type="line"/>
			<point x="184" y="707" type="line"/>
			<point x="226" y="703" type="line"/>
		</contour>
	</outline>
</glyph>
<glyph name="numbersign" format="2">
	<advance width="560"/>
	<unicode hex="0023"/>
	<outline>
		<contour>
			<point x="356" y="-12" type="line"/>
			<point x="313" y="-6" type="line"/>
			<point x="344" y="200" type="line"/>
			<point x="386" y="194" type="line"/>
		</contour>
		<contour>
			<point x="393" y="248" type="line"/>
			<point x="351" y="254" type="line"/>
			<point x="380" y="448" type="line"/>
			<point x="423" y="442" type="line"/>
		</contour>
		<contour>
			<point x="432" y="497" type="line"/>
			<point x="389" y="503" type="line"/>
			<point x="419" y="708" type="line"/>
			<point x="462" y="702" type="line"/>
		</contour>
		<contour>
			<point x="149" y="-12" type="line"/>
			<point x="107" y="-6" type="line"/>
			<point x="138" y="200" type="line"/>
			<point x="180" y="194" type="line"/>
		</contour>
		<contour>
			<point x="187" y="248" type="line"/>
			<point x="145" y="254" type="line"/>
			<point x="174" y="448" type="line"/>
			<point x="216" y="442" type="line"/>
		</contour>
		<contour>
			<point x="226" y="497" type="line"/>
			<point x="183" y="503" type="line"/>
			<point x="213" y="708" type="line"/>
			<point x="256" y="702" type="line"/>
		</contour>
		<contour>
			<point x="520" y="451" type="line"/>
			<point x="80" y="451" type="line"/>
			<point x="80" y="494" type="line"/>
			<point x="520" y="494" type="line"/>
		</contour>
		<contour>
			<point x="480" y="204" type="line"/>
			<point x="40" y="204" type="line"/>
			<point x="40" y="247" type="line"/>
			<point x="480" y="247" type="line"/>
		</contour>
	</outline>
</glyph>
<glyph name="dollar" format="2">
	<advance width="479"/>
	<unicode hex="0024"/>
	<outline>
		<contour>
			<point x="235" y="612" type="line"/>
			<point x="192" y="612" type="line"/>
			<point x="192" y="870" type="line"/>
			<point x="235" y="870" type="line"/>
		</contour>
		<contour>
			<point x="315" y="-142" type="line"/>
			<point x="272" y="-142" type="line"/>
			<point x="272" y="112" type="line"/>
			<point x="315" y="112" type="line"/>
		</contour>
		<contour>
			<point x="434" y="323" type="line"/>
			<point x="34" y="323" type="line"/>
			<point x="34" y="366" type="line"/>
			<point x="434" y="366" type="line"/>
		</contour>
		<contour>
			<point x="53" y="367" type="line"/>
			<point x="22" y="398" type="line"/>
			<point x="333" y="708" type="line"/>
			<point x="363" y="677" type="line"/>
		</contour>
		<contour>
			<point x="139" y="-12" type="line"/>
			<point x="109" y="19" type="line"/>
			<point x="427" y="322" type="line"/>
			<point x="456" y="291" type="line"/>
		</contour>
	</outline>
</glyph>
<glyph name="percent" format="2">
	<advance width="616"/>
	<unicode hex="0025"/>
	<outline>
		<contour>
			<point x="111" y="-17" type="line"/>
			<point x="74" y="5" type="line"/>
			<point x="508" y="718" type="line"/>
			<point x="545" y="696" type="line"/>
		</contour>
		<contour>
			<point x="102" y="496" type="line"/>
			<point x="60" y="496" type="line"/>
			<point x="60" y="608" type="line"/>
			<point x="102" y="608" type="line"/>
		</contour>
		<contour>
			<point x="219" y="449" type="line"/>
			<point x="107" y="449" type="line"/>
			<point x="107" y="492" type="line"/>
			<point x="219" y="492" type="line"/>
		</contour>
		<contour>
			<point x="266" y="496" type="line"/>
			<point x="223" y="496" type="line"/>
			<point x="223" y="608" type="line"/>
			<point x="266" y="608" type="line"/>
		</contour>
		<contour>
			<point x="219" y="612" type="line"/>
			<point x="106" y="612" type="line"/>
			<point x="106" y="655" type="line"/>
			<point x="219" y="655" type="line"/>
		</contour>
		<contour>
			<point x="393" y="88" type="line"/>
			<point x="350" y="88" type="line"/>
			<point x="350" y="200" type="line"/>
			<point x="393" y="200" type="line"/>
		</contour>
		<contour>
			<point x="509" y="41" type="line"/>
			<point x="397" y="41" type="line"/>
			<point x="397" y="84" type="line"/>
			<point x="509" y="84" type="line"/>
		</contour>
		<contour>
			<point x="556" y="88" type="line"/>
			<point x="513" y="88" type="line"/>
			<point x="513" y="200" type="line"/>
			<point x="556" y="200" type="line"/>
		</contour>
		<contour>
			<point x="509" y="204" type="line"/>
			<point x="397" y="204" type="line"/>
			<point x="397" y="247" type="line"/>
			<point x="509" y="247" type="line"/>
		</contour>
	</outline>
</glyph>
<glyph name="ampersand" format="2">
	<advance width="617"/>
	<unicode hex="0026"/>
	<outline>
		<contour>
			<point x="437" y="502" type="line"/>
			<point x="306" y="676" type="line"/>
			<point x="340" y="702" type="line"/>
			<point x="472" y="528" type="line"/>
		</contour>
		<contour>
			<point x="161" y="565" type="line"/>
			<point x="134" y="599" type="line"/>
			<point x="278" y="710" type="line"/>
			<point x="304" y="676" type="line"/>
		</contour>
		<contour>
			<point x="247" y="378" type="line"/>
			<point x="127" y="537" type="line"/>
			<point x="161" y="563" type="line"/>
			<point x="281" y="404" type="line"/>
		</contour>
		<contour>
			<point x="73" y="179" type="line"/>
			<point x="48" y="213" type="line"/>
			<point x="437" y="499" type="line"/>
			<point x="463" y="465" type="line"/>
		</contour>
		<contour>
			<point x="145" y="18" type="line"/>
			<point x="40" y="150" type="line"/>
			<point x="73" y="177" type="line"/>
			<point x="179" y="45" type="line"/>
		</contour>
		<contour>
			<point x="503" y="0" type="line"/>
			<point x="181" y="0" type="line"/>
			<point x="181" y="43" type="line"/>
			<point x="503" y="43" type="line"/>
		</contour>
		<contour>
			<point x="607" y="-92" type="line"/>
			<point x="293" y="321" type="line"/>
			<point x="327" y="347" type="line"/>
			<point x="642" y="-66" type="line"/>
		</contour>
		<contour>
			<point x="555" y="106" type="line"/>
			<point x="512" y="106" type="line"/>
			<point x="512" y="338" type="line"/>
			<point x="555" y="338" type="line"/>
		</contour>
	</outline>
</glyph>
<glyph name="quotesingle" format="2">
	<advance width="156"/>
	<unicode hex="0027"/>
	<outline>
		<contour>
			<point x="92" y="453" type="line"/>
			<point x="50" y="458" type="line"/>
			<point x="74" y="707" type="line"/>
			<point x="116" y="703" type="line"/>
		</contour>
	</outline>
</glyph>
<glyph name="parenleft" format="2">
	<advance width="350"/>
	<unicode hex="0028"/>
	<outline>
		<contour>
			<point x="190" y="757" type="line"/>
			<point x="190" y="800" type="line"/>
			<point x="317" y="800" type="line"/>
			<point x="317" y="757" type="line"/>
		</contour>
		<contour>
			<point x="191" y="-43" type="line"/>
			<point x="191" y="0" type="line"/>
			<point x="320" y="0" type="line"/>
			<point x="320" y="-43" type="line"/>
		</contour>
		<contour>
			<point x="61" y="394" type="line"/>
			<point x="21" y="408" type="line"/>
			<point x="148" y="771" type="line"/>
			<point x="189" y="757" type="line"/>
		</contour>
		<contour>
			<point x="149" y="-13" type="line"/>
			<point x="20" y="380" type="line"/>
			<point x="61" y="393" type="line"/>
			<point x="190" y="1" type="line"/>
		</contour>
	</outline>
</glyph>
<glyph name="parenright" format="2">
	<advance width="350"/>
	<unicode hex="0029"/>
	<outline>
		<contour>
			<point x="160" y="757" type="line"/>
			<point x="33" y="757" type="line"/>
			<point x="33" y="800" type="line"/>
			<point x="160" y="800" type="line"/>
		</contour>
		<contour>
			<point x="159" y="-43" type="line"/>
			<point x="30" y="-43" type="line"/>
			<point x="30" y="0" type="line"/>
			<point x="159" y="0" type="line"/>
		</contour>
		<contour>
			<point x="289" y="394" type="line"/>
			<point x="161" y="757" type="line"/>
			<point x="202" y="771" type="line"/>
			<point x="329" y="408" type="line"/>
		</contour>
		<contour>
			<point x="201" y="-13" type="line"/>
			<point x="160" y="1" type="line"/>
			<point x="289" y="393" type="line"/>
			<point x="330" y="380" type="line"/>
		</contour>
	</outline>
</glyph>
<glyph name="asterisk" format="2">
	<advance width="558"/>
	<unicode hex="002A"/>
	<outline>
		<contour>
			<point x="300" y="477" type="line"/>
			<point x="257" y="477" type="line"/>
			<point x="257" y="700" type="line"/>
			<point x="300" y="700" type="line"/>
		</contour>
		<contour>
			<point x="242" y="435" type="line"/>
			<point x="30" y="504" type="line"/>
			<point x="43" y="545" type="line"/>
			<point x="255" y="476" type="line"/>
		</contour>
		<contour>
			<point x="147" y="227" type="line"/>
			<point x="112" y="252" type="line"/>
			<point x="242" y="432" type="line"/>
			<point x="277" y="407" type="line"/>
		</contour>
		<contour>
			<point x="411" y="227" type="line"/>
			<point x="281" y="407" type="line"/>
			<point x="315" y="433" type="line"/>
			<point x="446" y="252" type="line"/>
		</contour>
		<contour>
			<point x="316" y="435" type="line"/>
			<point x="303" y="476" type="line"/>
			<point x="514" y="545" type="line"/>
			<point x="528" y="504" type="line"/>
		</contour>
	</outline>
</glyph>
<glyph name="plus" format="2">
	<advance width="600"/>
	<unicode hex="002B"/>
	<outline>
		<contour>
			<point x="327" y="402" type="line"/>
			<point x="284" y="402" type="line"/>
			<point x="284" y="637" type="line"/>
			<point x="327" y="637" type="line"/>
		</contour>
		<contour>
			<point x="327" y="119" type="line"/>
			<point x="284" y="119" type="line"/>
			<point x="284" y="356" type="line"/>
			<point x="327" y="356" type="line"/>
		</contour>
		<contour>
			<point x="282" y="357" type="line"/>
			<point x="46" y="357" type="line"/>
			<point x="46" y="400" type="line"/>
			<point x="282" y="400" type="line"/>
		</contour>
		<contour>
			<point x="565" y="357" type="line"/>
			<point x="329" y="357" type="line"/>
			<point x="329" y="400" type="line"/>
			<point x="565" y="400" type="line"/>
		</contour>
	</outline>
</glyph>
<glyph name="comma" format="2">
	<advance width="360"/>
	<unicode hex="002C"/>
	<outline>
		<contour>
			<point x="237" y="0" type="line"/>
			<point x="30" y="0" type="line"/>
			<point x="30" y="43" type="line"/>
			<point x="237" y="43" type="line"/>
		</contour>
		<contour>
			<point x="238" y="47" type="line"/>
			<point x="219" y="133" type="line"/>
			<point x="260" y="142" type="line"/>
			<point x="280" y="56" type="line"/>
		</contour>
		<contour>
			<point x="172" y="46" type="line"/>
			<point x="134" y="65" type="line"/>
			<point x="184" y="165" type="line"/>
			<point x="222" y="146" type="line"/>
		</contour>
	</outline>
</glyph>
<glyph name="hyphen" format="2">
	<advance width="308"/>
	<unicode hex="002D"/>
	<outline>
		<contour>
			<point x="288" y="357" type="line"/>
			<point x="20" y="357" type="line"/>
			<point x="20" y="400" type="line"/>
			<point x="288" y="400" type="line"/>
		</contour>
	</outline>
</glyph>
<glyph name="period" format="2">
	<advance width="286"/>
	<unicode hex="002E"/>
	<outline>
		<contour>
			<point x="88" y="43" type="line"/>
			<point x="50" y="64" type="line"/>
			<point x="103" y="163" type="line"/>
			<point x="141" y="142" type="line"/>
		</contour>
		<contour>
			<point x="198" y="43" type="line"/>
			<point x="145" y="142" type="line"/>
			<point x="183" y="163" type="line"/>
			<point x="236" y="64" type="line"/>
		</contour>
		<contour>
			<point x="195" y="0" type="line"/>
			<point x="91" y="0" type="line"/>
			<point x="91" y="43" type="line"/>
			<point x="195" y="43" type="line"/>
		</contour>
	</outline>
</glyph>
<glyph name="slash" format="2">
	<advance width="404"/>
	<unicode hex="002F"/>
	<outline>
		<contour>
			<point x="71" y="-68" type="line"/>
			<point x="30" y="-53" type="line"/>
			<point x="333" y="800" type="line"/>
			<point x="374" y="786" type="line"/>
		</contour>
	</outline>
</glyph>
<glyph name="zero" format="2">
	<advance width="640"/>
	<unicode hex="0030"/>
	<outline>
		<contour>
			<point x="244" y="56" type="line"/>
			<point x="204" y="70" type="line"/>
			<point x="397" y="641" type="line"/>
			<point x="438" y="627" type="line"/>
		</contour>
		<contour>
			<point x="409" y="657" type="line"/>
			<point x="231" y="657" type="line"/>
			<point x="231" y="700" type="line"/>
			<point x="409" y="700" type="line"/>
		</contour>
		<contour>
			<point x="537" y="529" type="line"/>
			<point x="410" y="657" type="line"/>
			<point x="440" y="687" type="line"/>
			<point x="568" y="560" type="line"/>
		</contour>
		<contour>
			<point x="580" y="170" type="line"/>
			<point x="537" y="170" type="line"/>
			<point x="537" y="528" type="line"/>
			<point x="580" y="528" type="line"/>
		</contour>
		<contour>
			<point x="440" y="12" type="line"/>
			<point x="410" y="43" type="line"/>
			<point x="537" y="169" type="line"/>
			<point x="567" y="139" type="line"/>
		</contour>
		<contour>
			<point x="409" y="0" type="line"/>
			<point x="231" y="0" type="line"/>
			<point x="231" y="43" type="line"/>
			<point x="409" y="43" type="line"/>
		</contour>
		<contour>
			<point x="200" y="13" type="line"/>
			<point x="73" y="140" type="line"/>
			<point x="103" y="170" type="line"/>
			<point x="230" y="43" type="line"/>
		</contour>
		<contour>
			<point x="103" y="171" type="line"/>
			<point x="60" y="171" type="line"/>
			<point x="60" y="529" type="line"/>
			<point x="103" y="529" type="line"/>
		</contour>
		<contour>
			<point x="103" y="530" type="line"/>
			<point x="73" y="560" type="line"/>
			<point x="200" y="687" type="line"/>
			<point x="230" y="657" type="line"/>
		</contour>
	</outline>
</glyph>
<glyph name="one" format="2">
	<advance width="426"/>
	<unicode hex="0031"/>
	<outline>
		<contour>
			<point x="59" y="384" type="line"/>
			<point x="20" y="402" type="line"/>
			<point x="167" y="714" type="line"/>
			<point x="206" y="696" type="line"/>
		</contour>
		<contour>
			<point x="250" y="53" type="line"/>
			<point x="207" y="53" type="line"/>
			<point x="207" y="696" type="line"/>
			<point x="250" y="696" type="line"/>
		</contour>
		<contour>
			<point x="416" y="0" type="line"/>
			<point x="49" y="0" type="line"/>
			<point x="49" y="43" type="line"/>
			<point x="416" y="43" type="line"/>
		</contour>
	</outline>
</glyph>
<glyph name="two" format="2">
	<advance width="510"/>
	<unicode hex="0032"/>
	<outline>
		<contour>
			<point x="71" y="508" type="line"/>
			<point x="40" y="538" type="line"/>
			<point x="215" y="713" type="line"/>
			<point x="245" y="682" type="line"/>
		</contour>
		<contour>
			<point x="422" y="508" type="line"/>
			<point x="247" y="682" type="line"/>
			<point x="278" y="712" type="line"/>
			<point x="452" y="538" type="line"/>
		</contour>
		<contour>
			<point x="75" y="44" type="line"/>
			<point x="43" y="73" type="line"/>
			<point x="422" y="506" type="line"/>
			<point x="454" y="477" type="line"/>
		</contour>
		<contour>
			<point x="473" y="0" type="line"/>
			<point x="47" y="0" type="line"/>
			<point x="47" y="43" type="line"/>
			<point x="473" y="43" type="line"/>
		</contour>
	</outline>
</glyph>
<glyph name="three" format="2">
	<advance width="459"/>
	<unicode hex="0033"/>
	<outline>
		<contour>
			<point x="344" y="657" type="line"/>
			<point x="79" y="657" type="line"/>
			<point x="79" y="700" type="line"/>
			<point x="344" y="700" type="line"/>
		</contour>
		<contour>
			<point x="267" y="416" type="line"/>
			<point x="229" y="436" type="line"/>
			<point x="359" y="682" type="line"/>
			<point x="397" y="662" type="line"/>
		</contour>
		<contour>
			<point x="361" y="372" type="line"/>
			<point x="99" y="372" type="line"/>
			<point x="99" y="415" type="line"/>
			<point x="361" y="415" type="line"/>
		</contour>
		<contour>
			<point x="240" y="-7" type="line"/>
			<point x="201" y="11" type="line"/>
			<point x="379" y="409" type="line"/>
			<point x="419" y="391" type="line"/>
		</contour>
		<contour>
			<point x="165" y="-12" type="line"/>
			<point x="30" y="187" type="line"/>
			<point x="65" y="211" type="line"/>
			<point x="200" y="12" type="line"/>
		</contour>
	</outline>
</glyph>
<glyph name="four" format="2">
	<advance width="497"/>
	<unicode hex="0034"/>
	<outline>
		<contour>
			<point x="416" y="0" type="line"/>
			<point x="373" y="0" type="line"/>
			<point x="373" y="570" type="line"/>
			<point x="416" y="570" type="line"/>
		</contour>
		<contour>
			<point x="355" y="169" type="line"/>
			<point x="15" y="169" type="line"/>
			<point x="15" y="212" type="line"/>
			<point x="355" y="212" type="line"/>
		</contour>
		<contour>
			<point x="126" y="213" type="line"/>
			<point x="91" y="238" type="line"/>
			<point x="411" y="708" type="line"/>
			<point x="447" y="683" type="line"/>
		</contour>
	</outline>
</glyph>
<glyph name="five" format="2">
	<advance width="570"/>
	<unicode hex="0035"/>
	<outline>
		<contour>
			<point x="117" y="519" type="line"/>
			<point x="79" y="539" type="line"/>
			<point x="172" y="708" type="line"/>
			<point x="210" y="687" type="line"/>
		</contour>
		<contour>
			<point x="458" y="160" type="line"/>
			<point x="90" y="486" type="line"/>
			<point x="118" y="518" type="line"/>
			<point x="487" y="192" type="line"/>
		</contour>
		<contour>
			<point x="373" y="13" type="line"/>
			<point x="342" y="44" type="line"/>
			<point x="458" y="158" type="line"/>
			<point x="488" y="128" type="line"/>
		</contour>
		<contour>
			<point x="341" y="0" type="line"/>
			<point x="132" y="0" type="line"/>
			<point x="132" y="43" type="line"/>
			<point x="341" y="43" type="line"/>
		</contour>
		<contour>
			<point x="494" y="594" type="line"/>
			<point x="183" y="594" type="line"/>
			<point x="183" y="637" type="line"/>
			<point x="494" y="637" type="line"/>
		</contour>
		<contour>
			<point x="131" y="44" type="line"/>
			<point x="88" y="44" type="line"/>
			<point x="88" y="220" type="line"/>
			<point x="131" y="220" type="line"/>
		</contour>
	</outline>
</glyph>
<glyph name="six" format="2">
	<advance width="514"/>
	<unicode hex="0036"/>
	<outline>
		<contour>
			<point x="460" y="0" type="line"/>
			<point x="64" y="0" type="line"/>
			<point x="64" y="43" type="line"/>
			<point x="460" y="43" type="line"/>
		</contour>
		<contour>
			<point x="64" y="44" type="line"/>
			<point x="24" y="59" type="line"/>
			<point x="268" y="708" type="line"/>
			<point x="308" y="693" type="line"/>
		</contour>
		<contour>
			<point x="112" y="55" type="line"/>
			<point x="80" y="84" type="line"/>
			<point x="346" y="383" type="line"/>
			<point x="378" y="355" type="line"/>
		</contour>
		<contour>
			<point x="440" y="44" type="line"/>
			<point x="376" y="350" type="line"/>
			<point x="417" y="358" type="line"/>
			<point x="482" y="53" type="line"/>
		</contour>
	</outline>
</glyph>
<glyph name="seven" format="2">
	<advance width="490"/>
	<unicode hex="0037"/>
	<outline>
		<contour>
			<point x="449" y="658" type="line"/>
			<point x="10" y="658" type="line"/>
			<point x="10" y="700" type="line"/>
			<point x="449" y="700" type="line"/>
		</contour>
		<contour>
			<point x="81" y="-12" type="line"/>
			<point x="45" y="11" type="line"/>
			<point x="449" y="656" type="line"/>
			<point x="485" y="633" type="line"/>
		</contour>
	</outline>
</glyph>
<glyph name="eight" format="2">
	<advance width="519"/>
	<unicode hex="0038"/>
	<outline>
		<contour>
			<point x="407" y="657" type="line"/>
			<point x="115" y="657" type="line"/>
			<point x="115" y="700" type="line"/>
			<point x="407" y="700" type="line"/>
		</contour>
		<contour>
			<point x="301" y="306" type="line"/>
			<point x="262" y="324" type="line"/>
			<point x="410" y="655" type="line"/>
			<point x="449" y="638" type="line"/>
		</contour>
		<contour>
			<point x="221" y="306" type="line"/>
			<point x="71" y="639" type="line"/>
			<point x="111" y="656" type="line"/>
			<point x="260" y="324" type="line"/>
		</contour>
		<contour>
			<point x="92" y="45" type="line"/>
			<point x="50" y="45" type="line"/>
			<point x="50" y="261" type="line"/>
			<point x="92" y="261" type="line"/>
		</contour>
		<contour>
			<point x="469" y="45" type="line"/>
			<point x="426" y="45" type="line"/>
			<point x="426" y="261" type="line"/>
			<point x="469" y="261" type="line"/>
		</contour>
		<contour>
			<point x="425" y="0" type="line"/>
			<point x="93" y="0" type="line"/>
			<point x="93" y="43" type="line"/>
			<point x="425" y="43" type="line"/>
		</contour>
		<contour>
			<point x="425" y="262" type="line"/>
			<point x="93" y="262" type="line"/>
			<point x="93" y="305" type="line"/>
			<point x="425" y="305" type="line"/>
		</contour>
	</outline>
</glyph>
<glyph name="nine" format="2">
	<advance width="500"/>
	<unicode hex="0039"/>
	<outline>
		<contour>
			<point x="348" y="239" type="line"/>
			<point x="40" y="479" type="line"/>
			<point x="67" y="513" type="line"/>
			<point x="375" y="272" type="line"/>
		</contour>
		<contour>
			<point x="83" y="515" type="line"/>
			<point x="40" y="515" type="line"/>
			<point x="40" y="656" type="line"/>
			<point x="83" y="656" type="line"/>
		</contour>
		<contour>
			<point x="375" y="657" type="line"/>
			<point x="85" y="657" type="line"/>
			<point x="85" y="700" type="line"/>
			<point x="375" y="700" type="line"/>
		</contour>
		<contour>
			<point x="420" y="44" type="line"/>
			<point x="377" y="44" type="line"/>
			<point x="377" y="655" type="line"/>
			<point x="420" y="655" type="line"/>
		</contour>
		<contour>
			<point x="376" y="0" type="line"/>
			<point x="61" y="0" type="line"/>
			<point x="61" y="43" type="line"/>
			<point x="376" y="43" type="line"/>
		</contour>
	</outline>
</glyph>
<glyph name="colon" format="2">
	<advance width="316"/>
	<unicode hex="003A"/>
	<outline>
		<contour>
			<point x="88" y="377" type="line"/>
			<point x="50" y="398" type="line"/>
			<point x="103" y="497" type="line"/>
			<point x="141" y="477" type="line"/>
		</contour>
		<contour>
			<point x="198" y="377" type="line"/>
			<point x="145" y="477" type="line"/>
			<point x="182" y="497" type="line"/>
			<point x="236" y="398" type="line"/>
		</contour>
		<contour>
			<point x="195" y="334" type="line"/>
			<point x="91" y="334" type="line"/>
			<point x="91" y="377" type="line"/>
			<point x="195" y="377" type="line"/>
		</contour>
		<contour>
			<point x="88" y="43" type="line"/>
			<point x="50" y="64" type="line"/>
			<point x="103" y="163" type="line"/>
			<point x="141" y="142" type="line"/>
		</contour>
		<contour>
			<point x="198" y="43" type="line"/>
			<point x="145" y="142" type="line"/>
			<point x="182" y="163" type="line"/>
			<point x="236" y="64" type="line"/>
		</contour>
		<contour>
			<point x="195" y="0" type="line"/>
			<point x="91" y="0" type="line"/>
			<point x="91" y="43" type="line"/>
			<point x="195" y="43" type="line"/>
		</contour>
	</outline>
</glyph>
<glyph name="semicolon" format="2">
	<advance width="317"/>
	<unicode hex="003B"/>
	<outline>
		<contour>
			<point x="88" y="379" type="line"/>
			<point x="51" y="399" type="line"/>
			<point x="104" y="498" type="line"/>
			<point x="142" y="478" type="line"/>
		</contour>
		<contour>
			<point x="199" y="379" type="line"/>
			<point x="146" y="478" type="line"/>
			<point x="183" y="498" type="line"/>
			<point x="237" y="399" type="line"/>
		</contour>
		<contour>
			<point x="196" y="336" type="line"/>
			<point x="92" y="336" type="line"/>
			<point x="92" y="378" type="line"/>
			<point x="196" y="378" type="line"/>
		</contour>
		<contour>
			<point x="215" y="-116" type="line"/>
			<point x="173" y="-116" type="line"/>
			<point x="173" y="91" type="line"/>
			<point x="215" y="91" type="line"/>
		</contour>
		<contour>
			<point x="83" y="73" type="line"/>
			<point x="73" y="114" type="line"/>
			<point x="159" y="134" type="line"/>
			<point x="169" y="92" type="line"/>
		</contour>
		<contour>
			<point x="151" y="-12" type="line"/>
			<point x="50" y="38" type="line"/>
			<point x="69" y="76" type="line"/>
			<point x="170" y="26" type="line"/>
		</contour>
	</outline>
</glyph>
<glyph name="equal" format="2">
	<advance width="491"/>
	<unicode hex="003D"/>
	<outline>
		<contour>
			<point x="461" y="223" type="line"/>
			<point x="30" y="223" type="line"/>
			<point x="30" y="266" type="line"/>
			<point x="461" y="266" type="line"/>
		</contour>
		<contour>
			<point x="461" y="357" type="line"/>
			<point x="30" y="357" type="line"/>
			<point x="30" y="400" type="line"/>
			<point x="461" y="400" type="line"/>
		</contour>
	</outline>
</glyph>
<glyph name="greater" format="2">
	<advance width="312"/>
	<unicode hex="003E"/>
	<outline>
		<contour>
			<point x="52" y="138" type="line"/>
			<point x="25" y="171" type="line"/>
			<point x="255" y="361" type="line"/>
			<point x="282" y="328" type="line"/>
		</contour>
		<contour>
			<point x="255" y="363" type="line"/>
			<point x="25" y="553" type="line"/>
			<point x="52" y="586" type="line"/>
			<point x="282" y="396" type="line"/>
		</contour>
	</outline>
</glyph>
<glyph name="question" format="2">
	<advance width="421"/>
	<unicode hex="003F"/>
	<outline>
		<contour>
			<point x="125" y="46" type="line"/>
			<point x="87" y="65" type="line"/>
			<point x="129" y="151" type="line"/>
			<point x="167" y="132" type="line"/>
		</contour>
		<contour>
			<point x="223" y="47" type="line"/>
			<point x="174" y="132" type="line"/>
			<point x="211" y="153" type="line"/>
			<point x="260" y="68" type="line"/>
		</contour>
		<contour>
			<point x="221" y="0" type="line"/>
			<point x="127" y="0" type="line"/>
			<point x="127" y="43" type="line"/>
			<point x="221" y="43" type="line"/>
		</contour>
		<contour>
			<point x="375" y="657" type="line"/>
			<point x="10" y="657" type="line"/>
			<point x="10" y="700" type="line"/>
			<point x="375" y="700" type="line"/>
		</contour>
		<contour>
			<point x="130" y="255" type="line"/>
			<point x="95" y="281" type="line"/>
			<point x="377" y="652" type="line"/>
			<point x="411" y="626" type="line"/>
		</contour>
		<contour>
			<point x="241" y="208" type="line"/>
			<point x="131" y="208" type="line"/>
			<point x="131" y="251" type="line"/>
			<point x="241" y="251" type="line"/>
		</contour>
	</outline>
</glyph>
<glyph name="at" format="2">
	<advance width="801"/>
	<unicode hex="0040"/>
	<outline>
		<contour>
			<point x="515" y="446" type="line"/>
			<point x="304" y="446" type="line"/>
			<point x="304" y="489" type="line"/>
			<point x="515" y="489" type="line"/>
		</contour>
		<contour>
			<point x="493" y="55" type="line"/>
			<point x="450" y="55" type="line"/>
			<point x="450" y="431" type="line"/>
			<point x="493" y="431" type="line"/>
		</contour>
		<contour>
			<point x="234" y="113" type="line"/>
			<point x="193" y="127" type="line"/>
			<point x="252" y="301" type="line"/>
			<point x="293" y="287" type="line"/>
		</contour>
		<contour>
			<point x="423" y="196" type="line"/>
			<point x="294" y="288" type="line"/>
			<point x="319" y="322" type="line"/>
			<point x="448" y="231" type="line"/>
		</contour>
		<contour>
			<point x="518" y="-12" type="line"/>
			<point x="225" y="69" type="line"/>
			<point x="236" y="111" type="line"/>
			<point x="529" y="30" type="line"/>
		</contour>
		<contour>
			<point x="564" y="3" type="line"/>
			<point x="531" y="31" type="line"/>
			<point x="718" y="245" type="line"/>
			<point x="750" y="217" type="line"/>
		</contour>
		<contour>
			<point x="761" y="246" type="line"/>
			<point x="718" y="246" type="line"/>
			<point x="718" y="444" type="line"/>
			<point x="761" y="444" type="line"/>
		</contour>
		<contour>
			<point x="718" y="445" type="line"/>
			<point x="391" y="680" type="line"/>
			<point x="416" y="715" type="line"/>
			<point x="743" y="479" type="line"/>
		</contour>
		<contour>
			<point x="93" y="442" type="line"/>
			<point x="66" y="475" type="line"/>
			<point x="362" y="713" type="line"/>
			<point x="389" y="680" type="line"/>
		</contour>
		<contour>
			<point x="93" y="0" type="line"/>
			<point x="50" y="0" type="line"/>
			<point x="50" y="441" type="line"/>
			<point x="93" y="441" type="line"/>
		</contour>
	</outline>
</glyph>
<glyph name="A" format="2">
	<advance width="647"/>
	<unicode hex="0041"/>
	<anchor x="592" y="10" name="ogonek"/>
	<anchor x="324" y="0" name="bottom"/>
	<anchor x="324" y="700" name="top"/>
	<outline>
		<contour>
			<point x="50" y="-12" type="line"/>
			<point x="10" y="3" type="line"/>
			<point x="282" y="708" type="line"/>
			<point x="322" y="692" type="line"/>
		</contour>
		<contour>
			<point x="595" y="-12" type="line"/>
			<point x="323" y="692" type="line"/>
			<point x="363" y="708" type="line"/>
			<point x="635" y="3" type="line"/>
		</contour>
		<contour>
			<point x="482" y="233" type="line"/>
			<point x="163" y="233" type="line"/>
			<point x="163" y="276" type="line"/>
			<point x="482" y="276" type="line"/>
		</contour>
	</outline>
</glyph>
<glyph name="B" format="2">
	<advance width="511"/>
	<unicode hex="0042"/>
	<outline>
		<contour>
			<point x="478" y="0" type="line"/>
			<point x="123" y="0" type="line"/>
			<point x="123" y="43" type="line"/>
			<point x="478" y="43" type="line"/>
		</contour>
		<contour>
			<point x="122" y="45" type="line"/>
			<point x="80" y="45" type="line"/>
			<point x="80" y="658" type="line"/>
			<point x="122" y="658" type="line"/>
		</contour>
		<contour>
			<point x="479" y="43" type="line"/>
			<point x="123" y="320" type="line"/>
			<point x="149" y="354" type="line"/>
			<point x="506" y="77" type="line"/>
		</contour>
		<contour>
			<point x="128" y="352" type="line"/>
			<point x="123" y="394" type="line"/>
			<point x="419" y="431" type="line"/>
			<point x="424" y="389" type="line"/>
		</contour>
		<contour>
			<point x="335" y="422" type="line"/>
			<point x="99" y="685" type="line"/>
			<point x="131" y="714" type="line"/>
			<point x="367" y="451" type="line"/>
		</contour>
	</outline>
</glyph>
<glyph name="C" format="2">
	<advance width="557"/>
	<unicode hex="0043"/>
	<anchor x="274" y="700" name="top"/>
	<anchor x="324" y="0" name="bottom"/>
	<outline>
		<contour>
			<point x="123" y="502" type="line"/>
			<point x="92" y="532" type="line"/>
			<point x="270" y="718" type="line"/>
			<point x="301" y="688" type="line"/>
		</contour>
		<contour>
			<point x="481" y="502" type="line"/>
			<point x="302" y="688" type="line"/>
			<point x="333" y="718" type="line"/>
			<point x="511" y="532" type="line"/>
		</contour>
		<contour>
			<point x="123" y="44" type="line"/>
			<point x="80" y="44" type="line"/>
			<point x="80" y="501" type="line"/>
			<point x="123" y="501" type="line"/>
		</contour>
		<contour>
			<point x="527" y="0" type="line"/>
			<point x="124" y="0" type="line"/>
			<point x="124" y="43" type="line"/>
			<point x="527" y="43" type="line"/>
		</contour>
	</outline>
</glyph>
<glyph name="D" format="2">
	<advance width="621"/>
	<unicode hex="0044"/>
	<outline>
		<contour>
			<point x="383" y="657" type="line"/>
			<point x="20" y="657" type="line"/>
			<point x="20" y="700" type="line"/>
			<point x="383" y="700" type="line"/>
		</contour>
		<contour>
			<point x="151" y="54" type="line"/>
			<point x="108" y="54" type="line"/>
			<point x="108" y="646" type="line"/>
			<point x="151" y="646" type="line"/>
		</contour>
		<contour>
			<point x="384" y="0" type="line"/>
			<point x="20" y="0" type="line"/>
			<point x="20" y="43" type="line"/>
			<point x="384" y="43" type="line"/>
		</contour>
		<contour>
			<point x="547" y="465" type="line"/>
			<point x="385" y="656" type="line"/>
			<point x="418" y="684" type="line"/>
			<point x="580" y="492" type="line"/>
		</contour>
		<contour>
			<point x="591" y="227" type="line"/>
			<point x="548" y="227" type="line"/>
			<point x="548" y="463" type="line"/>
			<point x="591" y="463" type="line"/>
		</contour>
		<contour>
			<point x="417" y="15" type="line"/>
			<point x="385" y="43" type="line"/>
			<point x="548" y="226" type="line"/>
			<point x="580" y="197" type="line"/>
		</contour>
	</outline>
</glyph>
<glyph name="E" format="2">
	<advance width="544"/>
	<unicode hex="0045"/>
	<anchor x="489" y="10" name="ogonek"/>
	<anchor x="272" y="700" name="top"/>
	<anchor x="20" y="700" name="topleft"/>
	<anchor x="272" y="0" name="bottom"/>
	<outline>
		<contour>
			<point x="489" y="657" type="line"/>
			<point x="124" y="657" type="line"/>
			<point x="124" y="700" type="line"/>
			<point x="489" y="700" type="line"/>
		</contour>
		<contour>
			<point x="123" y="44" type="line"/>
			<point x="80" y="44" type="line"/>
			<point x="80" y="656" type="line"/>
			<point x="123" y="656" type="line"/>
		</contour>
		<contour>
			<point x="489" y="0" type="line"/>
			<point x="124" y="0" type="line"/>
			<point x="124" y="43" type="line"/>
			<point x="489" y="43" type="line"/>
		</contour>
		<contour>
			<point x="421" y="314" type="line"/>
			<point x="145" y="314" type="line"/>
			<point x="145" y="357" type="line"/>
			<point x="421" y="357" type="line"/>
		</contour>
	</outline>
</glyph>
<glyph name="F" format="2">
	<advance width="512"/>
	<unicode hex="0046"/>
	<outline>
		<contour>
			<point x="148" y="0" type="line"/>
			<point x="105" y="0" type="line"/>
			<point x="105" y="632" type="line"/>
			<point x="148" y="632" type="line"/>
		</contour>
		<contour>
			<point x="492" y="657" type="line"/>
			<point x="20" y="657" type="line"/>
			<point x="20" y="700" type="line"/>
			<point x="492" y="700" type="line"/>
		</contour>
		<contour>
			<point x="454" y="357" type="line"/>
			<point x="168" y="357" type="line"/>
			<point x="168" y="400" type="line"/>
			<point x="454" y="400" type="line"/>
		</contour>
	</outline>
</glyph>
<glyph name="G" format="2">
	<advance width="580"/>
	<unicode hex="0047"/>
	<outline>
		<contour>
			<point x="520" y="657" type="line"/>
			<point x="124" y="657" type="line"/>
			<point x="124" y="700" type="line"/>
			<point x="520" y="700" type="line"/>
		</contour>
		<contour>
			<point x="123" y="16" type="line"/>
			<point x="80" y="16" type="line"/>
			<point x="80" y="655" type="line"/>
			<point x="123" y="655" type="line"/>
		</contour>
		<contour>
			<point x="154" y="-16" type="line"/>
			<point x="125" y="16" type="line"/>
			<point x="467" y="330" type="line"/>
			<point x="496" y="298" type="line"/>
		</contour>
		<contour>
			<point x="540" y="0" type="line"/>
			<point x="497" y="0" type="line"/>
			<point x="497" y="330" type="line"/>
			<point x="540" y="330" type="line"/>
		</contour>
		<contour>
			<point x="496" y="331" type="line"/>
			<point x="212" y="331" type="line"/>
			<point x="212" y="374" type="line"/>
			<point x="496" y="374" type="line"/>
		</contour>
	</outline>
</glyph>
<glyph name="H" format="2">
	<advance width="573"/>
	<unicode hex="0048"/>
	<outline>
		<contour>
			<point x="123" y="0" type="line"/>
			<point x="80" y="0" type="line"/>
			<point x="80" y="700" type="line"/>
			<point x="123" y="700" type="line"/>
		</contour>
		<contour>
			<point x="493" y="0" type="line"/>
			<point x="451" y="0" type="line"/>
			<point x="451" y="700" type="line"/>
			<point x="493" y="700" type="line"/>
		</contour>
		<contour>
			<point x="424" y="325" type="line"/>
			<point x="147" y="325" type="line"/>
			<point x="147" y="368" type="line"/>
			<point x="424" y="368" type="line"/>
		</contour>
	</outline>
</glyph>
<glyph name="I" format="2">
	<advance width="447"/>
	<unicode hex="0049"/>
	<anchor x="402" y="10" name="ogonek"/>
	<anchor x="224" y="700" name="top"/>
	<anchor x="20" y="700" name="topleft"/>
	<anchor x="224" y="0" name="bottom"/>
	<outline>
		<contour>
			<point x="30" y="0" type="line"/>
			<point x="30" y="43" type="line"/>
			<point x="417" y="43" type="line"/>
			<point x="417" y="0" type="line"/>
		</contour>
		<contour>
			<point x="30" y="657" type="line"/>
			<point x="30" y="700" type="line"/>
			<point x="417" y="700" type="line"/>
			<point x="417" y="657" type="line"/>
		</contour>
		<contour>
			<point x="202" y="55" type="line"/>
			<point x="202" y="645" type="line"/>
			<point x="245" y="645" type="line"/>
			<point x="245" y="55" type="line"/>
		</contour>
	</outline>
</glyph>
<glyph name="J" format="2">
	<advance width="536"/>
	<unicode hex="004A"/>
	<outline>
		<contour>
			<point x="526" y="657" type="line"/>
			<point x="93" y="657" type="line"/>
			<point x="93" y="700" type="line"/>
			<point x="526" y="700" type="line"/>
		</contour>
		<contour>
			<point x="386" y="44" type="line"/>
			<point x="343" y="44" type="line"/>
			<point x="343" y="643" type="line"/>
			<point x="386" y="643" type="line"/>
		</contour>
		<contour>
			<point x="342" y="0" type="line"/>
			<point x="92" y="0" type="line"/>
			<point x="92" y="43" type="line"/>
			<point x="342" y="43" type="line"/>
		</contour>
		<contour>
			<point x="92" y="44" type="line"/>
			<point x="50" y="44" type="line"/>
			<point x="50" y="245" type="line"/>
			<point x="92" y="245" type="line"/>
		</contour>
	</outline>
</glyph>
<glyph name="K" format="2">
	<advance width="547"/>
	<unicode hex="004B"/>
	<outline>
		<contour>
			<point x="123" y="0" type="line"/>
			<point x="80" y="0" type="line"/>
			<point x="80" y="700" type="line"/>
			<point x="123" y="700" type="line"/>
		</contour>
		<contour>
			<point x="153" y="349" type="line"/>
			<point x="124" y="381" type="line"/>
			<point x="482" y="708" type="line"/>
			<point x="511" y="677" type="line"/>
		</contour>
		<contour>
			<point x="483" y="-12" type="line"/>
			<point x="124" y="317" type="line"/>
			<point x="153" y="348" type="line"/>
			<point x="512" y="20" type="line"/>
		</contour>
	</outline>
</glyph>
<glyph name="L" format="2">
	<advance width="524"/>
	<unicode hex="004C"/>
	<anchor x="147" y="360" name="center"/>
	<anchor x="267" y="700" name="top"/>
	<anchor x="514" y="700" name="topright"/>
	<anchor x="267" y="0" name="bottom"/>
	<outline>
		<contour>
			<point x="123" y="44" type="line"/>
			<point x="80" y="44" type="line"/>
			<point x="80" y="700" type="line"/>
			<point x="123" y="700" type="line"/>
		</contour>
		<contour>
			<point x="514" y="0" type="line"/>
			<point x="125" y="0" type="line"/>
			<point x="125" y="43" type="line"/>
			<point x="514" y="43" type="line"/>
		</contour>
	</outline>
</glyph>
<glyph name="M" format="2">
	<advance width="862"/>
	<unicode hex="004D"/>
	<outline>
		<contour>
			<point x="782" y="0" type="line"/>
			<point x="739" y="0" type="line"/>
			<point x="739" y="692" type="line"/>
			<point x="782" y="692" type="line"/>
		</contour>
		<contour>
			<point x="474" y="92" type="line"/>
			<point x="435" y="109" type="line"/>
			<point x="697" y="708" type="line"/>
			<point x="736" y="691" type="line"/>
		</contour>
		<contour>
			<point x="395" y="92" type="line"/>
			<point x="126" y="691" type="line"/>
			<point x="165" y="708" type="line"/>
			<point x="434" y="109" type="line"/>
		</contour>
		<contour>
			<point x="123" y="0" type="line"/>
			<point x="80" y="0" type="line"/>
			<point x="80" y="692" type="line"/>
			<point x="123" y="692" type="line"/>
		</contour>
	</outline>
</glyph>
<glyph name="N" format="2">
	<advance width="635"/>
	<unicode hex="004E"/>
	<anchor x="318" y="700" name="top"/>
	<anchor x="318" y="0" name="bottom"/>
	<outline>
		<contour>
			<point x="123" y="0" type="line"/>
			<point x="80" y="0" type="line"/>
			<point x="80" y="700" type="line"/>
			<point x="123" y="700" type="line"/>
		</contour>
		<contour>
			<point x="555" y="0" type="line"/>
			<point x="512" y="0" type="line"/>
			<point x="512" y="700" type="line"/>
			<point x="555" y="700" type="line"/>
		</contour>
		<contour>
			<point x="474" y="-1" type="line"/>
			<point x="125" y="614" type="line"/>
			<point x="163" y="635" type="line"/>
			<point x="511" y="20" type="line"/>
		</contour>
	</outline>
</glyph>
<glyph name="O" format="2">
	<advance width="759"/>
	<unicode hex="004F"/>
	<anchor x="380" y="350" name="center"/>
	<anchor x="683" y="10" name="ogonek"/>
	<anchor x="380" y="700" name="top"/>
	<anchor x="739" y="700" name="topright"/>
	<anchor x="20" y="700" name="topleft"/>
	<anchor x="380" y="0" name="bottom"/>
	<outline>
		<contour>
			<point x="20" y="379" type="line"/>
			<point x="350" y="709" type="line"/>
			<point x="380" y="679" type="line"/>
			<point x="51" y="348" type="line"/>
		</contour>
		<contour>
			<point x="21" y="317" type="line"/>
			<point x="51" y="347" type="line"/>
			<point x="378" y="18" type="line"/>
			<point x="347" y="-12" type="line"/>
		</contour>
		<contour>
			<point x="379" y="18" type="line"/>
			<point x="708" y="349" type="line"/>
			<point x="738" y="319" type="line"/>
			<point x="409" y="-12" type="line"/>
		</contour>
		<contour>
			<point x="381" y="679" type="line"/>
			<point x="412" y="709" type="line"/>
			<point x="739" y="380" type="line"/>
			<point x="708" y="350" type="line"/>
		</contour>
	</outline>
</glyph>
<glyph name="P" format="2">
	<advance width="590"/>
	<unicode hex="0050"/>
	<outline>
		<contour>
			<point x="54" y="657" type="line"/>
			<point x="54" y="700" type="line"/>
			<point x="447" y="700" type="line"/>
			<point x="447" y="657" type="line"/>
		</contour>
		<contour>
			<point x="105" y="0" type="line"/>
			<point x="105" y="642" type="line"/>
			<point x="148" y="642" type="line"/>
			<point x="148" y="0" type="line"/>
		</contour>
		<contour>
			<point x="162" y="292" type="line"/>
			<point x="162" y="335" type="line"/>
			<point x="447" y="335" type="line"/>
			<point x="447" y="292" type="line"/>
		</contour>
		<contour>
			<point x="375" y="365" type="line"/>
			<point x="532" y="532" type="line"/>
			<point x="564" y="502" type="line"/>
			<point x="407" y="336" type="line"/>
		</contour>
		<contour>
			<point x="381" y="625" type="line"/>
			<point x="411" y="655" type="line"/>
			<point x="520" y="543" type="line"/>
			<point x="489" y="513" type="line"/>
		</contour>
	</outline>
</glyph>
<glyph name="Q" format="2">
	<advance width="581"/>
	<unicode hex="0051"/>
	<outline>
		<contour>
			<point x="80" y="45" type="line"/>
			<point x="80" y="656" type="line"/>
			<point x="123" y="656" type="line"/>
			<point x="123" y="45" type="line"/>
		</contour>
		<contour>
			<point x="124" y="0" type="line"/>
			<point x="124" y="43" type="line"/>
			<point x="272" y="43" type="line"/>
			<point x="272" y="0" type="line"/>
		</contour>
		<contour>
			<point x="124" y="657" type="line"/>
			<point x="124" y="700" type="line"/>
			<point x="457" y="700" type="line"/>
			<point x="457" y="657" type="line"/>
		</contour>
		<contour>
			<point x="203" y="150" type="line"/>
			<point x="238" y="174" type="line"/>
			<point x="441" y="-129" type="line"/>
			<point x="405" y="-153" type="line"/>
		</contour>
		<contour>
			<point x="357" y="0" type="line"/>
			<point x="357" y="43" type="line"/>
			<point x="457" y="43" type="line"/>
			<point x="457" y="0" type="line"/>
		</contour>
		<contour>
			<point x="458" y="45" type="line"/>
			<point x="458" y="656" type="line"/>
			<point x="501" y="656" type="line"/>
			<point x="501" y="45" type="line"/>
		</contour>
	</outline>
</glyph>
<glyph name="R" format="2">
	<advance width="530"/>
	<unicode hex="0052"/>
	<outline>
		<contour>
			<point x="135" y="0" type="line"/>
			<point x="92" y="0" type="line"/>
			<point x="92" y="647" type="line"/>
			<point x="135" y="647" type="line"/>
		</contour>
		<contour>
			<point x="460" y="657" type="line"/>
			<point x="57" y="657" type="line"/>
			<point x="57" y="700" type="line"/>
			<point x="460" y="700" type="line"/>
		</contour>
		<contour>
			<point x="460" y="307" type="line"/>
			<point x="145" y="307" type="line"/>
			<point x="145" y="350" type="line"/>
			<point x="460" y="350" type="line"/>
		</contour>
		<contour>
			<point x="348" y="-16" type="line"/>
			<point x="231" y="291" type="line"/>
			<point x="271" y="306" type="line"/>
			<point x="388" y="-1" type="line"/>
		</contour>
		<contour>
			<point x="481" y="360" type="line"/>
			<point x="438" y="360" type="line"/>
			<point x="438" y="647" type="line"/>
			<point x="481" y="647" type="line"/>
		</contour>
	</outline>
</glyph>
<glyph name="S" format="2">
	<advance width="479"/>
	<unicode hex="0053"/>
	<outline>
		<contour>
			<point x="434" y="323" type="line"/>
			<point x="34" y="323" type="line"/>
			<point x="34" y="366" type="line"/>
			<point x="434" y="366" type="line"/>
		</contour>
		<contour>
			<point x="53" y="367" type="line"/>
			<point x="22" y="398" type="line"/>
			<point x="333" y="708" type="line"/>
			<point x="363" y="677" type="line"/>
		</contour>
		<contour>
			<point x="139" y="-12" type="line"/>
			<point x="109" y="19" type="line"/>
			<point x="426" y="322" type="line"/>
			<point x="455" y="291" type="line"/>
		</contour>
	</outline>
</glyph>
<glyph name="T" format="2">
	<advance width="501"/>
	<unicode hex="0054"/>
	<anchor x="251" y="350" name="center"/>
	<anchor x="251" y="0" name="bottom"/>
	<anchor x="251" y="700" name="top"/>
	<outline>
		<contour>
			<point x="491" y="657" type="line"/>
			<point x="10" y="657" type="line"/>
			<point x="10" y="700" type="line"/>
			<point x="491" y="700" type="line"/>
		</contour>
		<contour>
			<point x="272" y="0" type="line"/>
			<point x="229" y="0" type="line"/>
			<point x="229" y="645" type="line"/>
			<point x="272" y="645" type="line"/>
		</contour>
	</outline>
</glyph>
<glyph name="U" format="2">
	<advance width="609"/>
	<unicode hex="0055"/>
	<anchor x="548" y="10" name="ogonek"/>
	<anchor x="305" y="700" name="top"/>
	<anchor x="589" y="700" name="topright"/>
	<anchor x="305" y="0" name="bottom"/>
	<outline>
		<contour>
			<point x="123" y="44" type="line"/>
			<point x="80" y="44" type="line"/>
			<point x="80" y="700" type="line"/>
			<point x="123" y="700" type="line"/>
		</contour>
		<contour>
			<point x="312" y="0" type="line"/>
			<point x="124" y="0" type="line"/>
			<point x="124" y="43" type="line"/>
			<point x="312" y="43" type="line"/>
		</contour>
		<contour>
			<point x="342" y="12" type="line"/>
			<point x="313" y="43" type="line"/>
			<point x="436" y="158" type="line"/>
			<point x="466" y="127" type="line"/>
		</contour>
		<contour>
			<point x="509" y="0" type="line"/>
			<point x="467" y="0" type="line"/>
			<point x="467" y="700" type="line"/>
			<point x="509" y="700" type="line"/>
		</contour>
	</outline>
</glyph>
<glyph name="V" format="2">
	<advance width="481"/>
	<unicode hex="0056"/>
	<outline>
		<contour>
			<point x="198" y="-12" type="line"/>
			<point x="20" y="698" type="line"/>
			<point x="62" y="708" type="line"/>
			<point x="240" y="-2" type="line"/>
		</contour>
		<contour>
			<point x="283" y="-12" type="line"/>
			<point x="242" y="-2" type="line"/>
			<point x="420" y="708" type="line"/>
			<point x="461" y="698" type="line"/>
		</contour>
	</outline>
</glyph>
<glyph name="W" format="2">
	<advance width="810"/>
	<unicode hex="0057"/>
	<outline>
		<contour>
			<point x="170" y="0" type="line"/>
			<point x="20" y="698" type="line"/>
			<point x="62" y="707" type="line"/>
			<point x="212" y="9" type="line"/>
		</contour>
		<contour>
			<point x="255" y="0" type="line"/>
			<point x="213" y="9" type="line"/>
			<point x="363" y="707" type="line"/>
			<point x="405" y="698" type="line"/>
		</contour>
		<contour>
			<point x="556" y="0" type="line"/>
			<point x="407" y="698" type="line"/>
			<point x="449" y="707" type="line"/>
			<point x="598" y="9" type="line"/>
		</contour>
		<contour>
			<point x="641" y="0" type="line"/>
			<point x="599" y="9" type="line"/>
			<point x="748" y="707" type="line"/>
			<point x="790" y="698" type="line"/>
		</contour>
	</outline>
</glyph>
<glyph name="X" format="2">
	<advance width="744"/>
	<unicode hex="0058"/>
	<outline>
		<contour>
			<point x="345" y="429" type="line"/>
			<point x="5" y="682" type="line"/>
			<point x="31" y="716" type="line"/>
			<point x="371" y="464" type="line"/>
		</contour>
		<contour>
			<point x="397" y="429" type="line"/>
			<point x="372" y="464" type="line"/>
			<point x="713" y="716" type="line"/>
			<point x="739" y="681" type="line"/>
		</contour>
		<contour>
			<point x="89" y="-16" type="line"/>
			<point x="53" y="8" type="line"/>
			<point x="335" y="433" type="line"/>
			<point x="371" y="409" type="line"/>
		</contour>
		<contour>
			<point x="654" y="-16" type="line"/>
			<point x="371" y="409" type="line"/>
			<point x="407" y="433" type="line"/>
			<point x="690" y="8" type="line"/>
		</contour>
	</outline>
</glyph>
<glyph name="Y" format="2">
	<advance width="673"/>
	<unicode hex="0059"/>
	<anchor x="337" y="700" name="top"/>
	<anchor x="337" y="0" name="bottom"/>
	<anchor x="13" y="700" name="topleft"/>
	<outline>
		<contour>
			<point x="306" y="395" type="line"/>
			<point x="5" y="677" type="line"/>
			<point x="34" y="708" type="line"/>
			<point x="336" y="426" type="line"/>
		</contour>
		<contour>
			<point x="366" y="395" type="line"/>
			<point x="337" y="426" type="line"/>
			<point x="639" y="708" type="line"/>
			<point x="668" y="676" type="line"/>
		</contour>
		<contour>
			<point x="358" y="0" type="line"/>
			<point x="315" y="0" type="line"/>
			<point x="315" y="402" type="line"/>
			<point x="358" y="402" type="line"/>
		</contour>
	</outline>
</glyph>
<glyph name="Z" format="2">
	<advance width="748"/>
	<unicode hex="005A"/>
	<anchor x="374" y="350" name="center"/>
	<anchor x="374" y="0" name="bottom"/>
	<anchor x="374" y="700" name="top"/>
	<outline>
		<contour>
			<point x="724" y="0" type="line"/>
			<point x="37" y="0" type="line"/>
			<point x="37" y="43" type="line"/>
			<point x="724" y="43" type="line"/>
		</contour>
		<contour>
			<point x="713" y="657" type="line"/>
			<point x="24" y="657" type="line"/>
			<point x="24" y="700" type="line"/>
			<point x="713" y="700" type="line"/>
		</contour>
		<contour>
			<point x="37" y="44" type="line"/>
			<point x="9" y="77" type="line"/>
			<point x="713" y="656" type="line"/>
			<point x="740" y="623" type="line"/>
		</contour>
	</outline>
</glyph>
<glyph name="bracketleft" format="2">
	<advance width="306"/>
	<unicode hex="005B"/>
	<outline>
		<contour>
			<point x="80" y="1" type="line"/>
			<point x="80" y="756" type="line"/>
			<point x="123" y="756" type="line"/>
			<point x="123" y="1" type="line"/>
		</contour>
		<contour>
			<point x="124" y="757" type="line"/>
			<point x="124" y="800" type="line"/>
			<point x="275" y="800" type="line"/>
			<point x="275" y="757" type="line"/>
		</contour>
		<contour>
			<point x="124" y="-43" type="line"/>
			<point x="124" y="0" type="line"/>
			<point x="275" y="0" type="line"/>
			<point x="275" y="-43" type="line"/>
		</contour>
	</outline>
</glyph>
<glyph name="backslash" format="2">
	<advance width="404"/>
	<unicode hex="005C"/>
	<outline>
		<contour>
			<point x="333" y="-68" type="line"/>
			<point x="30" y="786" type="line"/>
			<point x="71" y="800" type="line"/>
			<point x="374" y="-53" type="line"/>
		</contour>
	</outline>
</glyph>
<glyph name="bracketright" format="2">
	<advance width="305"/>
	<unicode hex="005D"/>
	<outline>
		<contour>
			<point x="225" y="1" type="line"/>
			<point x="182" y="1" type="line"/>
			<point x="182" y="756" type="line"/>
			<point x="225" y="756" type="line"/>
		</contour>
		<contour>
			<point x="181" y="757" type="line"/>
			<point x="30" y="757" type="line"/>
			<point x="30" y="800" type="line"/>
			<point x="181" y="800" type="line"/>
		</contour>
		<contour>
			<point x="181" y="-43" type="line"/>
			<point x="30" y="-43" type="line"/>
			<point x="30" y="0" type="line"/>
			<point x="181" y="0" type="line"/>
		</contour>
	</outline>
</glyph>
<glyph name="asciicircum" format="2">
	<advance width="367"/>
	<unicode hex="005E"/>
	<outline>
		<contour>
			<point x="298" y="440" type="line"/>
			<point x="186" y="691" type="line"/>
			<point x="225" y="708" type="line"/>
			<point x="337" y="457" type="line"/>
		</contour>
		<contour>
			<point x="69" y="440" type="line"/>
			<point x="30" y="457" type="line"/>
			<point x="142" y="708" type="line"/>
			<point x="181" y="691" type="line"/>
		</contour>
	</outline>
</glyph>
<glyph name="underscore" format="2">
	<advance width="441"/>
	<unicode hex="005F"/>
	<outline>
		<contour>
			<point x="431" y="-43" type="line"/>
			<point x="10" y="-43" type="line"/>
			<point x="10" y="0" type="line"/>
			<point x="431" y="0" type="line"/>
		</contour>
	</outline>
</glyph>
<glyph name="a" format="2">
	<advance width="518"/>
	<unicode hex="0061"/>
	<anchor x="466" y="10" name="ogonek"/>
	<anchor x="256" y="0" name="bottom"/>
	<anchor x="256" y="400" name="top"/>
	<outline>
		<contour>
			<point x="425" y="358" type="line"/>
			<point x="30" y="358" type="line"/>
			<point x="30" y="400" type="line"/>
			<point x="425" y="400" type="line"/>
		</contour>
		<contour>
			<point x="116" y="21" type="line"/>
			<point x="73" y="21" type="line"/>
			<point x="73" y="196" type="line"/>
			<point x="116" y="196" type="line"/>
		</contour>
		<contour>
			<point x="149" y="-12" type="line"/>
			<point x="119" y="19" type="line"/>
			<point x="395" y="290" type="line"/>
			<point x="425" y="260" type="line"/>
		</contour>
		<contour>
			<point x="468" y="0" type="line"/>
			<point x="426" y="0" type="line"/>
			<point x="426" y="357" type="line"/>
			<point x="468" y="357" type="line"/>
		</contour>
		<contour>
			<point x="117" y="199" type="line"/>
			<point x="101" y="239" type="line"/>
			<point x="405" y="357" type="line"/>
			<point x="421" y="317" type="line"/>
		</contour>
	</outline>
</glyph>
<glyph name="b" format="2">
	<advance width="490"/>
	<unicode hex="0062"/>
	<outline>
		<contour>
			<point x="70" y="0" type="line"/>
			<point x="70" y="700" type="line"/>
			<point x="113" y="700" type="line"/>
			<point x="113" y="0" type="line"/>
		</contour>
		<contour>
			<point x="127" y="310" type="line"/>
			<point x="127" y="353" type="line"/>
			<point x="441" y="353" type="line"/>
			<point x="441" y="310" type="line"/>
		</contour>
		<contour>
			<point x="144" y="-14" type="line"/>
			<point x="115" y="18" type="line"/>
			<point x="441" y="309" type="line"/>
			<point x="470" y="276" type="line"/>
		</contour>
	</outline>
</glyph>
<glyph name="c" format="2">
	<advance width="500"/>
	<unicode hex="0063"/>
	<anchor x="248" y="400" name="top"/>
	<anchor x="248" y="0" name="bottom"/>
	<outline>
		<contour>
			<point x="475" y="0" type="line"/>
			<point x="59" y="0" type="line"/>
			<point x="59" y="43" type="line"/>
			<point x="475" y="43" type="line"/>
		</contour>
		<contour>
			<point x="59" y="45" type="line"/>
			<point x="20" y="63" type="line"/>
			<point x="177" y="404" type="line"/>
			<point x="216" y="386" type="line"/>
		</contour>
		<contour>
			<point x="396" y="215" type="line"/>
			<point x="218" y="386" type="line"/>
			<point x="247" y="417" type="line"/>
			<point x="426" y="246" type="line"/>
		</contour>
	</outline>
</glyph>
<glyph name="d" format="2">
	<advance width="490"/>
	<unicode hex="0064"/>
	<anchor x="291" y="521" name="center"/>
	<anchor x="193" y="800" name="top"/>
	<anchor x="416" y="400" name="topright"/>
	<anchor x="193" y="0" name="bottom"/>
	<outline>
		<contour>
			<point x="420" y="0" type="line"/>
			<point x="377" y="0" type="line"/>
			<point x="377" y="700" type="line"/>
			<point x="420" y="700" type="line"/>
		</contour>
		<contour>
			<point x="363" y="310" type="line"/>
			<point x="49" y="310" type="line"/>
			<point x="49" y="353" type="line"/>
			<point x="363" y="353" type="line"/>
		</contour>
		<contour>
			<point x="346" y="-14" type="line"/>
			<point x="20" y="276" type="line"/>
			<point x="49" y="309" type="line"/>
			<point x="375" y="18" type="line"/>
		</contour>
	</outline>
</glyph>
<glyph name="e" format="2">
	<advance width="606"/>
	<unicode hex="0065"/>
	<anchor x="545" y="10" name="ogonek"/>
	<anchor x="299" y="0" name="bottom"/>
	<anchor x="299" y="400" name="top"/>
	<outline>
		<contour>
			<point x="558" y="233" type="line"/>
			<point x="244" y="378" type="line"/>
			<point x="262" y="417" type="line"/>
			<point x="576" y="272" type="line"/>
		</contour>
		<contour>
			<point x="550" y="192" type="line"/>
			<point x="108" y="192" type="line"/>
			<point x="108" y="235" type="line"/>
			<point x="550" y="235" type="line"/>
		</contour>
		<contour>
			<point x="71" y="198" type="line"/>
			<point x="40" y="227" type="line"/>
			<point x="212" y="407" type="line"/>
			<point x="243" y="378" type="line"/>
		</contour>
		<contour>
			<point x="438" y="0" type="line"/>
			<point x="93" y="0" type="line"/>
			<point x="93" y="43" type="line"/>
			<point x="438" y="43" type="line"/>
		</contour>
		<contour>
			<point x="92" y="44" type="line"/>
			<point x="50" y="44" type="line"/>
			<point x="50" y="197" type="line"/>
			<point x="92" y="197" type="line"/>
		</contour>
	</outline>
</glyph>
<glyph name="f" format="2">
	<advance width="567"/>
	<unicode hex="0066"/>
	<outline>
		<contour>
			<point x="205" y="401" type="line"/>
			<point x="177" y="433" type="line"/>
			<point x="490" y="712" type="line"/>
			<point x="518" y="680" type="line"/>
		</contour>
		<contour>
			<point x="505" y="357" type="line"/>
			<point x="15" y="357" type="line"/>
			<point x="15" y="400" type="line"/>
			<point x="505" y="400" type="line"/>
		</contour>
		<contour>
			<point x="225" y="0" type="line"/>
			<point x="182" y="0" type="line"/>
			<point x="182" y="346" type="line"/>
			<point x="225" y="346" type="line"/>
		</contour>
		<contour>
			<point x="562" y="550" type="line"/>
			<point x="519" y="550" type="line"/>
			<point x="519" y="679" type="line"/>
			<point x="562" y="679" type="line"/>
		</contour>
	</outline>
</glyph>
<glyph name="g" format="2">
	<advance width="520"/>
	<unicode hex="0067"/>
	<outline>
		<contour>
			<point x="453" y="0" type="line"/>
			<point x="399" y="243" type="line"/>
			<point x="441" y="252" type="line"/>
			<point x="495" y="9" type="line"/>
		</contour>
		<contour>
			<point x="398" y="44" type="line"/>
			<point x="355" y="44" type="line"/>
			<point x="355" y="564" type="line"/>
			<point x="398" y="564" type="line"/>
		</contour>
		<contour>
			<point x="354" y="0" type="line"/>
			<point x="200" y="0" type="line"/>
			<point x="200" y="43" type="line"/>
			<point x="354" y="43" type="line"/>
		</contour>
		<contour>
			<point x="199" y="43" type="line"/>
			<point x="166" y="70" type="line"/>
			<point x="321" y="271" type="line"/>
			<point x="354" y="245" type="line"/>
		</contour>
		<contour>
			<point x="126" y="236" type="line"/>
			<point x="105" y="274" type="line"/>
			<point x="334" y="397" type="line"/>
			<point x="354" y="359" type="line"/>
		</contour>
		<contour>
			<point x="103" y="275" type="line"/>
			<point x="60" y="275" type="line"/>
			<point x="60" y="514" type="line"/>
			<point x="103" y="514" type="line"/>
		</contour>
		<contour>
			<point x="105" y="517" type="line"/>
			<point x="97" y="559" type="line"/>
			<point x="343" y="608" type="line"/>
			<point x="352" y="566" type="line"/>
		</contour>
	</outline>
</glyph>
<glyph name="h" format="2">
	<advance width="448"/>
	<unicode hex="0068"/>
	<anchor x="152" y="535" name="center"/>
	<anchor x="204" y="0" name="bottom"/>
	<anchor x="204" y="800" name="top"/>
	<outline>
		<contour>
			<point x="113" y="0" type="line"/>
			<point x="70" y="0" type="line"/>
			<point x="70" y="700" type="line"/>
			<point x="113" y="700" type="line"/>
		</contour>
		<contour>
			<point x="344" y="357" type="line"/>
			<point x="130" y="357" type="line"/>
			<point x="130" y="400" type="line"/>
			<point x="344" y="400" type="line"/>
		</contour>
		<contour>
			<point x="388" y="0" type="line"/>
			<point x="345" y="0" type="line"/>
			<point x="345" y="356" type="line"/>
			<point x="388" y="356" type="line"/>
		</contour>
	</outline>
</glyph>
<glyph name="i" format="2">
	<advance width="216"/>
	<unicode hex="0069"/>
	<outline>
		<contour>
			<point x="87" y="0" type="line"/>
			<point x="87" y="400" type="line"/>
			<point x="130" y="400" type="line"/>
			<point x="130" y="0" type="line"/>
		</contour>
		<contour>
			<point x="146" y="531" type="line"/>
			<point x="71" y="531" type="line"/>
			<point x="71" y="574" type="line"/>
			<point x="146" y="574" type="line"/>
		</contour>
		<contour>
			<point x="146" y="657" type="line"/>
			<point x="71" y="657" type="line"/>
			<point x="71" y="700" type="line"/>
			<point x="146" y="700" type="line"/>
		</contour>
		<contour>
			<point x="192" y="578" type="line"/>
			<point x="150" y="578" type="line"/>
			<point x="150" y="653" type="line"/>
			<point x="192" y="653" type="line"/>
		</contour>
		<contour>
			<point x="67" y="578" type="line"/>
			<point x="24" y="578" type="line"/>
			<point x="24" y="653" type="line"/>
			<point x="67" y="653" type="line"/>
		</contour>
	</outline>
</glyph>
<glyph name="j" format="2">
	<advance width="348"/>
	<unicode hex="006A"/>
	<outline>
		<contour>
			<point x="189" y="0" type="line"/>
			<point x="5" y="141" type="line"/>
			<point x="31" y="175" type="line"/>
			<point x="215" y="34" type="line"/>
		</contour>
		<contour>
			<point x="262" y="0" type="line"/>
			<point x="219" y="0" type="line"/>
			<point x="219" y="400" type="line"/>
			<point x="262" y="400" type="line"/>
		</contour>
		<contour>
			<point x="277" y="531" type="line"/>
			<point x="202" y="531" type="line"/>
			<point x="202" y="574" type="line"/>
			<point x="277" y="574" type="line"/>
		</contour>
		<contour>
			<point x="277" y="657" type="line"/>
			<point x="202" y="657" type="line"/>
			<point x="202" y="700" type="line"/>
			<point x="277" y="700" type="line"/>
		</contour>
		<contour>
			<point x="323" y="578" type="line"/>
			<point x="281" y="578" type="line"/>
			<point x="281" y="653" type="line"/>
			<point x="323" y="653" type="line"/>
		</contour>
		<contour>
			<point x="198" y="578" type="line"/>
			<point x="155" y="578" type="line"/>
			<point x="155" y="653" type="line"/>
			<point x="198" y="653" type="line"/>
		</contour>
	</outline>
</glyph>
<glyph name="k" format="2">
	<advance width="470"/>
	<unicode hex="006B"/>
	<outline>
		<contour>
			<point x="113" y="0" type="line"/>
			<point x="70" y="0" type="line"/>
			<point x="70" y="700" type="line"/>
			<point x="113" y="700" type="line"/>
		</contour>
		<contour>
			<point x="447" y="297" type="line"/>
			<point x="129" y="297" type="line"/>
			<point x="129" y="340" type="line"/>
			<point x="447" y="340" type="line"/>
		</contour>
		<contour>
			<point x="389" y="-12" type="line"/>
			<point x="114" y="262" type="line"/>
			<point x="144" y="292" type="line"/>
			<point x="419" y="18" type="line"/>
		</contour>
	</outline>
</glyph>
<glyph name="l" format="2">
	<advance width="237"/>
	<unicode hex="006C"/>
	<anchor x="91" y="370" name="center"/>
	<anchor x="131" y="800" name="top"/>
	<anchor x="242" y="800" name="topright"/>
	<anchor x="131" y="0" name="bottom"/>
	<outline>
		<contour>
			<point x="113" y="44" type="line"/>
			<point x="70" y="44" type="line"/>
			<point x="70" y="700" type="line"/>
			<point x="113" y="700" type="line"/>
		</contour>
		<contour>
			<point x="232" y="0" type="line"/>
			<point x="114" y="0" type="line"/>
			<point x="114" y="43" type="line"/>
			<point x="232" y="43" type="line"/>
		</contour>
	</outline>
</glyph>
<glyph name="m" format="2">
	<advance width="713"/>
	<unicode hex="006D"/>
	<outline>
		<contour>
			<point x="103" y="0" type="line"/>
			<point x="60" y="0" type="line"/>
			<point x="60" y="356" type="line"/>
			<point x="103" y="356" type="line"/>
		</contour>
		<contour>
			<point x="609" y="357" type="line"/>
			<point x="104" y="357" type="line"/>
			<point x="104" y="400" type="line"/>
			<point x="609" y="400" type="line"/>
		</contour>
		<contour>
			<point x="653" y="0" type="line"/>
			<point x="610" y="0" type="line"/>
			<point x="610" y="356" type="line"/>
			<point x="653" y="356" type="line"/>
		</contour>
		<contour>
			<point x="383" y="0" type="line"/>
			<point x="340" y="0" type="line"/>
			<point x="340" y="340" type="line"/>
			<point x="383" y="340" type="line"/>
		</contour>
	</outline>
</glyph>
<glyph name="n" format="2">
	<advance width="546"/>
	<unicode hex="006E"/>
	<anchor x="293" y="400" name="top"/>
	<anchor x="293" y="0" name="bottom"/>
	<outline>
		<contour>
			<point x="103" y="0" type="line"/>
			<point x="60" y="0" type="line"/>
			<point x="60" y="400" type="line"/>
			<point x="103" y="400" type="line"/>
		</contour>
		<contour>
			<point x="471" y="0" type="line"/>
			<point x="428" y="0" type="line"/>
			<point x="428" y="341" type="line"/>
			<point x="471" y="341" type="line"/>
		</contour>
		<contour>
			<point x="120" y="229" type="line"/>
			<point x="105" y="270" type="line"/>
			<point x="481" y="408" type="line"/>
			<point x="496" y="367" type="line"/>
		</contour>
	</outline>
</glyph>
<glyph name="o" format="2">
	<advance width="512"/>
	<unicode hex="006F"/>
	<anchor x="256" y="200" name="center"/>
	<anchor x="453" y="10" name="ogonek"/>
	<anchor x="256" y="400" name="top"/>
	<anchor x="482" y="400" name="topright"/>
	<anchor x="256" y="0" name="bottom"/>
	<outline>
		<contour>
			<point x="76" y="201" type="line"/>
			<point x="45" y="231" type="line"/>
			<point x="223" y="408" type="line"/>
			<point x="253" y="377" type="line"/>
		</contour>
		<contour>
			<point x="290" y="-12" type="line"/>
			<point x="259" y="19" type="line"/>
			<point x="437" y="196" type="line"/>
			<point x="467" y="166" type="line"/>
		</contour>
		<contour>
			<point x="222" y="-12" type="line"/>
			<point x="46" y="165" type="line"/>
			<point x="76" y="195" type="line"/>
			<point x="253" y="18" type="line"/>
		</contour>
		<contour>
			<point x="437" y="202" type="line"/>
			<point x="260" y="377" type="line"/>
			<point x="291" y="408" type="line"/>
			<point x="467" y="232" type="line"/>
		</contour>
	</outline>
</glyph>
<glyph name="p" format="2">
	<advance width="535"/>
	<unicode hex="0070"/>
	<outline>
		<contour>
			<point x="113" y="0" type="line"/>
			<point x="70" y="0" type="line"/>
			<point x="70" y="600" type="line"/>
			<point x="113" y="600" type="line"/>
		</contour>
		<contour>
			<point x="148" y="414" type="line"/>
			<point x="117" y="444" type="line"/>
			<point x="282" y="608" type="line"/>
			<point x="312" y="578" type="line"/>
		</contour>
		<contour>
			<point x="345" y="216" type="line"/>
			<point x="315" y="246" type="line"/>
			<point x="479" y="411" type="line"/>
			<point x="509" y="380" type="line"/>
		</contour>
		<contour>
			<point x="281" y="216" type="line"/>
			<point x="117" y="380" type="line"/>
			<point x="148" y="410" type="line"/>
			<point x="312" y="246" type="line"/>
		</contour>
		<contour>
			<point x="480" y="414" type="line"/>
			<point x="315" y="578" type="line"/>
			<point x="346" y="608" type="line"/>
			<point x="510" y="444" type="line"/>
		</contour>
	</outline>
</glyph>
<glyph name="q" format="2">
	<advance width="535"/>
	<unicode hex="0071"/>
	<outline>
		<contour>
			<point x="422" y="0" type="line"/>
			<point x="422" y="600" type="line"/>
			<point x="465" y="600" type="line"/>
			<point x="465" y="0" type="line"/>
		</contour>
		<contour>
			<point x="387" y="414" type="line"/>
			<point x="223" y="578" type="line"/>
			<point x="253" y="608" type="line"/>
			<point x="418" y="444" type="line"/>
		</contour>
		<contour>
			<point x="190" y="216" type="line"/>
			<point x="26" y="380" type="line"/>
			<point x="56" y="411" type="line"/>
			<point x="220" y="246" type="line"/>
		</contour>
		<contour>
			<point x="254" y="216" type="line"/>
			<point x="223" y="246" type="line"/>
			<point x="387" y="410" type="line"/>
			<point x="418" y="380" type="line"/>
		</contour>
		<contour>
			<point x="55" y="414" type="line"/>
			<point x="25" y="444" type="line"/>
			<point x="189" y="608" type="line"/>
			<point x="220" y="578" type="line"/>
		</contour>
	</outline>
</glyph>
<glyph name="r" format="2">
	<advance width="388"/>
	<unicode hex="0072"/>
	<outline>
		<contour>
			<point x="103" y="0" type="line"/>
			<point x="60" y="0" type="line"/>
			<point x="60" y="400" type="line"/>
			<point x="103" y="400" type="line"/>
		</contour>
		<contour>
			<point x="264" y="357" type="line"/>
			<point x="117" y="357" type="line"/>
			<point x="117" y="400" type="line"/>
			<point x="264" y="400" type="line"/>
		</contour>
		<contour>
			<point x="348" y="298" type="line"/>
			<point x="265" y="357" type="line"/>
			<point x="290" y="392" type="line"/>
			<point x="373" y="332" type="line"/>
		</contour>
	</outline>
</glyph>
<glyph name="s" format="2">
	<advance width="476"/>
	<unicode hex="0073"/>
	<outline>
		<contour>
			<point x="446" y="357" type="line"/>
			<point x="62" y="357" type="line"/>
			<point x="62" y="400" type="line"/>
			<point x="446" y="400" type="line"/>
		</contour>
		<contour>
			<point x="371" y="52" type="line"/>
			<point x="74" y="318" type="line"/>
			<point x="102" y="350" type="line"/>
			<point x="400" y="84" type="line"/>
		</contour>
		<contour>
			<point x="414" y="0" type="line"/>
			<point x="30" y="0" type="line"/>
			<point x="30" y="43" type="line"/>
			<point x="414" y="43" type="line"/>
		</contour>
	</outline>
</glyph>
<glyph name="t" format="2">
	<advance width="369"/>
	<unicode hex="0074"/>
	<outline>
		<contour>
			<point x="206" y="469" type="line"/>
			<point x="163" y="469" type="line"/>
			<point x="163" y="700" type="line"/>
			<point x="206" y="700" type="line"/>
		</contour>
		<contour>
			<point x="206" y="0" type="line"/>
			<point x="163" y="0" type="line"/>
			<point x="163" y="400" type="line"/>
			<point x="206" y="400" type="line"/>
		</contour>
		<contour>
			<point x="359" y="412" type="line"/>
			<point x="10" y="412" type="line"/>
			<point x="10" y="455" type="line"/>
			<point x="359" y="455" type="line"/>
		</contour>
	</outline>
</glyph>
<glyph name="u" format="2">
	<advance width="482"/>
	<unicode hex="0075"/>
	<anchor x="426" y="10" name="ogonek"/>
	<anchor x="241" y="400" name="top"/>
	<anchor x="452" y="400" name="topright"/>
	<anchor x="241" y="0" name="bottom"/>
	<outline>
		<contour>
			<point x="103" y="44" type="line"/>
			<point x="60" y="44" type="line"/>
			<point x="60" y="400" type="line"/>
			<point x="103" y="400" type="line"/>
		</contour>
		<contour>
			<point x="378" y="0" type="line"/>
			<point x="104" y="0" type="line"/>
			<point x="104" y="43" type="line"/>
			<point x="378" y="43" type="line"/>
		</contour>
		<contour>
			<point x="422" y="44" type="line"/>
			<point x="379" y="44" type="line"/>
			<point x="379" y="400" type="line"/>
			<point x="422" y="400" type="line"/>
		</contour>
	</outline>
</glyph>
<glyph name="v" format="2">
	<advance width="501"/>
	<unicode hex="0076"/>
	<outline>
		<contour>
			<point x="290" y="-12" type="line"/>
			<point x="252" y="7" type="line"/>
			<point x="453" y="408" type="line"/>
			<point x="491" y="389" type="line"/>
		</contour>
		<contour>
			<point x="212" y="-12" type="line"/>
			<point x="10" y="389" type="line"/>
			<point x="48" y="408" type="line"/>
			<point x="251" y="7" type="line"/>
		</contour>
	</outline>
</glyph>
<glyph name="w" format="2">
	<advance width="748"/>
	<unicode hex="0077"/>
	<outline>
		<contour>
			<point x="156" y="-12" type="line"/>
			<point x="22" y="395" type="line"/>
			<point x="63" y="408" type="line"/>
			<point x="197" y="1" type="line"/>
		</contour>
		<contour>
			<point x="239" y="-12" type="line"/>
			<point x="198" y="1" type="line"/>
			<point x="332" y="408" type="line"/>
			<point x="373" y="395" type="line"/>
		</contour>
		<contour>
			<point x="508" y="-12" type="line"/>
			<point x="374" y="395" type="line"/>
			<point x="415" y="408" type="line"/>
			<point x="549" y="1" type="line"/>
		</contour>
		<contour>
			<point x="590" y="-12" type="line"/>
			<point x="550" y="1" type="line"/>
			<point x="683" y="408" type="line"/>
			<point x="724" y="395" type="line"/>
		</contour>
	</outline>
</glyph>
<glyph name="x" format="2">
	<advance width="484"/>
	<unicode hex="0078"/>
	<outline>
		<contour>
			<point x="214" y="229" type="line"/>
			<point x="20" y="373" type="line"/>
			<point x="45" y="408" type="line"/>
			<point x="240" y="263" type="line"/>
		</contour>
		<contour>
			<point x="93" y="-12" type="line"/>
			<point x="58" y="12" type="line"/>
			<point x="203" y="229" type="line"/>
			<point x="238" y="206" type="line"/>
		</contour>
		<contour>
			<point x="270" y="229" type="line"/>
			<point x="244" y="263" type="line"/>
			<point x="439" y="408" type="line"/>
			<point x="464" y="373" type="line"/>
		</contour>
		<contour>
			<point x="391" y="-12" type="line"/>
			<point x="246" y="206" type="line"/>
			<point x="281" y="229" type="line"/>
			<point x="426" y="12" type="line"/>
		</contour>
	</outline>
</glyph>
<glyph name="y" format="2">
	<advance width="450"/>
	<unicode hex="0079"/>
	<anchor x="213" y="580" name="top"/>
	<anchor x="232" y="0" name="bottom"/>
	<outline>
		<contour>
			<point x="169" y="175" type="line"/>
			<point x="15" y="597" type="line"/>
			<point x="56" y="612" type="line"/>
			<point x="209" y="189" type="line"/>
		</contour>
		<contour>
			<point x="251" y="175" type="line"/>
			<point x="211" y="189" type="line"/>
			<point x="364" y="612" type="line"/>
			<point x="405" y="597" type="line"/>
		</contour>
		<contour>
			<point x="390" y="44" type="line"/>
			<point x="271" y="225" type="line"/>
			<point x="306" y="248" type="line"/>
			<point x="425" y="67" type="line"/>
		</contour>
		<contour>
			<point x="389" y="0" type="line"/>
			<point x="78" y="0" type="line"/>
			<point x="78" y="43" type="line"/>
			<point x="389" y="43" type="line"/>
		</contour>
	</outline>
</glyph>
<glyph name="z" format="2">
	<advance width="599"/>
	<unicode hex="007A"/>
	<outline>
		<contour>
			<point x="505" y="357" type="line"/>
			<point x="20" y="357" type="line"/>
			<point x="20" y="400" type="line"/>
			<point x="505" y="400" type="line"/>
		</contour>
		<contour>
			<point x="89" y="44" type="line"/>
			<point x="66" y="80" type="line"/>
			<point x="505" y="356" type="line"/>
			<point x="528" y="320" type="line"/>
		</contour>
		<contour>
			<point x="579" y="0" type="line"/>
			<point x="89" y="0" type="line"/>
			<point x="89" y="43" type="line"/>
			<point x="579" y="43" type="line"/>
		</contour>
	</outline>
</glyph>
<glyph name="braceleft" format="2">
	<advance width="316"/>
	<unicode hex="007B"/>
	<outline>
		<contour>
			<point x="129" y="1" type="line"/>
			<point x="129" y="284" type="line"/>
			<point x="172" y="284" type="line"/>
			<point x="172" y="1" type="line"/>
		</contour>
		<contour>
			<point x="129" y="482" type="line"/>
			<point x="129" y="756" type="line"/>
			<point x="172" y="756" type="line"/>
			<point x="172" y="482" type="line"/>
		</contour>
		<contour>
			<point x="173" y="757" type="line"/>
			<point x="173" y="800" type="line"/>
			<point x="286" y="800" type="line"/>
			<point x="286" y="757" type="line"/>
		</contour>
		<contour>
			<point x="173" y="-43" type="line"/>
			<point x="173" y="0" type="line"/>
			<point x="286" y="0" type="line"/>
			<point x="286" y="-43" type="line"/>
		</contour>
		<contour>
			<point x="41" y="384" type="line"/>
			<point x="21" y="421" type="line"/>
			<point x="129" y="481" type="line"/>
			<point x="150" y="444" type="line"/>
		</contour>
		<contour>
			<point x="129" y="285" type="line"/>
			<point x="20" y="346" type="line"/>
			<point x="41" y="383" type="line"/>
			<point x="150" y="322" type="line"/>
		</contour>
	</outline>
</glyph>
<glyph name="bar" format="2">
	<advance width="203"/>
	<unicode hex="007C"/>
	<outline>
		<contour>
			<point x="123" y="0" type="line"/>
			<point x="80" y="0" type="line"/>
			<point x="80" y="700" type="line"/>
			<point x="123" y="700" type="line"/>
		</contour>
	</outline>
</glyph>
<glyph name="braceright" format="2">
	<advance width="315"/>
	<unicode hex="007D"/>
	<outline>
		<contour>
			<point x="186" y="1" type="line"/>
			<point x="143" y="1" type="line"/>
			<point x="143" y="284" type="line"/>
			<point x="186" y="284" type="line"/>
		</contour>
		<contour>
			<point x="186" y="482" type="line"/>
			<point x="143" y="482" type="line"/>
			<point x="143" y="756" type="line"/>
			<point x="186" y="756" type="line"/>
		</contour>
		<contour>
			<point x="142" y="757" type="line"/>
			<point x="30" y="757" type="line"/>
			<point x="30" y="800" type="line"/>
			<point x="142" y="800" type="line"/>
		</contour>
		<contour>
			<point x="142" y="-43" type="line"/>
			<point x="30" y="-43" type="line"/>
			<point x="30" y="0" type="line"/>
			<point x="142" y="0" type="line"/>
		</contour>
		<contour>
			<point x="274" y="384" type="line"/>
			<point x="165" y="444" type="line"/>
			<point x="186" y="481" type="line"/>
			<point x="294" y="421" type="line"/>
		</contour>
		<contour>
			<point x="186" y="285" type="line"/>
			<point x="165" y="322" type="line"/>
			<point x="274" y="383" type="line"/>
			<point x="295" y="346" type="line"/>
		</contour>
	</outline>
</glyph>
<glyph name="asciitilde" format="2">
	<advance width="663"/>
	<unicode hex="007E"/>
	<outline>
		<contour>
			<point x="52" y="340" type="line"/>
			<point x="20" y="368" type="line"/>
			<point x="135" y="503" type="line"/>
			<point x="168" y="475" type="line"/>
		</contour>
		<contour>
			<point x="480" y="169" type="line"/>
			<point x="173" y="475" type="line"/>
			<point x="204" y="506" type="line"/>
			<point x="510" y="199" type="line"/>
		</contour>
		<contour>
			<point x="548" y="172" type="line"/>
			<point x="515" y="200" type="line"/>
			<point x="610" y="314" type="line"/>
			<point x="643" y="287" type="line"/>
		</contour>
	</outline>
</glyph>
<glyph name="exclamdown" format="2">
	<advance width="233"/>
	<unicode hex="00A1"/>
	<outline>
		<contour>
			<point x="68" y="654" type="line"/>
			<point x="110" y="568" type="line"/>
			<point x="72" y="549" type="line"/>
			<point x="30" y="635" type="line"/>
		</contour>
		<contour>
			<point x="166" y="653" type="line"/>
			<point x="203" y="632" type="line"/>
			<point x="154" y="547" type="line"/>
			<point x="117" y="568" type="line"/>
		</contour>
		<contour>
			<point x="164" y="700" type="line"/>
			<point x="164" y="657" type="line"/>
			<point x="70" y="657" type="line"/>
			<point x="70" y="700" type="line"/>
		</contour>
		<contour>
			<point x="134" y="491" type="line"/>
			<point x="134" y="0" type="line"/>
			<point x="91" y="0" type="line"/>
			<point x="91" y="491" type="line"/>
		</contour>
	</outline>
</glyph>
<glyph name="cent" format="2">
	<advance width="509"/>
	<unicode hex="00A2"/>
	<outline>
		<contour>
			<point x="479" y="170" type="line"/>
			<point x="64" y="170" type="line"/>
			<point x="64" y="213" type="line"/>
			<point x="479" y="213" type="line"/>
		</contour>
		<contour>
			<point x="63" y="215" type="line"/>
			<point x="24" y="233" type="line"/>
			<point x="181" y="574" type="line"/>
			<point x="220" y="556" type="line"/>
		</contour>
		<contour>
			<point x="400" y="385" type="line"/>
			<point x="221" y="556" type="line"/>
			<point x="250" y="587" type="line"/>
			<point x="430" y="416" type="line"/>
		</contour>
		<contour>
			<point x="275" y="588" type="line"/>
			<point x="232" y="588" type="line"/>
			<point x="232" y="830" type="line"/>
			<point x="275" y="830" type="line"/>
		</contour>
		<contour>
			<point x="275" y="-80" type="line"/>
			<point x="232" y="-80" type="line"/>
			<point x="232" y="155" type="line"/>
			<point x="275" y="155" type="line"/>
		</contour>
	</outline>
</glyph>
<glyph name="sterling" format="2">
	<advance width="527"/>
	<unicode hex="00A3"/>
	<outline>
		<contour>
			<point x="91" y="43" type="line"/>
			<point x="51" y="61" type="line"/>
			<point x="353" y="708" type="line"/>
			<point x="393" y="690" type="line"/>
		</contour>
		<contour>
			<point x="177" y="378" type="line"/>
			<point x="177" y="335" type="line"/>
			<point x="16" y="335" type="line"/>
			<point x="16" y="378" type="line"/>
		</contour>
		<contour>
			<point x="491" y="378" type="line"/>
			<point x="491" y="335" type="line"/>
			<point x="249" y="335" type="line"/>
			<point x="249" y="378" type="line"/>
		</contour>
		<contour>
			<point x="359" y="0" type="line"/>
			<point x="92" y="0" type="line"/>
			<point x="92" y="43" type="line"/>
			<point x="359" y="43" type="line"/>
		</contour>
		<contour>
			<point x="388" y="10" type="line"/>
			<point x="360" y="43" type="line"/>
			<point x="469" y="135" type="line"/>
			<point x="496" y="102" type="line"/>
		</contour>
	</outline>
</glyph>
<glyph name="yen" format="2">
	<advance width="678"/>
	<unicode hex="00A5"/>
	<outline>
		<contour>
			<point x="308" y="393" type="line"/>
			<point x="5" y="677" type="line"/>
			<point x="34" y="708" type="line"/>
			<point x="338" y="424" type="line"/>
		</contour>
		<contour>
			<point x="369" y="393" type="line"/>
			<point x="340" y="424" type="line"/>
			<point x="644" y="708" type="line"/>
			<point x="673" y="676" type="line"/>
		</contour>
		<contour>
			<point x="360" y="0" type="line"/>
			<point x="317" y="0" type="line"/>
			<point x="317" y="400" type="line"/>
			<point x="360" y="400" type="line"/>
		</contour>
		<contour>
			<point x="305" y="380" type="line"/>
			<point x="305" y="337" type="line"/>
			<point x="91" y="337" type="line"/>
			<point x="91" y="380" type="line"/>
		</contour>
		<contour>
			<point x="585" y="380" type="line"/>
			<point x="585" y="337" type="line"/>
			<point x="371" y="337" type="line"/>
			<point x="371" y="380" type="line"/>
		</contour>
	</outline>
</glyph>
<glyph name="brokenbar" format="2">
	<advance width="203"/>
	<unicode hex="00A6"/>
	<outline>
		<contour>
			<point x="123" y="437" type="line"/>
			<point x="80" y="437" type="line"/>
			<point x="80" y="700" type="line"/>
			<point x="123" y="700" type="line"/>
		</contour>
		<contour>
			<point x="123" y="0" type="line"/>
			<point x="80" y="0" type="line"/>
			<point x="80" y="263" type="line"/>
			<point x="123" y="263" type="line"/>
		</contour>
	</outline>
</glyph>
<glyph name="section" format="2">
	<advance width="390"/>
	<unicode hex="00A7"/>
	<outline>
		<contour>
			<point x="313" y="338" type="line"/>
			<point x="70" y="528" type="line"/>
			<point x="97" y="561" type="line"/>
			<point x="340" y="372" type="line"/>
		</contour>
		<contour>
			<point x="293" y="135" type="line"/>
			<point x="50" y="324" type="line"/>
			<point x="77" y="358" type="line"/>
			<point x="320" y="169" type="line"/>
		</contour>
		<contour>
			<point x="221" y="247" type="line"/>
			<point x="203" y="286" type="line"/>
			<point x="311" y="337" type="line"/>
			<point x="330" y="298" type="line"/>
		</contour>
		<contour>
			<point x="78" y="359" type="line"/>
			<point x="59" y="398" type="line"/>
			<point x="168" y="449" type="line"/>
			<point x="186" y="411" type="line"/>
		</contour>
		<contour>
			<point x="96" y="563" type="line"/>
			<point x="75" y="601" type="line"/>
			<point x="266" y="708" type="line"/>
			<point x="287" y="670" type="line"/>
		</contour>
		<contour>
			<point x="124" y="-12" type="line"/>
			<point x="103" y="25" type="line"/>
			<point x="293" y="133" type="line"/>
			<point x="314" y="96" type="line"/>
		</contour>
		<contour>
			<point x="334" y="585" type="line"/>
			<point x="291" y="585" type="line"/>
			<point x="291" y="700" type="line"/>
			<point x="334" y="700" type="line"/>
		</contour>
		<contour>
			<point x="99" y="0" type="line"/>
			<point x="56" y="0" type="line"/>
			<point x="56" y="115" type="line"/>
			<point x="99" y="115" type="line"/>
		</contour>
	</outline>
</glyph>
<glyph name="dieresis" format="2">
	<advance width="385"/>
	<unicode hex="00A8"/>
	<anchor x="192" y="946" name="top"/>
	<anchor x="192" y="700" name="_top"/>
	<outline>
		<contour>
			<point x="38" y="843" type="line"/>
			<point x="0" y="864" type="line"/>
			<point x="53" y="963" type="line"/>
			<point x="91" y="942" type="line"/>
		</contour>
		<contour>
			<point x="148" y="843" type="line"/>
			<point x="95" y="942" type="line"/>
			<point x="133" y="963" type="line"/>
			<point x="186" y="864" type="line"/>
		</contour>
		<contour>
			<point x="145" y="800" type="line"/>
			<point x="41" y="800" type="line"/>
			<point x="41" y="843" type="line"/>
			<point x="145" y="843" type="line"/>
		</contour>
		<contour>
			<point x="237" y="843" type="line"/>
			<point x="199" y="864" type="line"/>
			<point x="252" y="963" type="line"/>
			<point x="290" y="942" type="line"/>
		</contour>
		<contour>
			<point x="347" y="843" type="line"/>
			<point x="294" y="942" type="line"/>
			<point x="332" y="963" type="line"/>
			<point x="385" y="864" type="line"/>
		</contour>
		<contour>
			<point x="344" y="800" type="line"/>
			<point x="240" y="800" type="line"/>
			<point x="240" y="843" type="line"/>
			<point x="344" y="843" type="line"/>
		</contour>
	</outline>
</glyph>
<glyph name="guillemetleft" format="2">
	<advance width="386"/>
	<unicode hex="00AB"/>
	<outline>
		<contour>
			<point x="70" y="314" type="line"/>
			<point x="40" y="344" type="line"/>
			<point x="175" y="479" type="line"/>
			<point x="205" y="449" type="line"/>
		</contour>
		<contour>
			<point x="70" y="310" type="line"/>
			<point x="205" y="175" type="line"/>
			<point x="175" y="145" type="line"/>
			<point x="40" y="280" type="line"/>
		</contour>
		<contour>
			<point x="201" y="314" type="line"/>
			<point x="171" y="344" type="line"/>
			<point x="306" y="479" type="line"/>
			<point x="336" y="449" type="line"/>
		</contour>
		<contour>
			<point x="201" y="310" type="line"/>
			<point x="336" y="175" type="line"/>
			<point x="306" y="145" type="line"/>
			<point x="171" y="280" type="line"/>
		</contour>
	</outline>
</glyph>
<glyph name="degree" format="2">
	<advance width="266"/>
	<unicode hex="00B0"/>
	<outline>
		<contour>
			<point x="72" y="541" type="line"/>
			<point x="30" y="541" type="line"/>
			<point x="30" y="653" type="line"/>
			<point x="72" y="653" type="line"/>
		</contour>
		<contour>
			<point x="189" y="494" type="line"/>
			<point x="77" y="494" type="line"/>
			<point x="77" y="537" type="line"/>
			<point x="189" y="537" type="line"/>
		</contour>
		<contour>
			<point x="236" y="541" type="line"/>
			<point x="193" y="541" type="line"/>
			<point x="193" y="653" type="line"/>
			<point x="236" y="653" type="line"/>
		</contour>
		<contour>
			<point x="189" y="657" type="line"/>
			<point x="76" y="657" type="line"/>
			<point x="76" y="700" type="line"/>
			<point x="189" y="700" type="line"/>
		</contour>
	</outline>
</glyph>
<glyph name="plusminus" format="2">
	<advance width="493"/>
	<unicode hex="00B1"/>
	<outline>
		<contour>
			<point x="268" y="402" type="line"/>
			<point x="225" y="402" type="line"/>
			<point x="225" y="595" type="line"/>
			<point x="268" y="595" type="line"/>
		</contour>
		<contour>
			<point x="268" y="162" type="line"/>
			<point x="225" y="162" type="line"/>
			<point x="225" y="356" type="line"/>
			<point x="268" y="356" type="line"/>
		</contour>
		<contour>
			<point x="224" y="357" type="line"/>
			<point x="30" y="357" type="line"/>
			<point x="30" y="400" type="line"/>
			<point x="224" y="400" type="line"/>
		</contour>
		<contour>
			<point x="463" y="357" type="line"/>
			<point x="269" y="357" type="line"/>
			<point x="269" y="400" type="line"/>
			<point x="463" y="400" type="line"/>
		</contour>
		<contour>
			<point x="461" y="44" type="line"/>
			<point x="31" y="44" type="line"/>
			<point x="31" y="87" type="line"/>
			<point x="461" y="87" type="line"/>
		</contour>
	</outline>
</glyph>
<glyph name="acute" format="2">
	<advance width="235"/>
	<unicode hex="00B4"/>
	<anchor x="118" y="1007" name="top"/>
	<anchor x="118" y="700" name="_top"/>
	<outline>
		<contour>
			<point x="27" y="800" type="line"/>
			<point x="0" y="833" type="line"/>
			<point x="208" y="1007" type="line"/>
			<point x="235" y="975" type="line"/>
		</contour>
	</outline>
</glyph>
<glyph name="paragraph" format="2">
	<advance width="414"/>
	<unicode hex="00B6"/>
	<outline>
		<contour>
			<point x="257" y="-130" type="line"/>
			<point x="214" y="-130" type="line"/>
			<point x="214" y="572" type="line"/>
			<point x="257" y="572" type="line"/>
		</contour>
		<contour>
			<point x="333" y="-130" type="line"/>
			<point x="290" y="-130" type="line"/>
			<point x="290" y="572" type="line"/>
			<point x="333" y="572" type="line"/>
		</contour>
		<contour>
			<point x="51" y="434" type="line"/>
			<point x="23" y="466" type="line"/>
			<point x="306" y="708" type="line"/>
			<point x="334" y="676" type="line"/>
		</contour>
		<contour>
			<point x="181" y="237" type="line"/>
			<point x="20" y="403" type="line"/>
			<point x="51" y="433" type="line"/>
			<point x="212" y="266" type="line"/>
		</contour>
	</outline>
</glyph>
<glyph name="periodcentered" format="2">
	<advance width="266"/>
	<unicode hex="00B7"/>
	<outline>
		<contour>
			<point x="78" y="243" type="line"/>
			<point x="40" y="264" type="line"/>
			<point x="93" y="363" type="line"/>
			<point x="131" y="342" type="line"/>
		</contour>
		<contour>
			<point x="188" y="243" type="line"/>
			<point x="135" y="342" type="line"/>
			<point x="173" y="363" type="line"/>
			<point x="226" y="264" type="line"/>
		</contour>
		<contour>
			<point x="185" y="200" type="line"/>
			<point x="81" y="200" type="line"/>
			<point x="81" y="243" type="line"/>
			<point x="185" y="243" type="line"/>
		</contour>
	</outline>
</glyph>
<glyph name="cedilla" format="2">
	<advance width="208"/>
	<unicode hex="00B8"/>
	<anchor x="104" y="0" name="_bottom"/>
	<anchor x="104" y="-301" name="bottom"/>
	<outline>
		<contour>
			<point x="191" y="-176" type="line"/>
			<point x="0" y="-95" type="line"/>
			<point x="17" y="-56" type="line"/>
			<point x="208" y="-137" type="line"/>
		</contour>
		<contour>
			<point x="191" y="-181" type="line"/>
			<point x="208" y="-220" type="line"/>
			<point x="17" y="-301" type="line"/>
			<point x="0" y="-262" type="line"/>
		</contour>
	</outline>
</glyph>
<glyph name="guillemetright" format="2">
	<advance width="386"/>
	<unicode hex="00BB"/>
	<outline>
		<contour>
			<point x="316" y="314" type="line"/>
			<point x="181" y="449" type="line"/>
			<point x="211" y="479" type="line"/>
			<point x="346" y="344" type="line"/>
		</contour>
		<contour>
			<point x="316" y="310" type="line"/>
			<point x="346" y="280" type="line"/>
			<point x="211" y="145" type="line"/>
			<point x="181" y="175" type="line"/>
		</contour>
		<contour>
			<point x="185" y="314" type="line"/>
			<point x="50" y="449" type="line"/>
			<point x="80" y="479" type="line"/>
			<point x="215" y="344" type="line"/>
		</contour>
		<contour>
			<point x="185" y="310" type="line"/>
			<point x="215" y="280" type="line"/>
			<point x="80" y="145" type="line"/>
			<point x="50" y="175" type="line"/>
		</contour>
	</outline>
</glyph>
<glyph name="questiondown" format="2">
	<advance width="421"/>
	<unicode hex="00BF"/>
	<outline>
		<contour>
			<point x="296" y="654" type="line"/>
			<point x="334" y="635" type="line"/>
			<point x="292" y="549" type="line"/>
			<point x="254" y="568" type="line"/>
		</contour>
		<contour>
			<point x="198" y="653" type="line"/>
			<point x="247" y="568" type="line"/>
			<point x="210" y="547" type="line"/>
			<point x="161" y="632" type="line"/>
		</contour>
		<contour>
			<point x="200" y="700" type="line"/>
			<point x="294" y="700" type="line"/>
			<point x="294" y="657" type="line"/>
			<point x="200" y="657" type="line"/>
		</contour>
		<contour>
			<point x="46" y="43" type="line"/>
			<point x="411" y="43" type="line"/>
			<point x="411" y="0" type="line"/>
			<point x="46" y="0" type="line"/>
		</contour>
		<contour>
			<point x="291" y="445" type="line"/>
			<point x="326" y="419" type="line"/>
			<point x="44" y="48" type="line"/>
			<point x="10" y="74" type="line"/>
		</contour>
		<contour>
			<point x="180" y="492" type="line"/>
			<point x="290" y="492" type="line"/>
			<point x="290" y="449" type="line"/>
			<point x="180" y="449" type="line"/>
		</contour>
	</outline>
</glyph>
<glyph name="AE" format="2">
	<advance width="804"/>
	<unicode hex="00C6"/>
	<outline>
		<contour>
			<point x="48" y="-9" type="line"/>
			<point x="10" y="9" type="line"/>
			<point x="353" y="710" type="line"/>
			<point x="391" y="691" type="line"/>
		</contour>
		<contour>
			<point x="360" y="233" type="line"/>
			<point x="190" y="233" type="line"/>
			<point x="190" y="276" type="line"/>
			<point x="360" y="276" type="line"/>
		</contour>
		<contour>
			<point x="754" y="657" type="line"/>
			<point x="419" y="657" type="line"/>
			<point x="419" y="700" type="line"/>
			<point x="754" y="700" type="line"/>
		</contour>
		<contour>
			<point x="418" y="45" type="line"/>
			<point x="375" y="45" type="line"/>
			<point x="375" y="655" type="line"/>
			<point x="418" y="655" type="line"/>
		</contour>
		<contour>
			<point x="754" y="0" type="line"/>
			<point x="419" y="0" type="line"/>
			<point x="419" y="43" type="line"/>
			<point x="754" y="43" type="line"/>
		</contour>
		<contour>
			<point x="686" y="314" type="line"/>
			<point x="440" y="314" type="line"/>
			<point x="440" y="357" type="line"/>
			<point x="686" y="357" type="line"/>
		</contour>
	</outline>
</glyph>
<glyph name="multiply" format="2">
	<advance width="525"/>
	<unicode hex="00D7"/>
	<outline>
		<contour>
			<point x="230" y="366" type="line"/>
			<point x="40" y="556" type="line"/>
			<point x="71" y="586" type="line"/>
			<point x="261" y="396" type="line"/>
		</contour>
		<contour>
			<point x="455" y="141" type="line"/>
			<point x="264" y="332" type="line"/>
			<point x="295" y="362" type="line"/>
			<point x="485" y="171" type="line"/>
		</contour>
		<contour>
			<point x="71" y="141" type="line"/>
			<point x="40" y="171" type="line"/>
			<point x="230" y="363" type="line"/>
			<point x="261" y="333" type="line"/>
		</contour>
		<contour>
			<point x="295" y="366" type="line"/>
			<point x="264" y="396" type="line"/>
			<point x="455" y="586" type="line"/>
			<point x="485" y="556" type="line"/>
		</contour>
	</outline>
</glyph>
<glyph name="germandbls" format="2">
	<advance width="431"/>
	<unicode hex="00DF"/>
	<outline>
		<contour>
			<point x="104" y="-130" type="line"/>
			<point x="61" y="-130" type="line"/>
			<point x="61" y="664" type="line"/>
			<point x="104" y="664" type="line"/>
		</contour>
		<contour>
			<point x="205" y="286" type="line"/>
			<point x="175" y="316" type="line"/>
			<point x="302" y="440" type="line"/>
			<point x="332" y="409" type="line"/>
		</contour>
		<contour>
			<point x="406" y="0" type="line"/>
			<point x="165" y="0" type="line"/>
			<point x="165" y="43" type="line"/>
			<point x="406" y="43" type="line"/>
		</contour>
		<contour>
			<point x="302" y="444" type="line"/>
			<point x="0" y="781" type="line"/>
			<point x="32" y="810" type="line"/>
			<point x="334" y="472" type="line"/>
		</contour>
		<contour>
			<point x="348" y="44" type="line"/>
			<point x="106" y="314" type="line"/>
			<point x="138" y="343" type="line"/>
			<point x="380" y="72" type="line"/>
		</contour>
	</outline>
</glyph>
<glyph name="ae" format="2">
	<advance width="842"/>
	<unicode hex="00E6"/>
	<outline>
		<contour>
			<point x="365" y="358" type="line"/>
			<point x="30" y="358" type="line"/>
			<point x="30" y="400" type="line"/>
			<point x="365" y="400" type="line"/>
		</contour>
		<contour>
			<point x="114" y="21" type="line"/>
			<point x="71" y="21" type="line"/>
			<point x="71" y="214" type="line"/>
			<point x="114" y="214" type="line"/>
		</contour>
		<contour>
			<point x="147" y="-12" type="line"/>
			<point x="117" y="19" type="line"/>
			<point x="330" y="228" type="line"/>
			<point x="360" y="198" type="line"/>
		</contour>
		<contour>
			<point x="408" y="45" type="line"/>
			<point x="366" y="45" type="line"/>
			<point x="366" y="356" type="line"/>
			<point x="408" y="356" type="line"/>
		</contour>
		<contour>
			<point x="115" y="217" type="line"/>
			<point x="99" y="257" type="line"/>
			<point x="344" y="353" type="line"/>
			<point x="360" y="313" type="line"/>
		</contour>
		<contour>
			<point x="814" y="233" type="line"/>
			<point x="537" y="362" type="line"/>
			<point x="555" y="401" type="line"/>
			<point x="832" y="272" type="line"/>
		</contour>
		<contour>
			<point x="797" y="192" type="line"/>
			<point x="420" y="192" type="line"/>
			<point x="420" y="235" type="line"/>
			<point x="797" y="235" type="line"/>
		</contour>
		<contour>
			<point x="442" y="256" type="line"/>
			<point x="411" y="285" type="line"/>
			<point x="507" y="387" type="line"/>
			<point x="538" y="358" type="line"/>
		</contour>
		<contour>
			<point x="694" y="0" type="line"/>
			<point x="410" y="0" type="line"/>
			<point x="410" y="43" type="line"/>
			<point x="694" y="43" type="line"/>
		</contour>
	</outline>
</glyph>
<glyph name="divide" format="2">
	<advance width="576"/>
	<unicode hex="00F7"/>
	<outline>
		<contour>
			<point x="232" y="164" type="line"/>
			<point x="195" y="185" type="line"/>
			<point x="248" y="284" type="line"/>
			<point x="286" y="263" type="line"/>
		</contour>
		<contour>
			<point x="343" y="164" type="line"/>
			<point x="289" y="263" type="line"/>
			<point x="327" y="284" type="line"/>
			<point x="381" y="185" type="line"/>
		</contour>
		<contour>
			<point x="340" y="121" type="line"/>
			<point x="235" y="121" type="line"/>
			<point x="235" y="164" type="line"/>
			<point x="340" y="164" type="line"/>
		</contour>
		<contour>
			<point x="248" y="637" type="line"/>
			<point x="286" y="616" type="line"/>
			<point x="232" y="517" type="line"/>
			<point x="195" y="538" type="line"/>
		</contour>
		<contour>
			<point x="327" y="637" type="line"/>
			<point x="381" y="538" type="line"/>
			<point x="343" y="517" type="line"/>
			<point x="289" y="616" type="line"/>
		</contour>
		<contour>
			<point x="235" y="517" type="line"/>
			<point x="340" y="517" type="line"/>
			<point x="340" y="474" type="line"/>
			<point x="235" y="474" type="line"/>
		</contour>
		<contour>
			<point x="546" y="357" type="line"/>
			<point x="30" y="357" type="line"/>
			<point x="30" y="400" type="line"/>
			<point x="546" y="400" type="line"/>
		</contour>
	</outline>
</glyph>
<glyph name="oslash" format="2">
	<advance width="505"/>
	<unicode hex="00F8"/>
	<anchor x="253" y="200" name="center"/>
	<anchor x="450" y="10" name="ogonek"/>
	<anchor x="253" y="400" name="top"/>
	<anchor x="479" y="400" name="topright"/>
	<anchor x="253" y="0" name="bottom"/>
	<outline>
		<contour>
			<point x="73" y="201" type="line"/>
			<point x="42" y="231" type="line"/>
			<point x="220" y="408" type="line"/>
			<point x="250" y="377" type="line"/>
		</contour>
		<contour>
			<point x="287" y="-12" type="line"/>
			<point x="256" y="19" type="line"/>
			<point x="434" y="196" type="line"/>
			<point x="464" y="166" type="line"/>
		</contour>
		<contour>
			<point x="219" y="-12" type="line"/>
			<point x="43" y="165" type="line"/>
			<point x="73" y="195" type="line"/>
			<point x="250" y="18" type="line"/>
		</contour>
		<contour>
			<point x="434" y="202" type="line"/>
			<point x="257" y="377" type="line"/>
			<point x="288" y="408" type="line"/>
			<point x="464" y="232" type="line"/>
		</contour>
		<contour>
			<point x="35" y="-38" type="line"/>
			<point x="5" y="-7" type="line"/>
			<point x="470" y="437" type="line"/>
			<point x="500" y="406" type="line"/>
		</contour>
	</outline>
</glyph>
<glyph name="idotless" format="2">
	<advance width="163"/>
	<unicode hex="0131"/>
	<anchor x="139" y="10" name="ogonek"/>
	<anchor x="82" y="0" name="bottom"/>
	<anchor x="82" y="400" name="top"/>
	<outline>
		<contour>
			<point x="60" y="-1" type="line"/>
			<point x="60" y="399" type="line"/>
			<point x="103" y="399" type="line"/>
			<point x="103" y="-1" type="line"/>
		</contour>
	</outline>
</glyph>
<glyph name="OE" format="2">
	<advance width="883"/>
	<unicode hex="0152"/>
	<outline>
		<contour>
			<point x="80" y="43" type="line"/>
			<point x="80" y="657" type="line"/>
			<point x="123" y="657" type="line"/>
			<point x="123" y="43" type="line"/>
		</contour>
		<contour>
			<point x="124" y="0" type="line"/>
			<point x="124" y="43" type="line"/>
			<point x="448" y="43" type="line"/>
			<point x="448" y="0" type="line"/>
		</contour>
		<contour>
			<point x="124" y="657" type="line"/>
			<point x="124" y="700" type="line"/>
			<point x="447" y="700" type="line"/>
			<point x="447" y="657" type="line"/>
		</contour>
		<contour>
			<point x="449" y="45" type="line"/>
			<point x="449" y="656" type="line"/>
			<point x="492" y="656" type="line"/>
			<point x="492" y="45" type="line"/>
		</contour>
		<contour>
			<point x="493" y="657" type="line"/>
			<point x="493" y="700" type="line"/>
			<point x="828" y="700" type="line"/>
			<point x="828" y="657" type="line"/>
		</contour>
		<contour>
			<point x="494" y="0" type="line"/>
			<point x="494" y="43" type="line"/>
			<point x="828" y="43" type="line"/>
			<point x="828" y="0" type="line"/>
		</contour>
		<contour>
			<point x="514" y="314" type="line"/>
			<point x="514" y="357" type="line"/>
			<point x="760" y="357" type="line"/>
			<point x="760" y="314" type="line"/>
		</contour>
	</outline>
</glyph>
<glyph name="oe" format="2">
	<advance width="967"/>
	<unicode hex="0153"/>
	<outline>
		<contour>
			<point x="74" y="199" type="line"/>
			<point x="43" y="229" type="line"/>
			<point x="225" y="410" type="line"/>
			<point x="255" y="379" type="line"/>
		</contour>
		<contour>
			<point x="288" y="-13" type="line"/>
			<point x="257" y="18" type="line"/>
			<point x="616" y="376" type="line"/>
			<point x="646" y="346" type="line"/>
		</contour>
		<contour>
			<point x="222" y="-12" type="line"/>
			<point x="44" y="167" type="line"/>
			<point x="74" y="197" type="line"/>
			<point x="253" y="18" type="line"/>
		</contour>
		<contour>
			<point x="432" y="209" type="line"/>
			<point x="258" y="379" type="line"/>
			<point x="289" y="410" type="line"/>
			<point x="462" y="239" type="line"/>
		</contour>
		<contour>
			<point x="513" y="45" type="line"/>
			<point x="471" y="45" type="line"/>
			<point x="471" y="168" type="line"/>
			<point x="513" y="168" type="line"/>
		</contour>
		<contour>
			<point x="919" y="233" type="line"/>
			<point x="627" y="370" type="line"/>
			<point x="645" y="409" type="line"/>
			<point x="937" y="272" type="line"/>
		</contour>
		<contour>
			<point x="913" y="192" type="line"/>
			<point x="537" y="192" type="line"/>
			<point x="537" y="235" type="line"/>
			<point x="913" y="235" type="line"/>
		</contour>
		<contour>
			<point x="799" y="0" type="line"/>
			<point x="515" y="0" type="line"/>
			<point x="515" y="43" type="line"/>
			<point x="799" y="43" type="line"/>
		</contour>
	</outline>
</glyph>
<glyph name="gravecomb" format="2">
	<advance width="236"/>
	<unicode hex="0300"/>
	<anchor x="118" y="1007" name="top"/>
	<anchor x="118" y="700" name="_top"/>
	<outline>
		<contour>
			<point x="209" y="800" type="line"/>
			<point x="0" y="974" type="line"/>
			<point x="28" y="1007" type="line"/>
			<point x="236" y="833" type="line"/>
		</contour>
	</outline>
</glyph>
<glyph name="circumflexcomb" format="2">
	<advance width="265"/>
	<unicode hex="0302"/>
	<anchor x="133" y="995" name="top"/>
	<anchor x="133" y="700" name="_top"/>
	<outline>
		<contour>
			<point x="38" y="800" type="line"/>
			<point x="0" y="821" type="line"/>
			<point x="92" y="995" type="line"/>
			<point x="130" y="975" type="line"/>
		</contour>
		<contour>
			<point x="227" y="800" type="line"/>
			<point x="134" y="975" type="line"/>
			<point x="172" y="995" type="line"/>
			<point x="265" y="821" type="line"/>
		</contour>
	</outline>
</glyph>
<glyph name="tildecomb" format="2">
	<advance width="370"/>
	<unicode hex="0303"/>
	<anchor x="185" y="962" name="top"/>
	<anchor x="185" y="700" name="_top"/>
	<outline>
		<contour>
			<point x="276" y="800" type="line"/>
			<point x="71" y="925" type="line"/>
			<point x="94" y="962" type="line"/>
			<point x="298" y="836" type="line"/>
		</contour>
		<contour>
			<point x="42" y="808" type="line"/>
			<point x="0" y="818" type="line"/>
			<point x="26" y="931" type="line"/>
			<point x="68" y="921" type="line"/>
		</contour>
		<contour>
			<point x="343" y="830" type="line"/>
			<point x="302" y="840" type="line"/>
			<point x="328" y="953" type="line"/>
			<point x="370" y="943" type="line"/>
		</contour>
	</outline>
</glyph>
<glyph name="ringcomb" format="2">
	<advance width="203"/>
	<unicode hex="030A"/>
	<anchor x="102" y="1002" name="top"/>
	<anchor x="102" y="700" name="_top"/>
	<outline>
		<contour>
			<point x="43" y="847" type="line"/>
			<point x="0" y="847" type="line"/>
			<point x="0" y="955" type="line"/>
			<point x="43" y="955" type="line"/>
		</contour>
		<contour>
			<point x="156" y="800" type="line"/>
			<point x="47" y="800" type="line"/>
			<point x="47" y="843" type="line"/>
			<point x="156" y="843" type="line"/>
		</contour>
		<contour>
			<point x="203" y="847" type="line"/>
			<point x="160" y="847" type="line"/>
			<point x="160" y="955" type="line"/>
			<point x="203" y="955" type="line"/>
		</contour>
		<contour>
			<point x="156" y="959" type="line"/>
			<point x="47" y="959" type="line"/>
			<point x="47" y="1002" type="line"/>
			<point x="156" y="1002" type="line"/>
		</contour>
	</outline>
</glyph>
<glyph name="cedillacomb" format="2">
	<advance width="208"/>
	<unicode hex="0327"/>
	<anchor x="104" y="0" name="_bottom"/>
	<anchor x="104" y="-301" name="bottom"/>
	<outline>
		<contour>
			<point x="191" y="-176" type="line"/>
			<point x="0" y="-95" type="line"/>
			<point x="17" y="-56" type="line"/>
			<point x="208" y="-137" type="line"/>
		</contour>
		<contour>
			<point x="191" y="-181" type="line"/>
			<point x="208" y="-220" type="line"/>
			<point x="17" y="-301" type="line"/>
			<point x="0" y="-262" type="line"/>
		</contour>
	</outline>
</glyph>
<glyph name="slashlongcomb" format="2">
	<advance width="679"/>
	<unicode hex="0338"/>
	<anchor x="340" y="348" name="_center"/>
	<outline>
		<contour>
			<point x="30" y="23" type="line"/>
			<point x="0" y="54" type="line"/>
			<point x="649" y="672" type="line"/>
			<point x="679" y="641" type="line"/>
		</contour>
	</outline>
</glyph>
<glyph name="endash" format="2">
	<advance width="461"/>
	<unicode hex="2013"/>
	<outline>
		<contour>
			<point x="441" y="357" type="line"/>
			<point x="20" y="357" type="line"/>
			<point x="20" y="400" type="line"/>
			<point x="441" y="400" type="line"/>
		</contour>
	</outline>
</glyph>
<glyph name="emdash" format="2">
	<advance width="795"/>
	<unicode hex="2014"/>
	<outline>
		<contour>
			<point x="775" y="357" type="line"/>
			<point x="20" y="357" type="line"/>
			<point x="20" y="400" type="line"/>
			<point x="775" y="400" type="line"/>
		</contour>
	</outline>
</glyph>
<glyph name="quoteleft" format="2">
	<advance width="246"/>
	<unicode hex="2018"/>
	<outline>
		<contour>
			<point x="93" y="494" type="line"/>
			<point x="50" y="494" type="line"/>
			<point x="50" y="700" type="line"/>
			<point x="93" y="700" type="line"/>
		</contour>
		<contour>
			<point x="107" y="451" type="line"/>
			<point x="97" y="493" type="line"/>
			<point x="183" y="512" type="line"/>
			<point x="192" y="470" type="line"/>
		</contour>
		<contour>
			<point x="196" y="508" type="line"/>
			<point x="96" y="558" type="line"/>
			<point x="115" y="597" type="line"/>
			<point x="216" y="547" type="line"/>
		</contour>
	</outline>
</glyph>
<glyph name="quoteright" format="2">
	<advance width="246"/>
	<unicode hex="2019"/>
	<outline>
		<contour>
			<point x="196" y="459" type="line"/>
			<point x="153" y="459" type="line"/>
			<point x="153" y="665" type="line"/>
			<point x="196" y="665" type="line"/>
		</contour>
		<contour>
			<point x="63" y="647" type="line"/>
			<point x="53" y="689" type="line"/>
			<point x="139" y="708" type="line"/>
			<point x="149" y="666" type="line"/>
		</contour>
		<contour>
			<point x="131" y="563" type="line"/>
			<point x="30" y="613" type="line"/>
			<point x="49" y="651" type="line"/>
			<point x="150" y="601" type="line"/>
		</contour>
	</outline>
</glyph>
<glyph name="quotesinglbase" format="2">
	<advance width="246"/>
	<unicode hex="201A"/>
	<outline>
		<contour>
			<point x="196" y="-116" type="line"/>
			<point x="153" y="-116" type="line"/>
			<point x="153" y="90" type="line"/>
			<point x="196" y="90" type="line"/>
		</contour>
		<contour>
			<point x="63" y="72" type="line"/>
			<point x="53" y="114" type="line"/>
			<point x="139" y="133" type="line"/>
			<point x="149" y="91" type="line"/>
		</contour>
		<contour>
			<point x="131" y="-12" type="line"/>
			<point x="30" y="38" type="line"/>
			<point x="49" y="76" type="line"/>
			<point x="150" y="26" type="line"/>
		</contour>
	</outline>
</glyph>
<glyph name="quotereversed" format="2">
	<advance width="245"/>
	<unicode hex="201B"/>
	<outline>
		<contour>
			<point x="50" y="459" type="line"/>
			<point x="50" y="665" type="line"/>
			<point x="93" y="665" type="line"/>
			<point x="93" y="459" type="line"/>
		</contour>
		<contour>
			<point x="183" y="647" type="line"/>
			<point x="97" y="666" type="line"/>
			<point x="106" y="708" type="line"/>
			<point x="192" y="689" type="line"/>
		</contour>
		<contour>
			<point x="115" y="563" type="line"/>
			<point x="96" y="601" type="line"/>
			<point x="196" y="651" type="line"/>
			<point x="215" y="613" type="line"/>
		</contour>
	</outline>
</glyph>
<glyph name="quotedblleft" format="2">
	<advance width="448"/>
	<unicode hex="201C"/>
	<outline>
		<contour>
			<point x="295" y="494" type="line"/>
			<point x="252" y="494" type="line"/>
			<point x="252" y="700" type="line"/>
			<point x="295" y="700" type="line"/>
		</contour>
		<contour>
			<point x="309" y="451" type="line"/>
			<point x="299" y="493" type="line"/>
			<point x="385" y="512" type="line"/>
			<point x="394" y="470" type="line"/>
		</contour>
		<contour>
			<point x="398" y="508" type="line"/>
			<point x="298" y="558" type="line"/>
			<point x="317" y="597" type="line"/>
			<point x="418" y="547" type="line"/>
		</contour>
		<contour>
			<point x="93" y="494" type="line"/>
			<point x="50" y="494" type="line"/>
			<point x="50" y="700" type="line"/>
			<point x="93" y="700" type="line"/>
		</contour>
		<contour>
			<point x="106" y="451" type="line"/>
			<point x="97" y="493" type="line"/>
			<point x="182" y="512" type="line"/>
			<point x="192" y="470" type="line"/>
		</contour>
		<contour>
			<point x="196" y="508" type="line"/>
			<point x="96" y="558" type="line"/>
			<point x="115" y="597" type="line"/>
			<point x="215" y="547" type="line"/>
		</contour>
	</outline>
</glyph>
<glyph name="quotedblright" format="2">
	<advance width="448"/>
	<unicode hex="201D"/>
	<outline>
		<contour>
			<point x="195" y="459" type="line"/>
			<point x="152" y="459" type="line"/>
			<point x="152" y="665" type="line"/>
			<point x="195" y="665" type="line"/>
		</contour>
		<contour>
			<point x="62" y="647" type="line"/>
			<point x="53" y="689" type="line"/>
			<point x="139" y="708" type="line"/>
			<point x="148" y="666" type="line"/>
		</contour>
		<contour>
			<point x="130" y="563" type="line"/>
			<point x="30" y="613" type="line"/>
			<point x="49" y="651" type="line"/>
			<point x="149" y="601" type="line"/>
		</contour>
		<contour>
			<point x="398" y="459" type="line"/>
			<point x="355" y="459" type="line"/>
			<point x="355" y="665" type="line"/>
			<point x="398" y="665" type="line"/>
		</contour>
		<contour>
			<point x="265" y="647" type="line"/>
			<point x="255" y="689" type="line"/>
			<point x="341" y="708" type="line"/>
			<point x="351" y="666" type="line"/>
		</contour>
		<contour>
			<point x="333" y="563" type="line"/>
			<point x="232" y="613" type="line"/>
			<point x="251" y="651" type="line"/>
			<point x="352" y="601" type="line"/>
		</contour>
	</outline>
</glyph>
<glyph name="quotedblbase" format="2">
	<advance width="448"/>
	<unicode hex="201E"/>
	<outline>
		<contour>
			<point x="195" y="-116" type="line"/>
			<point x="152" y="-116" type="line"/>
			<point x="152" y="90" type="line"/>
			<point x="195" y="90" type="line"/>
		</contour>
		<contour>
			<point x="62" y="72" type="line"/>
			<point x="53" y="114" type="line"/>
			<point x="139" y="133" type="line"/>
			<point x="148" y="91" type="line"/>
		</contour>
		<contour>
			<point x="130" y="-12" type="line"/>
			<point x="30" y="38" type="line"/>
			<point x="49" y="76" type="line"/>
			<point x="149" y="26" type="line"/>
		</contour>
		<contour>
			<point x="398" y="-116" type="line"/>
			<point x="355" y="-116" type="line"/>
			<point x="355" y="90" type="line"/>
			<point x="398" y="90" type="line"/>
		</contour>
		<contour>
			<point x="265" y="72" type="line"/>
			<point x="255" y="114" type="line"/>
			<point x="341" y="133" type="line"/>
			<point x="351" y="91" type="line"/>
		</contour>
		<contour>
			<point x="333" y="-12" type="line"/>
			<point x="232" y="38" type="line"/>
			<point x="251" y="76" type="line"/>
			<point x="352" y="26" type="line"/>
		</contour>
	</outline>
</glyph>
<glyph name="dagger" format="2">
	<advance width="353"/>
	<unicode hex="2020"/>
	<outline>
		<contour>
			<point x="198" y="577" type="line"/>
			<point x="155" y="577" type="line"/>
			<point x="155" y="700" type="line"/>
			<point x="198" y="700" type="line"/>
		</contour>
		<contour>
			<point x="198" y="232" type="line"/>
			<point x="155" y="232" type="line"/>
			<point x="155" y="531" type="line"/>
			<point x="198" y="531" type="line"/>
		</contour>
		<contour>
			<point x="154" y="532" type="line"/>
			<point x="30" y="532" type="line"/>
			<point x="30" y="575" type="line"/>
			<point x="154" y="575" type="line"/>
		</contour>
		<contour>
			<point x="323" y="532" type="line"/>
			<point x="199" y="532" type="line"/>
			<point x="199" y="575" type="line"/>
			<point x="323" y="575" type="line"/>
		</contour>
	</outline>
</glyph>
<glyph name="daggerdbl" format="2">
	<advance width="353"/>
	<unicode hex="2021"/>
	<outline>
		<contour>
			<point x="198" y="577" type="line"/>
			<point x="155" y="577" type="line"/>
			<point x="155" y="700" type="line"/>
			<point x="198" y="700" type="line"/>
		</contour>
		<contour>
			<point x="198" y="399" type="line"/>
			<point x="155" y="399" type="line"/>
			<point x="155" y="530" type="line"/>
			<point x="198" y="530" type="line"/>
		</contour>
		<contour>
			<point x="154" y="532" type="line"/>
			<point x="30" y="532" type="line"/>
			<point x="30" y="575" type="line"/>
			<point x="154" y="575" type="line"/>
		</contour>
		<contour>
			<point x="323" y="532" type="line"/>
			<point x="199" y="532" type="line"/>
			<point x="199" y="575" type="line"/>
			<point x="323" y="575" type="line"/>
		</contour>
		<contour>
			<point x="154" y="355" type="line"/>
			<point x="30" y="355" type="line"/>
			<point x="30" y="398" type="line"/>
			<point x="154" y="398" type="line"/>
		</contour>
		<contour>
			<point x="323" y="355" type="line"/>
			<point x="199" y="355" type="line"/>
			<point x="199" y="398" type="line"/>
			<point x="323" y="398" type="line"/>
		</contour>
		<contour>
			<point x="198" y="232" type="line"/>
			<point x="155" y="232" type="line"/>
			<point x="155" y="354" type="line"/>
			<point x="198" y="354" type="line"/>
		</contour>
	</outline>
</glyph>
<glyph name="ellipsis" format="2">
	<advance width="743"/>
	<unicode hex="2026"/>
	<outline>
		<contour>
			<point x="69" y="43" type="line"/>
			<point x="31" y="64" type="line"/>
			<point x="84" y="163" type="line"/>
			<point x="122" y="142" type="line"/>
		</contour>
		<contour>
			<point x="179" y="43" type="line"/>
			<point x="126" y="142" type="line"/>
			<point x="164" y="163" type="line"/>
			<point x="217" y="64" type="line"/>
		</contour>
		<contour>
			<point x="176" y="0" type="line"/>
			<point x="72" y="0" type="line"/>
			<point x="72" y="43" type="line"/>
			<point x="176" y="43" type="line"/>
		</contour>
		<contour>
			<point x="565" y="43" type="line"/>
			<point x="527" y="64" type="line"/>
			<point x="580" y="163" type="line"/>
			<point x="618" y="142" type="line"/>
		</contour>
		<contour>
			<point x="675" y="43" type="line"/>
			<point x="622" y="142" type="line"/>
			<point x="660" y="163" type="line"/>
			<point x="713" y="64" type="line"/>
		</contour>
		<contour>
			<point x="672" y="0" type="line"/>
			<point x="568" y="0" type="line"/>
			<point x="568" y="43" type="line"/>
			<point x="672" y="43" type="line"/>
		</contour>
		<contour>
			<point x="317" y="43" type="line"/>
			<point x="279" y="64" type="line"/>
			<point x="332" y="163" type="line"/>
			<point x="370" y="142" type="line"/>
		</contour>
		<contour>
			<point x="427" y="43" type="line"/>
			<point x="374" y="142" type="line"/>
			<point x="412" y="163" type="line"/>
			<point x="465" y="64" type="line"/>
		</contour>
		<contour>
			<point x="424" y="0" type="line"/>
			<point x="320" y="0" type="line"/>
			<point x="320" y="43" type="line"/>
			<point x="424" y="43" type="line"/>
		</contour>
	</outline>
</glyph>
<glyph name="guilsinglleft" format="2">
	<advance width="255"/>
	<unicode hex="2039"/>
	<outline>
		<contour>
			<point x="70" y="314" type="line"/>
			<point x="40" y="344" type="line"/>
			<point x="175" y="479" type="line"/>
			<point x="205" y="449" type="line"/>
		</contour>
		<contour>
			<point x="70" y="310" type="line"/>
			<point x="205" y="175" type="line"/>
			<point x="175" y="145" type="line"/>
			<point x="40" y="280" type="line"/>
		</contour>
	</outline>
</glyph>
<glyph name="guilsinglright" format="2">
	<advance width="255"/>
	<unicode hex="203A"/>
	<outline>
		<contour>
			<point x="185" y="314" type="line"/>
			<point x="50" y="449" type="line"/>
			<point x="80" y="479" type="line"/>
			<point x="215" y="344" type="line"/>
		</contour>
		<contour>
			<point x="185" y="310" type="line"/>
			<point x="215" y="280" type="line"/>
			<point x="80" y="145" type="line"/>
			<point x="50" y="175" type="line"/>
		</contour>
	</outline>
</glyph>
<glyph name="won" format="2">
	<advance width="939"/>
	<unicode hex="20A9"/>
	<outline>
		<contour>
			<point x="287" y="-5" type="line"/>
			<point x="198" y="703" type="line"/>
			<point x="241" y="708" type="line"/>
			<point x="330" y="0" type="line"/>
		</contour>
		<contour>
			<point x="376" y="-5" type="line"/>
			<point x="333" y="0" type="line"/>
			<point x="422" y="708" type="line"/>
			<point x="465" y="703" type="line"/>
		</contour>
		<contour>
			<point x="556" y="-5" type="line"/>
			<point x="468" y="703" type="line"/>
			<point x="511" y="708" type="line"/>
			<point x="599" y="0" type="line"/>
		</contour>
		<contour>
			<point x="645" y="-5" type="line"/>
			<point x="602" y="0" type="line"/>
			<point x="690" y="708" type="line"/>
			<point x="733" y="703" type="line"/>
		</contour>
		<contour>
			<point x="225" y="398" type="line"/>
			<point x="225" y="355" type="line"/>
			<point x="5" y="355" type="line"/>
			<point x="5" y="398" type="line"/>
		</contour>
		<contour>
			<point x="928" y="398" type="line"/>
			<point x="928" y="355" type="line"/>
			<point x="707" y="355" type="line"/>
			<point x="707" y="398" type="line"/>
		</contour>
	</outline>
</glyph>
<glyph name="euro" format="2">
	<advance width="672"/>
	<unicode hex="20AC"/>
	<outline>
		<contour>
			<point x="476" y="451" type="line"/>
			<point x="476" y="408" type="line"/>
			<point x="271" y="408" type="line"/>
			<point x="271" y="451" type="line"/>
		</contour>
		<contour>
			<point x="194" y="451" type="line"/>
			<point x="194" y="408" type="line"/>
			<point x="35" y="408" type="line"/>
			<point x="35" y="451" type="line"/>
		</contour>
		<contour>
			<point x="610" y="657" type="line"/>
			<point x="297" y="657" type="line"/>
			<point x="297" y="700" type="line"/>
			<point x="610" y="700" type="line"/>
		</contour>
		<contour>
			<point x="506" y="0" type="line"/>
			<point x="185" y="0" type="line"/>
			<point x="185" y="43" type="line"/>
			<point x="506" y="43" type="line"/>
		</contour>
		<contour>
			<point x="185" y="44" type="line"/>
			<point x="143" y="52" type="line"/>
			<point x="254" y="665" type="line"/>
			<point x="296" y="657" type="line"/>
		</contour>
		<contour>
			<point x="654" y="509" type="line"/>
			<point x="611" y="509" type="line"/>
			<point x="611" y="656" type="line"/>
			<point x="654" y="656" type="line"/>
		</contour>
		<contour>
			<point x="549" y="36" type="line"/>
			<point x="507" y="44" type="line"/>
			<point x="544" y="239" type="line"/>
			<point x="587" y="231" type="line"/>
		</contour>
		<contour>
			<point x="456" y="317" type="line"/>
			<point x="456" y="274" type="line"/>
			<point x="247" y="274" type="line"/>
			<point x="247" y="317" type="line"/>
		</contour>
		<contour>
			<point x="170" y="317" type="line"/>
			<point x="170" y="274" type="line"/>
			<point x="15" y="274" type="line"/>
			<point x="15" y="317" type="line"/>
		</contour>
	</outline>
</glyph>
<glyph name="leftArrow" format="2">
	<advance width="760"/>
	<unicode hex="2190"/>
	<outline>
		<contour>
			<point x="750" y="329" type="line"/>
			<point x="105" y="329" type="line"/>
			<point x="105" y="372" type="line"/>
			<point x="750" y="372" type="line"/>
		</contour>
		<contour>
			<point x="81" y="354" type="line"/>
			<point x="50" y="385" type="line"/>
			<point x="281" y="616" type="line"/>
			<point x="312" y="586" type="line"/>
		</contour>
		<contour>
			<point x="282" y="85" type="line"/>
			<point x="50" y="317" type="line"/>
			<point x="81" y="347" type="line"/>
			<point x="312" y="115" type="line"/>
		</contour>
	</outline>
</glyph>
<glyph name="upArrow" format="2">
	<advance width="631"/>
	<unicode hex="2191"/>
	<outline>
		<contour>
			<point x="294" y="0" type="line"/>
			<point x="294" y="645" type="line"/>
			<point x="337" y="645" type="line"/>
			<point x="337" y="0" type="line"/>
		</contour>
		<contour>
			<point x="319" y="669" type="line"/>
			<point x="350" y="700" type="line"/>
			<point x="581" y="469" type="line"/>
			<point x="551" y="438" type="line"/>
		</contour>
		<contour>
			<point x="50" y="468" type="line"/>
			<point x="282" y="700" type="line"/>
			<point x="312" y="669" type="line"/>
			<point x="80" y="438" type="line"/>
		</contour>
	</outline>
</glyph>
<glyph name="rightArrow" format="2">
	<advance width="761"/>
	<unicode hex="2192"/>
	<outline>
		<contour>
			<point x="11" y="329" type="line"/>
			<point x="11" y="372" type="line"/>
			<point x="656" y="372" type="line"/>
			<point x="656" y="329" type="line"/>
		</contour>
		<contour>
			<point x="680" y="354" type="line"/>
			<point x="449" y="586" type="line"/>
			<point x="480" y="616" type="line"/>
			<point x="711" y="385" type="line"/>
		</contour>
		<contour>
			<point x="479" y="85" type="line"/>
			<point x="449" y="115" type="line"/>
			<point x="680" y="347" type="line"/>
			<point x="711" y="317" type="line"/>
		</contour>
	</outline>
</glyph>
<glyph name="downArrow" format="2">
	<advance width="631"/>
	<unicode hex="2193"/>
	<outline>
		<contour>
			<point x="294" y="700" type="line"/>
			<point x="337" y="700" type="line"/>
			<point x="337" y="55" type="line"/>
			<point x="294" y="55" type="line"/>
		</contour>
		<contour>
			<point x="319" y="31" type="line"/>
			<point x="551" y="262" type="line"/>
			<point x="581" y="231" type="line"/>
			<point x="350" y="0" type="line"/>
		</contour>
		<contour>
			<point x="50" y="232" type="line"/>
			<point x="80" y="262" type="line"/>
			<point x="312" y="31" type="line"/>
			<point x="282" y="0" type="line"/>
		</contour>
	</outline>
</glyph>
<glyph name="leftRightArrow" format="2">
	<advance width="800"/>
	<unicode hex="2194"/>
	<outline>
		<contour>
			<point x="694" y="326" type="line"/>
			<point x="104" y="326" type="line"/>
			<point x="104" y="369" type="line"/>
			<point x="694" y="369" type="line"/>
		</contour>
		<contour>
			<point x="81" y="351" type="line"/>
			<point x="50" y="382" type="line"/>
			<point x="282" y="613" type="line"/>
			<point x="312" y="583" type="line"/>
		</contour>
		<contour>
			<point x="276" y="87" type="line"/>
			<point x="50" y="314" type="line"/>
			<point x="80" y="344" type="line"/>
			<point x="307" y="117" type="line"/>
		</contour>
		<contour>
			<point x="720" y="351" type="line"/>
			<point x="750" y="382" type="line"/>
			<point x="519" y="613" type="line"/>
			<point x="489" y="583" type="line"/>
		</contour>
		<contour>
			<point x="523" y="87" type="line"/>
			<point x="750" y="314" type="line"/>
			<point x="720" y="344" type="line"/>
			<point x="493" y="117" type="line"/>
		</contour>
	</outline>
</glyph>
<glyph name="upDownArrow" format="2">
	<advance width="646"/>
	<unicode hex="2195"/>
	<outline>
		<contour>
			<point x="299" y="56" type="line"/>
			<point x="299" y="646" type="line"/>
			<point x="342" y="646" type="line"/>
			<point x="342" y="56" type="line"/>
		</contour>
		<contour>
			<point x="324" y="669" type="line"/>
			<point x="355" y="700" type="line"/>
			<point x="586" y="468" type="line"/>
			<point x="556" y="438" type="line"/>
		</contour>
		<contour>
			<point x="60" y="474" type="line"/>
			<point x="287" y="700" type="line"/>
			<point x="317" y="670" type="line"/>
			<point x="90" y="443" type="line"/>
		</contour>
		<contour>
			<point x="324" y="30" type="line"/>
			<point x="355" y="0" type="line"/>
			<point x="586" y="231" type="line"/>
			<point x="556" y="261" type="line"/>
		</contour>
		<contour>
			<point x="60" y="227" type="line"/>
			<point x="287" y="0" type="line"/>
			<point x="317" y="30" type="line"/>
			<point x="90" y="257" type="line"/>
		</contour>
	</outline>
</glyph>
<glyph name="northWestArrow" format="2">
	<advance width="765"/>
	<unicode hex="2196"/>
	<outline>
		<contour>
			<point x="725" y="0" type="line"/>
			<point x="97" y="622" type="line"/>
			<point x="128" y="653" type="line"/>
			<point x="755" y="30" type="line"/>
		</contour>
		<contour>
			<point x="98" y="657" type="line"/>
			<point x="98" y="700" type="line"/>
			<point x="488" y="700" type="line"/>
			<point x="488" y="657" type="line"/>
		</contour>
		<contour>
			<point x="50" y="262" type="line"/>
			<point x="50" y="652" type="line"/>
			<point x="93" y="652" type="line"/>
			<point x="93" y="262" type="line"/>
		</contour>
	</outline>
</glyph>
<glyph name="northEastArrow" format="2">
	<advance width="765"/>
	<unicode hex="2197"/>
	<outline>
		<contour>
			<point x="40" y="0" type="line"/>
			<point x="10" y="30" type="line"/>
			<point x="637" y="653" type="line"/>
			<point x="668" y="622" type="line"/>
		</contour>
		<contour>
			<point x="667" y="657" type="line"/>
			<point x="277" y="657" type="line"/>
			<point x="277" y="700" type="line"/>
			<point x="667" y="700" type="line"/>
		</contour>
		<contour>
			<point x="715" y="262" type="line"/>
			<point x="672" y="262" type="line"/>
			<point x="672" y="652" type="line"/>
			<point x="715" y="652" type="line"/>
		</contour>
	</outline>
</glyph>
<glyph name="southEastArrow" format="2">
	<advance width="765"/>
	<unicode hex="2198"/>
	<outline>
		<contour>
			<point x="40" y="700" type="line"/>
			<point x="668" y="78" type="line"/>
			<point x="637" y="47" type="line"/>
			<point x="10" y="670" type="line"/>
		</contour>
		<contour>
			<point x="667" y="43" type="line"/>
			<point x="667" y="0" type="line"/>
			<point x="277" y="0" type="line"/>
			<point x="277" y="43" type="line"/>
		</contour>
		<contour>
			<point x="715" y="438" type="line"/>
			<point x="715" y="48" type="line"/>
			<point x="672" y="48" type="line"/>
			<point x="672" y="438" type="line"/>
		</contour>
	</outline>
</glyph>
<glyph name="southWestArrow" format="2">
	<advance width="768"/>
	<unicode hex="2199"/>
	<outline>
		<contour>
			<point x="725" y="700" type="line"/>
			<point x="755" y="670" type="line"/>
			<point x="128" y="47" type="line"/>
			<point x="97" y="78" type="line"/>
		</contour>
		<contour>
			<point x="98" y="43" type="line"/>
			<point x="488" y="43" type="line"/>
			<point x="488" y="0" type="line"/>
			<point x="98" y="0" type="line"/>
		</contour>
		<contour>
			<point x="50" y="438" type="line"/>
			<point x="93" y="438" type="line"/>
			<point x="93" y="48" type="line"/>
			<point x="50" y="48" type="line"/>
		</contour>
	</outline>
</glyph>
<glyph name="summation" format="2">
	<advance width="399"/>
	<unicode hex="2211"/>
	<outline>
		<contour>
			<point x="73" y="657" type="line"/>
			<point x="379" y="657" type="line"/>
			<point x="379" y="700" type="line"/>
			<point x="73" y="700" type="line"/>
		</contour>
		<contour>
			<point x="239" y="356" type="line"/>
			<point x="275" y="381" type="line"/>
			<point x="86" y="655" type="line"/>
			<point x="50" y="631" type="line"/>
		</contour>
		<contour>
			<point x="86" y="45" type="line"/>
			<point x="275" y="326" type="line"/>
			<point x="239" y="350" type="line"/>
			<point x="50" y="69" type="line"/>
		</contour>
		<contour>
			<point x="73" y="0" type="line"/>
			<point x="379" y="0" type="line"/>
			<point x="379" y="43" type="line"/>
			<point x="73" y="43" type="line"/>
		</contour>
	</outline>
</glyph>
<glyph name="minus" format="2">
	<advance width="600"/>
	<unicode hex="2212"/>
	<outline>
		<contour>
			<point x="560" y="357" type="line"/>
			<point x="44" y="357" type="line"/>
			<point x="44" y="400" type="line"/>
			<point x="560" y="400" type="line"/>
		</contour>
	</outline>
</glyph>
<glyph name="radical" format="2">
	<advance width="500"/>
	<unicode hex="221A"/>
	<outline>
		<contour>
			<point x="135" y="-12" type="line"/>
			<point x="30" y="480" type="line"/>
			<point x="72" y="489" type="line"/>
			<point x="177" y="-3" type="line"/>
		</contour>
		<contour>
			<point x="222" y="-12" type="line"/>
			<point x="180" y="-3" type="line"/>
			<point x="312" y="663" type="line"/>
			<point x="354" y="654" type="line"/>
		</contour>
		<contour>
			<point x="490" y="657" type="line"/>
			<point x="356" y="657" type="line"/>
			<point x="356" y="700" type="line"/>
			<point x="490" y="700" type="line"/>
		</contour>
	</outline>
</glyph>
<glyph name="integral" format="2">
	<advance width="446"/>
	<unicode hex="222B"/>
	<outline>
		<contour>
			<point x="159" y="11" type="line"/>
			<point x="117" y="21" type="line"/>
			<point x="287" y="684" type="line"/>
			<point x="328" y="674" type="line"/>
		</contour>
		<contour>
			<point x="413" y="605" type="line"/>
			<point x="331" y="675" type="line"/>
			<point x="359" y="708" type="line"/>
			<point x="441" y="638" type="line"/>
		</contour>
		<contour>
			<point x="87" y="-12" type="line"/>
			<point x="5" y="58" type="line"/>
			<point x="33" y="91" type="line"/>
			<point x="115" y="21" type="line"/>
		</contour>
	</outline>
</glyph>
<glyph name="upWhiteTriangle" format="2">
	<advance width="758"/>
	<unicode hex="25B3"/>
	<outline>
		<contour>
			<point x="48" y="49" type="line"/>
			<point x="10" y="68" type="line"/>
			<point x="338" y="708" type="line"/>
			<point x="376" y="688" type="line"/>
		</contour>
		<contour>
			<point x="709" y="49" type="line"/>
			<point x="385" y="689" type="line"/>
			<point x="423" y="708" type="line"/>
			<point x="748" y="68" type="line"/>
		</contour>
		<contour>
			<point x="707" y="0" type="line"/>
			<point x="54" y="0" type="line"/>
			<point x="54" y="43" type="line"/>
			<point x="707" y="43" type="line"/>
		</contour>
	</outline>
</glyph>
<glyph name="lozenge" format="2">
	<advance width="748"/>
	<unicode hex="25CA"/>
	<outline>
		<contour>
			<point x="81" y="394" type="line"/>
			<point x="52" y="425" type="line"/>
			<point x="341" y="700" type="line"/>
			<point x="372" y="669" type="line"/>
		</contour>
		<contour>
			<point x="50" y="46" type="line"/>
			<point x="50" y="390" type="line"/>
			<point x="93" y="390" type="line"/>
			<point x="93" y="46" type="line"/>
		</contour>
		<contour>
			<point x="655" y="46" type="line"/>
			<point x="655" y="390" type="line"/>
			<point x="698" y="390" type="line"/>
			<point x="698" y="46" type="line"/>
		</contour>
		<contour>
			<point x="654" y="0" type="line"/>
			<point x="94" y="0" type="line"/>
			<point x="94" y="43" type="line"/>
			<point x="654" y="43" type="line"/>
		</contour>
		<contour>
			<point x="666" y="394" type="line"/>
			<point x="375" y="669" type="line"/>
			<point x="406" y="700" type="line"/>
			<point x="695" y="425" type="line"/>
		</contour>
	</outline>
</glyph>
<glyph name="heartBlackSuit" format="2">
	<advance width="953"/>
	<unicode hex="2665"/>
	<outline>
		<contour>
			<point x="510" y="-12" type="line"/>
			<point x="479" y="17" type="line"/>
			<point x="902" y="465" type="line"/>
			<point x="933" y="436" type="line"/>
		</contour>
		<contour>
			<point x="443" y="-12" type="line"/>
			<point x="21" y="436" type="line"/>
			<point x="52" y="465" type="line"/>
			<point x="474" y="17" type="line"/>
		</contour>
		<contour>
			<point x="510" y="471" type="line"/>
			<point x="479" y="500" type="line"/>
			<point x="672" y="708" type="line"/>
			<point x="703" y="678" type="line"/>
		</contour>
		<contour>
			<point x="901" y="467" type="line"/>
			<point x="705" y="679" type="line"/>
			<point x="737" y="708" type="line"/>
			<point x="932" y="496" type="line"/>
		</contour>
		<contour>
			<point x="52" y="467" type="line"/>
			<point x="20" y="496" type="line"/>
			<point x="215" y="708" type="line"/>
			<point x="247" y="679" type="line"/>
		</contour>
		<contour>
			<point x="443" y="471" type="line"/>
			<point x="249" y="678" type="line"/>
			<point x="280" y="708" type="line"/>
			<point x="474" y="500" type="line"/>
		</contour>
	</outline>
</glyph>
<glyph name="A.ss01" format="2">
	<advance width="645"/>
	<anchor x="589" y="10" name="ogonek"/>
	<anchor x="323" y="0" name="bottom"/>
	<anchor x="323" y="700" name="top"/>
	<outline>
		<contour>
			<point x="50" y="-16" type="line"/>
			<point x="10" y="-1" type="line"/>
			<point x="282" y="716" type="line"/>
			<point x="322" y="701" type="line"/>
		</contour>
		<contour>
			<point x="595" y="-16" type="line"/>
			<point x="323" y="701" type="line"/>
			<point x="363" y="716" type="line"/>
			<point x="635" y="-1" type="line"/>
		</contour>
		<contour>
			<point x="542" y="78" type="line"/>
			<point x="103" y="78" type="line"/>
			<point x="103" y="121" type="line"/>
			<point x="542" y="121" type="line"/>
		</contour>
	</outline>
</glyph>
<glyph name="A.ss02" format="2">
	<advance width="630"/>
	<anchor x="575" y="10" name="ogonek"/>
	<anchor x="315" y="0" name="bottom"/>
	<anchor x="315" y="700" name="top"/>
	<outline>
		<contour>
			<point x="50" y="-12" type="line"/>
			<point x="10" y="3" type="line"/>
			<point x="273" y="708" type="line"/>
			<point x="313" y="693" type="line"/>
		</contour>
		<contour>
			<point x="580" y="-12" type="line"/>
			<point x="317" y="693" type="line"/>
			<point x="358" y="708" type="line"/>
			<point x="620" y="3" type="line"/>
		</contour>
		<contour>
			<point x="389" y="452" type="line"/>
			<point x="241" y="452" type="line"/>
			<point x="241" y="495" type="line"/>
			<point x="389" y="495" type="line"/>
		</contour>
	</outline>
</glyph>
<glyph name="B.ss01" format="2">
	<advance width="480"/>
	<outline>
		<contour>
			<point x="139" y="53" type="line"/>
			<point x="97" y="53" type="line"/>
			<point x="97" y="607" type="line"/>
			<point x="139" y="607" type="line"/>
		</contour>
		<contour>
			<point x="399" y="0" type="line"/>
			<point x="40" y="0" type="line"/>
			<point x="40" y="43" type="line"/>
			<point x="399" y="43" type="line"/>
		</contour>
		<contour>
			<point x="440" y="0" type="line"/>
			<point x="140" y="325" type="line"/>
			<point x="171" y="354" type="line"/>
			<point x="471" y="29" type="line"/>
		</contour>
		<contour>
			<point x="202" y="322" type="line"/>
			<point x="188" y="362" type="line"/>
			<point x="368" y="426" type="line"/>
			<point x="382" y="385" type="line"/>
		</contour>
		<contour>
			<point x="349" y="421" type="line"/>
			<point x="53" y="684" type="line"/>
			<point x="82" y="716" type="line"/>
			<point x="377" y="453" type="line"/>
		</contour>
	</outline>
</glyph>
<glyph name="B.ss02" format="2">
	<advance width="482"/>
	<outline>
		<contour>
			<point x="442" y="44" type="line"/>
			<point x="399" y="44" type="line"/>
			<point x="399" y="251" type="line"/>
			<point x="442" y="251" type="line"/>
		</contour>
		<contour>
			<point x="124" y="44" type="line"/>
			<point x="81" y="44" type="line"/>
			<point x="81" y="641" type="line"/>
			<point x="124" y="641" type="line"/>
		</contour>
		<contour>
			<point x="398" y="252" type="line"/>
			<point x="134" y="252" type="line"/>
			<point x="134" y="295" type="line"/>
			<point x="398" y="295" type="line"/>
		</contour>
		<contour>
			<point x="398" y="0" type="line"/>
			<point x="125" y="0" type="line"/>
			<point x="125" y="43" type="line"/>
			<point x="398" y="43" type="line"/>
		</contour>
		<contour>
			<point x="158" y="296" type="line"/>
			<point x="126" y="324" type="line"/>
			<point x="266" y="480" type="line"/>
			<point x="298" y="451" type="line"/>
		</contour>
		<contour>
			<point x="266" y="481" type="line"/>
			<point x="80" y="695" type="line"/>
			<point x="113" y="723" type="line"/>
			<point x="299" y="509" type="line"/>
		</contour>
	</outline>
</glyph>
<glyph name="C.ss01" format="2">
	<advance width="569"/>
	<anchor x="287" y="700" name="top"/>
	<anchor x="287" y="0" name="bottom"/>
	<outline>
		<contour>
			<point x="509" y="657" type="line"/>
			<point x="321" y="657" type="line"/>
			<point x="321" y="700" type="line"/>
			<point x="509" y="700" type="line"/>
		</contour>
		<contour>
			<point x="113" y="450" type="line"/>
			<point x="82" y="480" type="line"/>
			<point x="289" y="687" type="line"/>
			<point x="320" y="656" type="line"/>
		</contour>
		<contour>
			<point x="113" y="45" type="line"/>
			<point x="70" y="45" type="line"/>
			<point x="70" y="449" type="line"/>
			<point x="113" y="449" type="line"/>
		</contour>
		<contour>
			<point x="350" y="0" type="line"/>
			<point x="114" y="0" type="line"/>
			<point x="114" y="43" type="line"/>
			<point x="350" y="43" type="line"/>
		</contour>
		<contour>
			<point x="382" y="15" type="line"/>
			<point x="351" y="45" type="line"/>
			<point x="513" y="216" type="line"/>
			<point x="544" y="187" type="line"/>
		</contour>
	</outline>
</glyph>
<glyph name="C.ss02" format="2">
	<advance width="551"/>
	<anchor x="269" y="700" name="top"/>
	<anchor x="269" y="0" name="bottom"/>
	<outline>
		<contour>
			<point x="487" y="657" type="line"/>
			<point x="172" y="657" type="line"/>
			<point x="172" y="700" type="line"/>
			<point x="487" y="700" type="line"/>
		</contour>
		<contour>
			<point x="384" y="0" type="line"/>
			<point x="62" y="0" type="line"/>
			<point x="62" y="43" type="line"/>
			<point x="384" y="43" type="line"/>
		</contour>
		<contour>
			<point x="62" y="44" type="line"/>
			<point x="20" y="52" type="line"/>
			<point x="130" y="663" type="line"/>
			<point x="172" y="655" type="line"/>
		</contour>
		<contour>
			<point x="531" y="509" type="line"/>
			<point x="488" y="509" type="line"/>
			<point x="488" y="656" type="line"/>
			<point x="531" y="656" type="line"/>
		</contour>
		<contour>
			<point x="426" y="36" type="line"/>
			<point x="384" y="44" type="line"/>
			<point x="421" y="239" type="line"/>
			<point x="464" y="231" type="line"/>
		</contour>
	</outline>
</glyph>
<glyph name="D.ss01" format="2">
	<advance width="560"/>
	<outline>
		<contour>
			<point x="510" y="212" type="line"/>
			<point x="467" y="212" type="line"/>
			<point x="467" y="444" type="line"/>
			<point x="510" y="444" type="line"/>
		</contour>
		<contour>
			<point x="323" y="44" type="line"/>
			<point x="297" y="77" type="line"/>
			<point x="467" y="211" type="line"/>
			<point x="493" y="177" type="line"/>
		</contour>
		<contour>
			<point x="467" y="445" type="line"/>
			<point x="113" y="686" type="line"/>
			<point x="137" y="721" type="line"/>
			<point x="491" y="481" type="line"/>
		</contour>
		<contour>
			<point x="123" y="44" type="line"/>
			<point x="80" y="44" type="line"/>
			<point x="80" y="678" type="line"/>
			<point x="123" y="678" type="line"/>
		</contour>
		<contour>
			<point x="345" y="0" type="line"/>
			<point x="124" y="0" type="line"/>
			<point x="124" y="43" type="line"/>
			<point x="345" y="43" type="line"/>
		</contour>
	</outline>
</glyph>
<glyph name="D.ss02" format="2">
	<advance width="566"/>
	<anchor x="155" y="330" name="center"/>
	<anchor x="275" y="0" name="bottom"/>
	<anchor x="275" y="700" name="top"/>
	<outline>
		<contour>
			<point x="463" y="0" type="line"/>
			<point x="124" y="0" type="line"/>
			<point x="124" y="43" type="line"/>
			<point x="463" y="43" type="line"/>
		</contour>
		<contour>
			<point x="506" y="44" type="line"/>
			<point x="464" y="44" type="line"/>
			<point x="464" y="455" type="line"/>
			<point x="506" y="455" type="line"/>
		</contour>
		<contour>
			<point x="123" y="44" type="line"/>
			<point x="80" y="44" type="line"/>
			<point x="80" y="684" type="line"/>
			<point x="123" y="684" type="line"/>
		</contour>
		<contour>
			<point x="464" y="456" type="line"/>
			<point x="124" y="684" type="line"/>
			<point x="148" y="720" type="line"/>
			<point x="488" y="491" type="line"/>
		</contour>
	</outline>
</glyph>
<glyph name="E.ss01" format="2">
	<advance width="578"/>
	<anchor x="549" y="10" name="ogonek"/>
	<anchor x="305" y="700" name="top"/>
	<anchor x="20" y="700" name="topleft"/>
	<anchor x="305" y="0" name="bottom"/>
	<outline>
		<contour>
			<point x="123" y="44" type="line"/>
			<point x="80" y="44" type="line"/>
			<point x="80" y="679" type="line"/>
			<point x="123" y="679" type="line"/>
		</contour>
		<contour>
			<point x="558" y="0" type="line"/>
			<point x="125" y="0" type="line"/>
			<point x="125" y="43" type="line"/>
			<point x="558" y="43" type="line"/>
		</contour>
		<contour>
			<point x="451" y="462" type="line"/>
			<point x="125" y="680" type="line"/>
			<point x="149" y="716" type="line"/>
			<point x="475" y="498" type="line"/>
		</contour>
		<contour>
			<point x="405" y="277" type="line"/>
			<point x="136" y="277" type="line"/>
			<point x="136" y="320" type="line"/>
			<point x="405" y="320" type="line"/>
		</contour>
	</outline>
</glyph>
<glyph name="E.ss02" format="2">
	<advance width="512"/>
	<anchor x="468" y="10" name="ogonek"/>
	<anchor x="260" y="700" name="top"/>
	<anchor x="20" y="700" name="topleft"/>
	<anchor x="260" y="0" name="bottom"/>
	<outline>
		<contour>
			<point x="413" y="335" type="line"/>
			<point x="70" y="396" type="line"/>
			<point x="77" y="439" type="line"/>
			<point x="420" y="377" type="line"/>
		</contour>
		<contour>
			<point x="76" y="236" type="line"/>
			<point x="70" y="278" type="line"/>
			<point x="413" y="333" type="line"/>
			<point x="419" y="290" type="line"/>
		</contour>
		<contour>
			<point x="150" y="44" type="line"/>
			<point x="107" y="44" type="line"/>
			<point x="107" y="239" type="line"/>
			<point x="150" y="239" type="line"/>
		</contour>
		<contour>
			<point x="146" y="436" type="line"/>
			<point x="103" y="436" type="line"/>
			<point x="103" y="656" type="line"/>
			<point x="146" y="656" type="line"/>
		</contour>
		<contour>
			<point x="462" y="657" type="line"/>
			<point x="147" y="657" type="line"/>
			<point x="147" y="700" type="line"/>
			<point x="462" y="700" type="line"/>
		</contour>
		<contour>
			<point x="460" y="0" type="line"/>
			<point x="151" y="0" type="line"/>
			<point x="151" y="43" type="line"/>
			<point x="460" y="43" type="line"/>
		</contour>
	</outline>
</glyph>
<glyph name="F.ss01" format="2">
	<advance width="504"/>
	<outline>
		<contour>
			<point x="142" y="0" type="line"/>
			<point x="99" y="0" type="line"/>
			<point x="99" y="377" type="line"/>
			<point x="142" y="377" type="line"/>
		</contour>
		<contour>
			<point x="494" y="658" type="line"/>
			<point x="30" y="658" type="line"/>
			<point x="30" y="700" type="line"/>
			<point x="494" y="700" type="line"/>
		</contour>
		<contour>
			<point x="390" y="334" type="line"/>
			<point x="53" y="412" type="line"/>
			<point x="63" y="454" type="line"/>
			<point x="399" y="376" type="line"/>
		</contour>
		<contour>
			<point x="142" y="457" type="line"/>
			<point x="99" y="457" type="line"/>
			<point x="99" y="642" type="line"/>
			<point x="142" y="642" type="line"/>
		</contour>
	</outline>
</glyph>
<glyph name="F.ss02" format="2">
	<advance width="530"/>
	<outline>
		<contour>
			<point x="123" y="0" type="line"/>
			<point x="80" y="0" type="line"/>
			<point x="80" y="656" type="line"/>
			<point x="123" y="656" type="line"/>
		</contour>
		<contour>
			<point x="525" y="657" type="line"/>
			<point x="124" y="657" type="line"/>
			<point x="124" y="700" type="line"/>
			<point x="525" y="700" type="line"/>
		</contour>
		<contour>
			<point x="447" y="355" type="line"/>
			<point x="140" y="355" type="line"/>
			<point x="140" y="398" type="line"/>
			<point x="447" y="398" type="line"/>
		</contour>
	</outline>
</glyph>
<glyph name="G.ss01" format="2">
	<advance width="595"/>
	<outline>
		<contour>
			<point x="114" y="462" type="line"/>
			<point x="89" y="498" type="line"/>
			<point x="476" y="770" type="line"/>
			<point x="500" y="735" type="line"/>
		</contour>
		<contour>
			<point x="113" y="44" type="line"/>
			<point x="70" y="44" type="line"/>
			<point x="70" y="461" type="line"/>
			<point x="113" y="461" type="line"/>
		</contour>
		<contour>
			<point x="444" y="0" type="line"/>
			<point x="114" y="0" type="line"/>
			<point x="114" y="43" type="line"/>
			<point x="444" y="43" type="line"/>
		</contour>
		<contour>
			<point x="497" y="0" type="line"/>
			<point x="454" y="0" type="line"/>
			<point x="454" y="323" type="line"/>
			<point x="497" y="323" type="line"/>
		</contour>
		<contour>
			<point x="590" y="332" type="line"/>
			<point x="353" y="332" type="line"/>
			<point x="353" y="375" type="line"/>
			<point x="590" y="375" type="line"/>
		</contour>
	</outline>
</glyph>
<glyph name="G.ss02" format="2">
	<advance width="718"/>
	<outline>
		<contour>
			<point x="93" y="215" type="line"/>
			<point x="50" y="215" type="line"/>
			<point x="50" y="461" type="line"/>
			<point x="93" y="461" type="line"/>
		</contour>
		<contour>
			<point x="223" y="13" type="line"/>
			<point x="63" y="181" type="line"/>
			<point x="94" y="210" type="line"/>
			<point x="254" y="42" type="line"/>
		</contour>
		<contour>
			<point x="93" y="465" type="line"/>
			<point x="63" y="495" type="line"/>
			<point x="251" y="687" type="line"/>
			<point x="281" y="657" type="line"/>
		</contour>
		<contour>
			<point x="556" y="657" type="line"/>
			<point x="285" y="657" type="line"/>
			<point x="285" y="700" type="line"/>
			<point x="556" y="700" type="line"/>
		</contour>
		<contour>
			<point x="461" y="0" type="line"/>
			<point x="259" y="0" type="line"/>
			<point x="259" y="43" type="line"/>
			<point x="461" y="43" type="line"/>
		</contour>
		<contour>
			<point x="631" y="325" type="line"/>
			<point x="357" y="325" type="line"/>
			<point x="357" y="368" type="line"/>
			<point x="631" y="368" type="line"/>
		</contour>
		<contour>
			<point x="678" y="0" type="line"/>
			<point x="635" y="0" type="line"/>
			<point x="635" y="321" type="line"/>
			<point x="678" y="321" type="line"/>
		</contour>
		<contour>
			<point x="498" y="14" type="line"/>
			<point x="465" y="42" type="line"/>
			<point x="598" y="198" type="line"/>
			<point x="630" y="171" type="line"/>
		</contour>
	</outline>
</glyph>
<glyph name="H.ss01" format="2">
	<advance width="560"/>
	<outline>
		<contour>
			<point x="120" y="0" type="line"/>
			<point x="77" y="0" type="line"/>
			<point x="77" y="329" type="line"/>
			<point x="120" y="329" type="line"/>
		</contour>
		<contour>
			<point x="481" y="0" type="line"/>
			<point x="438" y="0" type="line"/>
			<point x="438" y="329" type="line"/>
			<point x="481" y="329" type="line"/>
		</contour>
		<contour>
			<point x="520" y="342" type="line"/>
			<point x="20" y="342" type="line"/>
			<point x="20" y="385" type="line"/>
			<point x="520" y="385" type="line"/>
		</contour>
		<contour>
			<point x="147" y="398" type="line"/>
			<point x="104" y="398" type="line"/>
			<point x="104" y="700" type="line"/>
			<point x="147" y="700" type="line"/>
		</contour>
		<contour>
			<point x="481" y="398" type="line"/>
			<point x="438" y="398" type="line"/>
			<point x="438" y="700" type="line"/>
			<point x="481" y="700" type="line"/>
		</contour>
	</outline>
</glyph>
<glyph name="H.ss02" format="2">
	<advance width="520"/>
	<outline>
		<contour>
			<point x="120" y="0" type="line"/>
			<point x="77" y="0" type="line"/>
			<point x="77" y="289" type="line"/>
			<point x="120" y="289" type="line"/>
		</contour>
		<contour>
			<point x="427" y="0" type="line"/>
			<point x="384" y="0" type="line"/>
			<point x="384" y="328" type="line"/>
			<point x="427" y="328" type="line"/>
		</contour>
		<contour>
			<point x="25" y="287" type="line"/>
			<point x="20" y="330" type="line"/>
			<point x="490" y="391" type="line"/>
			<point x="495" y="348" type="line"/>
		</contour>
		<contour>
			<point x="139" y="351" type="line"/>
			<point x="96" y="351" type="line"/>
			<point x="96" y="700" type="line"/>
			<point x="139" y="700" type="line"/>
		</contour>
		<contour>
			<point x="416" y="387" type="line"/>
			<point x="373" y="387" type="line"/>
			<point x="373" y="700" type="line"/>
			<point x="416" y="700" type="line"/>
		</contour>
	</outline>
</glyph>
<glyph name="I.ss01" format="2">
	<advance width="323"/>
	<anchor x="291" y="10" name="ogonek"/>
	<anchor x="162" y="700" name="top"/>
	<anchor x="20" y="700" name="topleft"/>
	<anchor x="162" y="0" name="bottom"/>
	<outline>
		<contour>
			<point x="303" y="0" type="line"/>
			<point x="20" y="0" type="line"/>
			<point x="20" y="43" type="line"/>
			<point x="303" y="43" type="line"/>
		</contour>
		<contour>
			<point x="183" y="56" type="line"/>
			<point x="140" y="56" type="line"/>
			<point x="140" y="644" type="line"/>
			<point x="183" y="644" type="line"/>
		</contour>
		<contour>
			<point x="260" y="657" type="line"/>
			<point x="64" y="657" type="line"/>
			<point x="64" y="700" type="line"/>
			<point x="260" y="700" type="line"/>
		</contour>
	</outline>
</glyph>
<glyph name="I.ss02" format="2">
	<advance width="333"/>
	<anchor x="301" y="10" name="ogonek"/>
	<anchor x="167" y="700" name="top"/>
	<anchor x="19" y="700" name="topleft"/>
	<anchor x="167" y="0" name="bottom"/>
	<outline>
		<contour>
			<point x="308" y="0" type="line"/>
			<point x="25" y="0" type="line"/>
			<point x="25" y="43" type="line"/>
			<point x="308" y="43" type="line"/>
		</contour>
		<contour>
			<point x="158" y="52" type="line"/>
			<point x="115" y="57" type="line"/>
			<point x="175" y="648" type="line"/>
			<point x="218" y="644" type="line"/>
		</contour>
		<contour>
			<point x="281" y="657" type="line"/>
			<point x="52" y="657" type="line"/>
			<point x="52" y="700" type="line"/>
			<point x="281" y="700" type="line"/>
		</contour>
	</outline>
</glyph>
<glyph name="J.ss01" format="2">
	<advance width="411"/>
	<outline>
		<contour>
			<point x="391" y="657" type="line"/>
			<point x="51" y="657" type="line"/>
			<point x="51" y="700" type="line"/>
			<point x="391" y="700" type="line"/>
		</contour>
		<contour>
			<point x="307" y="44" type="line"/>
			<point x="264" y="44" type="line"/>
			<point x="264" y="644" type="line"/>
			<point x="307" y="644" type="line"/>
		</contour>
		<contour>
			<point x="263" y="0" type="line"/>
			<point x="62" y="0" type="line"/>
			<point x="62" y="43" type="line"/>
			<point x="263" y="43" type="line"/>
		</contour>
		<contour>
			<point x="61" y="45" type="line"/>
			<point x="30" y="74" type="line"/>
			<point x="231" y="288" type="line"/>
			<point x="262" y="259" type="line"/>
		</contour>
	</outline>
</glyph>
<glyph name="J.ss02" format="2">
	<advance width="398"/>
	<outline>
		<contour>
			<point x="303" y="54" type="line"/>
			<point x="260" y="54" type="line"/>
			<point x="260" y="643" type="line"/>
			<point x="303" y="643" type="line"/>
		</contour>
		<contour>
			<point x="85" y="27" type="line"/>
			<point x="20" y="175" type="line"/>
			<point x="59" y="192" type="line"/>
			<point x="124" y="44" type="line"/>
		</contour>
		<contour>
			<point x="310" y="0" type="line"/>
			<point x="124" y="0" type="line"/>
			<point x="124" y="43" type="line"/>
			<point x="310" y="43" type="line"/>
		</contour>
		<contour>
			<point x="383" y="657" type="line"/>
			<point x="71" y="657" type="line"/>
			<point x="71" y="700" type="line"/>
			<point x="383" y="700" type="line"/>
		</contour>
	</outline>
</glyph>
<glyph name="K.ss01" format="2">
	<advance width="538"/>
	<outline>
		<contour>
			<point x="123" y="0" type="line"/>
			<point x="80" y="0" type="line"/>
			<point x="80" y="700" type="line"/>
			<point x="123" y="700" type="line"/>
		</contour>
		<contour>
			<point x="381" y="292" type="line"/>
			<point x="127" y="335" type="line"/>
			<point x="134" y="377" type="line"/>
			<point x="388" y="335" type="line"/>
		</contour>
		<contour>
			<point x="467" y="0" type="line"/>
			<point x="326" y="274" type="line"/>
			<point x="364" y="293" type="line"/>
			<point x="505" y="20" type="line"/>
		</contour>
		<contour>
			<point x="240" y="363" type="line"/>
			<point x="206" y="389" type="line"/>
			<point x="479" y="726" type="line"/>
			<point x="513" y="699" type="line"/>
		</contour>
	</outline>
</glyph>
<glyph name="K.ss02" format="2">
	<advance width="516"/>
	<outline>
		<contour>
			<point x="412" y="333" type="line"/>
			<point x="70" y="333" type="line"/>
			<point x="70" y="376" type="line"/>
			<point x="412" y="376" type="line"/>
		</contour>
		<contour>
			<point x="130" y="0" type="line"/>
			<point x="87" y="0" type="line"/>
			<point x="87" y="318" type="line"/>
			<point x="130" y="318" type="line"/>
		</contour>
		<contour>
			<point x="130" y="392" type="line"/>
			<point x="87" y="392" type="line"/>
			<point x="87" y="700" type="line"/>
			<point x="130" y="700" type="line"/>
		</contour>
		<contour>
			<point x="172" y="378" type="line"/>
			<point x="135" y="399" type="line"/>
			<point x="332" y="742" type="line"/>
			<point x="368" y="721" type="line"/>
		</contour>
		<contour>
			<point x="456" y="0" type="line"/>
			<point x="413" y="0" type="line"/>
			<point x="413" y="332" type="line"/>
			<point x="456" y="332" type="line"/>
		</contour>
	</outline>
</glyph>
<glyph name="L.ss01" format="2">
	<advance width="538"/>
	<outline>
		<contour>
			<point x="123" y="44" type="line"/>
			<point x="80" y="44" type="line"/>
			<point x="80" y="700" type="line"/>
			<point x="123" y="700" type="line"/>
		</contour>
		<contour>
			<point x="391" y="0" type="line"/>
			<point x="124" y="0" type="line"/>
			<point x="124" y="43" type="line"/>
			<point x="391" y="43" type="line"/>
		</contour>
		<contour>
			<point x="420" y="10" type="line"/>
			<point x="392" y="43" type="line"/>
			<point x="501" y="135" type="line"/>
			<point x="528" y="102" type="line"/>
		</contour>
	</outline>
</glyph>
<glyph name="L.ss02" format="2">
	<advance width="490"/>
	<outline>
		<contour>
			<point x="61" y="96" type="line"/>
			<point x="20" y="110" type="line"/>
			<point x="237" y="735" type="line"/>
			<point x="278" y="721" type="line"/>
		</contour>
		<contour>
			<point x="268" y="-12" type="line"/>
			<point x="48" y="53" type="line"/>
			<point x="61" y="95" type="line"/>
			<point x="280" y="29" type="line"/>
		</contour>
		<contour>
			<point x="292" y="-12" type="line"/>
			<point x="281" y="29" type="line"/>
			<point x="469" y="78" type="line"/>
			<point x="480" y="37" type="line"/>
		</contour>
	</outline>
</glyph>
<glyph name="M.ss01" format="2">
	<advance width="958"/>
	<outline>
		<contour>
			<point x="131" y="0" type="line"/>
			<point x="88" y="0" type="line"/>
			<point x="88" y="584" type="line"/>
			<point x="131" y="584" type="line"/>
		</contour>
		<contour>
			<point x="504" y="0" type="line"/>
			<point x="65" y="693" type="line"/>
			<point x="102" y="716" type="line"/>
			<point x="541" y="23" type="line"/>
		</contour>
		<contour>
			<point x="917" y="0" type="line"/>
			<point x="476" y="693" type="line"/>
			<point x="513" y="716" type="line"/>
			<point x="953" y="23" type="line"/>
		</contour>
		<contour>
			<point x="543" y="90" type="line"/>
			<point x="501" y="90" type="line"/>
			<point x="501" y="584" type="line"/>
			<point x="543" y="584" type="line"/>
		</contour>
	</outline>
</glyph>
<glyph name="M.ss02" format="2">
	<advance width="731"/>
	<outline>
		<contour>
			<point x="323" y="0" type="line"/>
			<point x="213" y="732" type="line"/>
			<point x="255" y="739" type="line"/>
			<point x="365" y="7" type="line"/>
		</contour>
		<contour>
			<point x="102" y="0" type="line"/>
			<point x="60" y="7" type="line"/>
			<point x="170" y="739" type="line"/>
			<point x="212" y="732" type="line"/>
		</contour>
		<contour>
			<point x="629" y="0" type="line"/>
			<point x="519" y="732" type="line"/>
			<point x="561" y="739" type="line"/>
			<point x="671" y="7" type="line"/>
		</contour>
		<contour>
			<point x="408" y="0" type="line"/>
			<point x="366" y="7" type="line"/>
			<point x="476" y="739" type="line"/>
			<point x="518" y="732" type="line"/>
		</contour>
	</outline>
</glyph>
<glyph name="O.ss01" format="2">
	<advance width="657"/>
	<anchor x="319" y="350" name="center"/>
	<anchor x="573" y="10" name="ogonek"/>
	<anchor x="319" y="700" name="top"/>
	<anchor x="617" y="700" name="topright"/>
	<anchor x="20" y="700" name="topleft"/>
	<anchor x="319" y="0" name="bottom"/>
	<outline>
		<contour>
			<point x="534" y="657" type="line"/>
			<point x="124" y="657" type="line"/>
			<point x="124" y="700" type="line"/>
			<point x="534" y="700" type="line"/>
		</contour>
		<contour>
			<point x="534" y="0" type="line"/>
			<point x="124" y="0" type="line"/>
			<point x="124" y="43" type="line"/>
			<point x="534" y="43" type="line"/>
		</contour>
		<contour>
			<point x="577" y="43" type="line"/>
			<point x="534" y="43" type="line"/>
			<point x="534" y="657" type="line"/>
			<point x="577" y="657" type="line"/>
		</contour>
		<contour>
			<point x="123" y="43" type="line"/>
			<point x="80" y="43" type="line"/>
			<point x="80" y="657" type="line"/>
			<point x="123" y="657" type="line"/>
		</contour>
	</outline>
</glyph>
<glyph name="O.ss02" format="2">
	<advance width="684"/>
	<anchor x="342" y="350" name="center"/>
	<anchor x="616" y="10" name="ogonek"/>
	<anchor x="342" y="700" name="top"/>
	<anchor x="664" y="700" name="topright"/>
	<anchor x="20" y="700" name="topleft"/>
	<anchor x="342" y="0" name="bottom"/>
	<outline>
		<contour>
			<point x="103" y="180" type="line"/>
			<point x="60" y="180" type="line"/>
			<point x="60" y="526" type="line"/>
			<point x="103" y="526" type="line"/>
		</contour>
		<contour>
			<point x="624" y="178" type="line"/>
			<point x="581" y="178" type="line"/>
			<point x="581" y="526" type="line"/>
			<point x="624" y="526" type="line"/>
		</contour>
		<contour>
			<point x="444" y="0" type="line"/>
			<point x="243" y="0" type="line"/>
			<point x="243" y="43" type="line"/>
			<point x="444" y="43" type="line"/>
		</contour>
		<contour>
			<point x="441" y="657" type="line"/>
			<point x="243" y="657" type="line"/>
			<point x="243" y="700" type="line"/>
			<point x="441" y="700" type="line"/>
		</contour>
		<contour>
			<point x="580" y="527" type="line"/>
			<point x="442" y="657" type="line"/>
			<point x="472" y="688" type="line"/>
			<point x="610" y="558" type="line"/>
		</contour>
		<contour>
			<point x="103" y="527" type="line"/>
			<point x="73" y="558" type="line"/>
			<point x="213" y="688" type="line"/>
			<point x="242" y="657" type="line"/>
		</contour>
		<contour>
			<point x="212" y="13" type="line"/>
			<point x="73" y="148" type="line"/>
			<point x="103" y="179" type="line"/>
			<point x="242" y="43" type="line"/>
		</contour>
		<contour>
			<point x="474" y="14" type="line"/>
			<point x="445" y="44" type="line"/>
			<point x="581" y="177" type="line"/>
			<point x="611" y="146" type="line"/>
		</contour>
	</outline>
</glyph>
<glyph name="P.ss01" format="2">
	<advance width="521"/>
	<outline>
		<contour>
			<point x="510" y="657" type="line"/>
			<point x="40" y="657" type="line"/>
			<point x="40" y="700" type="line"/>
			<point x="510" y="700" type="line"/>
		</contour>
		<contour>
			<point x="170" y="294" type="line"/>
			<point x="141" y="325" type="line"/>
			<point x="488" y="655" type="line"/>
			<point x="518" y="624" type="line"/>
		</contour>
		<contour>
			<point x="139" y="0" type="line"/>
			<point x="96" y="0" type="line"/>
			<point x="96" y="641" type="line"/>
			<point x="139" y="641" type="line"/>
		</contour>
	</outline>
</glyph>
<glyph name="P.ss02" format="2">
	<advance width="548"/>
	<outline>
		<contour>
			<point x="147" y="385" type="line"/>
			<point x="109" y="404" type="line"/>
			<point x="274" y="733" type="line"/>
			<point x="313" y="714" type="line"/>
		</contour>
		<contour>
			<point x="490" y="385" type="line"/>
			<point x="314" y="714" type="line"/>
			<point x="351" y="734" type="line"/>
			<point x="528" y="405" type="line"/>
		</contour>
		<contour>
			<point x="489" y="341" type="line"/>
			<point x="148" y="341" type="line"/>
			<point x="148" y="384" type="line"/>
			<point x="489" y="384" type="line"/>
		</contour>
		<contour>
			<point x="108" y="0" type="line"/>
			<point x="65" y="0" type="line"/>
			<point x="65" y="404" type="line"/>
			<point x="108" y="404" type="line"/>
		</contour>
	</outline>
</glyph>
<glyph name="Q.ss01" format="2">
	<advance width="580"/>
	<outline>
		<contour>
			<point x="456" y="657" type="line"/>
			<point x="123" y="657" type="line"/>
			<point x="123" y="700" type="line"/>
			<point x="456" y="700" type="line"/>
		</contour>
		<contour>
			<point x="122" y="44" type="line"/>
			<point x="80" y="44" type="line"/>
			<point x="80" y="656" type="line"/>
			<point x="122" y="656" type="line"/>
		</contour>
		<contour>
			<point x="456" y="0" type="line"/>
			<point x="323" y="0" type="line"/>
			<point x="323" y="43" type="line"/>
			<point x="456" y="43" type="line"/>
		</contour>
		<contour>
			<point x="257" y="0" type="line"/>
			<point x="123" y="0" type="line"/>
			<point x="123" y="43" type="line"/>
			<point x="257" y="43" type="line"/>
		</contour>
		<contour>
			<point x="500" y="44" type="line"/>
			<point x="457" y="44" type="line"/>
			<point x="457" y="656" type="line"/>
			<point x="500" y="656" type="line"/>
		</contour>
		<contour>
			<point x="312" y="-223" type="line"/>
			<point x="269" y="-223" type="line"/>
			<point x="269" y="183" type="line"/>
			<point x="312" y="183" type="line"/>
		</contour>
	</outline>
</glyph>
<glyph name="Q.ss02" format="2">
	<advance width="648"/>
	<outline>
		<contour>
			<point x="454" y="657" type="line"/>
			<point x="124" y="657" type="line"/>
			<point x="124" y="700" type="line"/>
			<point x="454" y="700" type="line"/>
		</contour>
		<contour>
			<point x="123" y="44" type="line"/>
			<point x="80" y="44" type="line"/>
			<point x="80" y="656" type="line"/>
			<point x="123" y="656" type="line"/>
		</contour>
		<contour>
			<point x="476" y="0" type="line"/>
			<point x="124" y="0" type="line"/>
			<point x="124" y="43" type="line"/>
			<point x="476" y="43" type="line"/>
		</contour>
		<contour>
			<point x="498" y="98" type="line"/>
			<point x="455" y="98" type="line"/>
			<point x="455" y="656" type="line"/>
			<point x="498" y="656" type="line"/>
		</contour>
		<contour>
			<point x="659" y="-20" type="line"/>
			<point x="266" y="118" type="line"/>
			<point x="280" y="158" type="line"/>
			<point x="673" y="20" type="line"/>
		</contour>
	</outline>
</glyph>
<glyph name="R.ss01" format="2">
	<advance width="492"/>
	<outline>
		<contour>
			<point x="442" y="367" type="line"/>
			<point x="131" y="675" type="line"/>
			<point x="161" y="706" type="line"/>
			<point x="472" y="398" type="line"/>
		</contour>
		<contour>
			<point x="452" y="322" type="line"/>
			<point x="133" y="322" type="line"/>
			<point x="133" y="365" type="line"/>
			<point x="452" y="365" type="line"/>
		</contour>
		<contour>
			<point x="432" y="0" type="line"/>
			<point x="131" y="290" type="line"/>
			<point x="161" y="321" type="line"/>
			<point x="462" y="31" type="line"/>
		</contour>
		<contour>
			<point x="123" y="0" type="line"/>
			<point x="80" y="0" type="line"/>
			<point x="80" y="700" type="line"/>
			<point x="123" y="700" type="line"/>
		</contour>
	</outline>
</glyph>
<glyph name="R.ss02" format="2">
	<advance width="488"/>
	<outline>
		<contour>
			<point x="123" y="0" type="line"/>
			<point x="80" y="0" type="line"/>
			<point x="80" y="694" type="line"/>
			<point x="123" y="694" type="line"/>
		</contour>
		<contour>
			<point x="153" y="165" type="line"/>
			<point x="124" y="196" type="line"/>
			<point x="402" y="451" type="line"/>
			<point x="431" y="420" type="line"/>
		</contour>
		<contour>
			<point x="438" y="-8" type="line"/>
			<point x="218" y="206" type="line"/>
			<point x="248" y="237" type="line"/>
			<point x="468" y="22" type="line"/>
		</contour>
		<contour>
			<point x="403" y="452" type="line"/>
			<point x="111" y="705" type="line"/>
			<point x="139" y="738" type="line"/>
			<point x="431" y="485" type="line"/>
		</contour>
	</outline>
</glyph>
<glyph name="S.ss01" format="2">
	<advance width="754"/>
	<outline>
		<contour>
			<point x="696" y="339" type="line"/>
			<point x="36" y="339" type="line"/>
			<point x="36" y="382" type="line"/>
			<point x="696" y="382" type="line"/>
		</contour>
		<contour>
			<point x="52" y="383" type="line"/>
			<point x="25" y="417" type="line"/>
			<point x="381" y="708" type="line"/>
			<point x="408" y="675" type="line"/>
		</contour>
		<contour>
			<point x="579" y="507" type="line"/>
			<point x="409" y="675" type="line"/>
			<point x="439" y="705" type="line"/>
			<point x="609" y="538" type="line"/>
		</contour>
		<contour>
			<point x="336" y="-12" type="line"/>
			<point x="309" y="21" type="line"/>
			<point x="697" y="338" type="line"/>
			<point x="724" y="305" type="line"/>
		</contour>
		<contour>
			<point x="278" y="-10" type="line"/>
			<point x="122" y="143" type="line"/>
			<point x="152" y="173" type="line"/>
			<point x="308" y="21" type="line"/>
		</contour>
	</outline>
</glyph>
<glyph name="S.ss02" format="2">
	<advance width="832"/>
	<outline>
		<contour>
			<point x="827" y="657" type="line"/>
			<point x="336" y="657" type="line"/>
			<point x="336" y="700" type="line"/>
			<point x="827" y="700" type="line"/>
		</contour>
		<contour>
			<point x="683" y="331" type="line"/>
			<point x="185" y="331" type="line"/>
			<point x="185" y="374" type="line"/>
			<point x="683" y="374" type="line"/>
		</contour>
		<contour>
			<point x="528" y="0" type="line"/>
			<point x="5" y="0" type="line"/>
			<point x="5" y="43" type="line"/>
			<point x="528" y="43" type="line"/>
		</contour>
		<contour>
			<point x="529" y="43" type="line"/>
			<point x="161" y="294" type="line"/>
			<point x="185" y="330" type="line"/>
			<point x="553" y="79" type="line"/>
		</contour>
		<contour>
			<point x="683" y="375" type="line"/>
			<point x="311" y="622" type="line"/>
			<point x="335" y="657" type="line"/>
			<point x="707" y="411" type="line"/>
		</contour>
	</outline>
</glyph>
<glyph name="T.ss01" format="2">
	<advance width="645"/>
	<outline>
		<contour>
			<point x="12" y="625" type="line"/>
			<point x="5" y="667" type="line"/>
			<point x="316" y="716" type="line"/>
			<point x="323" y="674" type="line"/>
		</contour>
		<contour>
			<point x="634" y="628" type="line"/>
			<point x="327" y="674" type="line"/>
			<point x="334" y="716" type="line"/>
			<point x="640" y="669" type="line"/>
		</contour>
		<contour>
			<point x="347" y="0" type="line"/>
			<point x="304" y="0" type="line"/>
			<point x="304" y="666" type="line"/>
			<point x="347" y="666" type="line"/>
		</contour>
	</outline>
</glyph>
<glyph name="T.ss02" format="2">
	<advance width="589"/>
	<outline>
		<contour>
			<point x="584" y="657" type="line"/>
			<point x="5" y="657" type="line"/>
			<point x="5" y="700" type="line"/>
			<point x="584" y="700" type="line"/>
		</contour>
		<contour>
			<point x="153" y="-12" type="line"/>
			<point x="113" y="2" type="line"/>
			<point x="341" y="656" type="line"/>
			<point x="381" y="642" type="line"/>
		</contour>
	</outline>
</glyph>
<glyph name="VTF" format="2">
	<advance width="1139"/>
	<outline>
		<contour>
			<point x="1099" y="217" type="line"/>
			<point x="669" y="217" type="line"/>
			<point x="669" y="260" type="line"/>
			<point x="1099" y="260" type="line"/>
		</contour>
		<contour>
			<point x="879" y="0" type="line"/>
			<point x="836" y="0" type="line"/>
			<point x="836" y="206" type="line"/>
			<point x="879" y="206" type="line"/>
		</contour>
		<contour>
			<point x="1060" y="450" type="line"/>
			<point x="1017" y="450" type="line"/>
			<point x="1017" y="695" type="line"/>
			<point x="1060" y="695" type="line"/>
		</contour>
		<contour>
			<point x="910" y="551" type="line"/>
			<point x="332" y="551" type="line"/>
			<point x="332" y="594" type="line"/>
			<point x="910" y="594" type="line"/>
		</contour>
		<contour>
			<point x="568" y="-12" type="line"/>
			<point x="528" y="2" type="line"/>
			<point x="717" y="546" type="line"/>
			<point x="757" y="532" type="line"/>
		</contour>
		<contour>
			<point x="370" y="-12" type="line"/>
			<point x="330" y="2" type="line"/>
			<point x="519" y="546" type="line"/>
			<point x="559" y="532" type="line"/>
		</contour>
		<contour>
			<point x="286" y="-12" type="line"/>
			<point x="40" y="694" type="line"/>
			<point x="80" y="708" type="line"/>
			<point x="326" y="2" type="line"/>
		</contour>
		<contour>
			<point x="863" y="266" type="line"/>
			<point x="823" y="280" type="line"/>
			<point x="972" y="709" type="line"/>
			<point x="1012" y="695" type="line"/>
		</contour>
	</outline>
</glyph>
<glyph name="a.ss01" format="2">
	<advance width="507"/>
	<anchor x="461" y="10" name="ogonek"/>
	<anchor x="255" y="0" name="bottom"/>
	<anchor x="255" y="400" name="top"/>
	<outline>
		<contour>
			<point x="467" y="357" type="line"/>
			<point x="166" y="357" type="line"/>
			<point x="166" y="400" type="line"/>
			<point x="467" y="400" type="line"/>
		</contour>
		<contour>
			<point x="441" y="0" type="line"/>
			<point x="398" y="0" type="line"/>
			<point x="398" y="346" type="line"/>
			<point x="441" y="346" type="line"/>
		</contour>
		<contour>
			<point x="386" y="0" type="line"/>
			<point x="78" y="0" type="line"/>
			<point x="78" y="43" type="line"/>
			<point x="386" y="43" type="line"/>
		</contour>
		<contour>
			<point x="77" y="44" type="line"/>
			<point x="35" y="53" type="line"/>
			<point x="82" y="254" type="line"/>
			<point x="124" y="245" type="line"/>
		</contour>
		<contour>
			<point x="377" y="123" type="line"/>
			<point x="125" y="245" type="line"/>
			<point x="143" y="283" type="line"/>
			<point x="396" y="161" type="line"/>
		</contour>
	</outline>
</glyph>
<glyph name="a.ss02" format="2">
	<advance width="486"/>
	<anchor x="437" y="10" name="ogonek"/>
	<anchor x="243" y="0" name="bottom"/>
	<anchor x="243" y="400" name="top"/>
	<outline>
		<contour>
			<point x="345" y="0" type="line"/>
			<point x="111" y="0" type="line"/>
			<point x="111" y="43" type="line"/>
			<point x="345" y="43" type="line"/>
		</contour>
		<contour>
			<point x="72" y="25" type="line"/>
			<point x="29" y="115" type="line"/>
			<point x="67" y="134" type="line"/>
			<point x="110" y="44" type="line"/>
		</contour>
		<contour>
			<point x="67" y="135" type="line"/>
			<point x="36" y="165" type="line"/>
			<point x="108" y="242" type="line"/>
			<point x="139" y="213" type="line"/>
		</contour>
		<contour>
			<point x="345" y="213" type="line"/>
			<point x="140" y="213" type="line"/>
			<point x="140" y="256" type="line"/>
			<point x="345" y="256" type="line"/>
		</contour>
		<contour>
			<point x="398" y="0" type="line"/>
			<point x="355" y="0" type="line"/>
			<point x="355" y="349" type="line"/>
			<point x="398" y="349" type="line"/>
		</contour>
		<contour>
			<point x="436" y="386" type="line"/>
			<point x="425" y="344" type="line"/>
			<point x="136" y="416" type="line"/>
			<point x="147" y="458" type="line"/>
		</contour>
	</outline>
</glyph>
<glyph name="b.ss01" format="2">
	<advance width="453"/>
	<outline>
		<contour>
			<point x="96" y="53" type="line"/>
			<point x="96" y="700" type="line"/>
			<point x="139" y="700" type="line"/>
			<point x="139" y="53" type="line"/>
		</contour>
		<contour>
			<point x="399" y="45" type="line"/>
			<point x="141" y="389" type="line"/>
			<point x="175" y="417" type="line"/>
			<point x="433" y="70" type="line"/>
		</contour>
		<contour>
			<point x="50" y="0" type="line"/>
			<point x="50" y="43" type="line"/>
			<point x="433" y="43" type="line"/>
			<point x="433" y="0" type="line"/>
		</contour>
	</outline>
</glyph>
<glyph name="b.ss02" format="2">
	<advance width="585"/>
	<outline>
		<contour>
			<point x="70" y="0" type="line"/>
			<point x="70" y="700" type="line"/>
			<point x="113" y="700" type="line"/>
			<point x="113" y="0" type="line"/>
		</contour>
		<contour>
			<point x="125" y="262" type="line"/>
			<point x="125" y="305" type="line"/>
			<point x="535" y="305" type="line"/>
			<point x="535" y="262" type="line"/>
		</contour>
		<contour>
			<point x="326" y="-12" type="line"/>
			<point x="115" y="223" type="line"/>
			<point x="146" y="251" type="line"/>
			<point x="358" y="17" type="line"/>
		</contour>
		<contour>
			<point x="360" y="34" type="line"/>
			<point x="330" y="65" type="line"/>
			<point x="535" y="260" type="line"/>
			<point x="565" y="229" type="line"/>
		</contour>
	</outline>
</glyph>
<glyph name="d.ss01" format="2">
	<advance width="453"/>
	<outline>
		<contour>
			<point x="357" y="56" type="line"/>
			<point x="314" y="56" type="line"/>
			<point x="314" y="700" type="line"/>
			<point x="357" y="700" type="line"/>
		</contour>
		<contour>
			<point x="54" y="45" type="line"/>
			<point x="20" y="70" type="line"/>
			<point x="278" y="417" type="line"/>
			<point x="312" y="389" type="line"/>
		</contour>
		<contour>
			<point x="403" y="0" type="line"/>
			<point x="20" y="0" type="line"/>
			<point x="20" y="43" type="line"/>
			<point x="403" y="43" type="line"/>
		</contour>
	</outline>
</glyph>
<glyph name="d.ss02" format="2">
	<advance width="585"/>
	<outline>
		<contour>
			<point x="515" y="0" type="line"/>
			<point x="472" y="0" type="line"/>
			<point x="472" y="700" type="line"/>
			<point x="515" y="700" type="line"/>
		</contour>
		<contour>
			<point x="460" y="262" type="line"/>
			<point x="50" y="262" type="line"/>
			<point x="50" y="305" type="line"/>
			<point x="460" y="305" type="line"/>
		</contour>
		<contour>
			<point x="259" y="-12" type="line"/>
			<point x="227" y="17" type="line"/>
			<point x="439" y="251" type="line"/>
			<point x="470" y="223" type="line"/>
		</contour>
		<contour>
			<point x="225" y="34" type="line"/>
			<point x="20" y="229" type="line"/>
			<point x="50" y="260" type="line"/>
			<point x="255" y="65" type="line"/>
		</contour>
	</outline>
</glyph>
<glyph name="g.ss01" format="2">
	<advance width="515"/>
	<outline>
		<contour>
			<point x="401" y="0" type="line"/>
			<point x="111" y="0" type="line"/>
			<point x="111" y="43" type="line"/>
			<point x="401" y="43" type="line"/>
		</contour>
		<contour>
			<point x="445" y="44" type="line"/>
			<point x="402" y="44" type="line"/>
			<point x="402" y="600" type="line"/>
			<point x="445" y="600" type="line"/>
		</contour>
		<contour>
			<point x="182" y="235" type="line"/>
			<point x="20" y="398" type="line"/>
			<point x="50" y="428" type="line"/>
			<point x="212" y="266" type="line"/>
		</contour>
		<contour>
			<point x="245" y="236" type="line"/>
			<point x="215" y="266" type="line"/>
			<point x="368" y="419" type="line"/>
			<point x="399" y="389" type="line"/>
		</contour>
		<contour>
			<point x="50" y="430" type="line"/>
			<point x="20" y="460" type="line"/>
			<point x="172" y="612" type="line"/>
			<point x="203" y="582" type="line"/>
		</contour>
		<contour>
			<point x="368" y="421" type="line"/>
			<point x="205" y="582" type="line"/>
			<point x="235" y="613" type="line"/>
			<point x="398" y="451" type="line"/>
		</contour>
		<contour>
			<point x="111" y="45" type="line"/>
			<point x="91" y="83" type="line"/>
			<point x="381" y="229" type="line"/>
			<point x="401" y="190" type="line"/>
		</contour>
	</outline>
</glyph>
<glyph name="g.ss02" format="2">
	<advance width="522"/>
	<outline>
		<contour>
			<point x="83" y="44" type="line"/>
			<point x="40" y="44" type="line"/>
			<point x="40" y="143" type="line"/>
			<point x="83" y="143" type="line"/>
		</contour>
		<contour>
			<point x="410" y="0" type="line"/>
			<point x="84" y="0" type="line"/>
			<point x="84" y="43" type="line"/>
			<point x="410" y="43" type="line"/>
		</contour>
		<contour>
			<point x="410" y="145" type="line"/>
			<point x="85" y="145" type="line"/>
			<point x="85" y="187" type="line"/>
			<point x="410" y="187" type="line"/>
		</contour>
		<contour>
			<point x="454" y="44" type="line"/>
			<point x="411" y="44" type="line"/>
			<point x="411" y="144" type="line"/>
			<point x="454" y="144" type="line"/>
		</contour>
		<contour>
			<point x="161" y="188" type="line"/>
			<point x="139" y="224" type="line"/>
			<point x="285" y="314" type="line"/>
			<point x="307" y="277" type="line"/>
		</contour>
		<contour>
			<point x="369" y="315" type="line"/>
			<point x="120" y="315" type="line"/>
			<point x="120" y="358" type="line"/>
			<point x="369" y="358" type="line"/>
		</contour>
		<contour>
			<point x="120" y="359" type="line"/>
			<point x="78" y="359" type="line"/>
			<point x="78" y="556" type="line"/>
			<point x="120" y="556" type="line"/>
		</contour>
		<contour>
			<point x="413" y="359" type="line"/>
			<point x="370" y="359" type="line"/>
			<point x="370" y="556" type="line"/>
			<point x="413" y="556" type="line"/>
		</contour>
		<contour>
			<point x="369" y="557" type="line"/>
			<point x="120" y="557" type="line"/>
			<point x="120" y="600" type="line"/>
			<point x="369" y="600" type="line"/>
		</contour>
		<contour>
			<point x="517" y="600" type="line"/>
			<point x="370" y="600" type="line"/>
			<point x="370" y="643" type="line"/>
			<point x="517" y="643" type="line"/>
		</contour>
	</outline>
</glyph>
<glyph name="i.ss01" format="2">
	<advance width="216"/>
	<anchor x="106" y="0" name="bottom"/>
	<outline>
		<contour>
			<point x="85" y="0" type="line"/>
			<point x="85" y="400" type="line"/>
			<point x="128" y="400" type="line"/>
			<point x="128" y="0" type="line"/>
		</contour>
		<contour>
			<point x="53" y="583" type="line"/>
			<point x="15" y="604" type="line"/>
			<point x="68" y="703" type="line"/>
			<point x="106" y="682" type="line"/>
		</contour>
		<contour>
			<point x="163" y="583" type="line"/>
			<point x="110" y="682" type="line"/>
			<point x="148" y="703" type="line"/>
			<point x="201" y="604" type="line"/>
		</contour>
		<contour>
			<point x="160" y="540" type="line"/>
			<point x="56" y="540" type="line"/>
			<point x="56" y="583" type="line"/>
			<point x="160" y="583" type="line"/>
		</contour>
	</outline>
</glyph>
<glyph name="i.ss02" format="2">
	<advance width="183"/>
	<anchor x="91" y="0" name="bottom"/>
	<outline>
		<contour>
			<point x="70" y="0" type="line"/>
			<point x="70" y="400" type="line"/>
			<point x="113" y="400" type="line"/>
			<point x="113" y="0" type="line"/>
		</contour>
		<contour>
			<point x="70" y="547" type="line"/>
			<point x="70" y="716" type="line"/>
			<point x="113" y="716" type="line"/>
			<point x="113" y="547" type="line"/>
		</contour>
	</outline>
</glyph>
<glyph name="j.ss01" format="2">
	<advance width="346"/>
	<outline>
		<contour>
			<point x="188" y="0" type="line"/>
			<point x="4" y="141" type="line"/>
			<point x="30" y="175" type="line"/>
			<point x="214" y="34" type="line"/>
		</contour>
		<contour>
			<point x="261" y="0" type="line"/>
			<point x="218" y="0" type="line"/>
			<point x="218" y="400" type="line"/>
			<point x="261" y="400" type="line"/>
		</contour>
		<contour>
			<point x="181" y="583" type="line"/>
			<point x="143" y="604" type="line"/>
			<point x="196" y="703" type="line"/>
			<point x="234" y="682" type="line"/>
		</contour>
		<contour>
			<point x="291" y="583" type="line"/>
			<point x="238" y="682" type="line"/>
			<point x="276" y="703" type="line"/>
			<point x="329" y="604" type="line"/>
		</contour>
		<contour>
			<point x="288" y="540" type="line"/>
			<point x="184" y="540" type="line"/>
			<point x="184" y="583" type="line"/>
			<point x="288" y="583" type="line"/>
		</contour>
	</outline>
</glyph>
<glyph name="j.ss02" format="2">
	<advance width="322"/>
	<outline>
		<contour>
			<point x="189" y="0" type="line"/>
			<point x="5" y="141" type="line"/>
			<point x="31" y="175" type="line"/>
			<point x="215" y="34" type="line"/>
		</contour>
		<contour>
			<point x="262" y="0" type="line"/>
			<point x="219" y="0" type="line"/>
			<point x="219" y="400" type="line"/>
			<point x="262" y="400" type="line"/>
		</contour>
		<contour>
			<point x="219" y="547" type="line"/>
			<point x="219" y="716" type="line"/>
			<point x="262" y="716" type="line"/>
			<point x="262" y="547" type="line"/>
		</contour>
	</outline>
</glyph>
<glyph name="k.ss01" format="2">
	<advance width="457"/>
	<outline>
		<contour>
			<point x="113" y="0" type="line"/>
			<point x="70" y="0" type="line"/>
			<point x="70" y="700" type="line"/>
			<point x="113" y="700" type="line"/>
		</contour>
		<contour>
			<point x="404" y="0" type="line"/>
			<point x="115" y="250" type="line"/>
			<point x="143" y="283" type="line"/>
			<point x="432" y="32" type="line"/>
		</contour>
		<contour>
			<point x="230" y="220" type="line"/>
			<point x="201" y="251" type="line"/>
			<point x="390" y="422" type="line"/>
			<point x="420" y="391" type="line"/>
		</contour>
	</outline>
</glyph>
<glyph name="k.ss02" format="2">
	<advance width="446"/>
	<outline>
		<contour>
			<point x="113" y="0" type="line"/>
			<point x="70" y="0" type="line"/>
			<point x="70" y="700" type="line"/>
			<point x="113" y="700" type="line"/>
		</contour>
		<contour>
			<point x="371" y="192" type="line"/>
			<point x="122" y="192" type="line"/>
			<point x="122" y="235" type="line"/>
			<point x="371" y="235" type="line"/>
		</contour>
		<contour>
			<point x="416" y="0" type="line"/>
			<point x="373" y="0" type="line"/>
			<point x="373" y="191" type="line"/>
			<point x="416" y="191" type="line"/>
		</contour>
		<contour>
			<point x="145" y="236" type="line"/>
			<point x="116" y="268" type="line"/>
			<point x="334" y="460" type="line"/>
			<point x="363" y="427" type="line"/>
		</contour>
	</outline>
</glyph>
<glyph name="m.ss01" format="2">
	<advance width="693"/>
	<outline>
		<contour>
			<point x="663" y="357" type="line"/>
			<point x="30" y="357" type="line"/>
			<point x="30" y="400" type="line"/>
			<point x="663" y="400" type="line"/>
		</contour>
		<contour>
			<point x="130" y="0" type="line"/>
			<point x="87" y="0" type="line"/>
			<point x="87" y="343" type="line"/>
			<point x="130" y="343" type="line"/>
		</contour>
		<contour>
			<point x="368" y="0" type="line"/>
			<point x="325" y="0" type="line"/>
			<point x="325" y="343" type="line"/>
			<point x="368" y="343" type="line"/>
		</contour>
		<contour>
			<point x="609" y="0" type="line"/>
			<point x="566" y="0" type="line"/>
			<point x="566" y="343" type="line"/>
			<point x="609" y="343" type="line"/>
		</contour>
	</outline>
</glyph>
<glyph name="m.ss02" format="2">
	<advance width="734"/>
	<outline>
		<contour>
			<point x="91" y="0" type="line"/>
			<point x="50" y="15" type="line"/>
			<point x="191" y="417" type="line"/>
			<point x="232" y="403" type="line"/>
		</contour>
		<contour>
			<point x="200" y="201" type="line"/>
			<point x="174" y="235" type="line"/>
			<point x="411" y="417" type="line"/>
			<point x="437" y="383" type="line"/>
		</contour>
		<contour>
			<point x="325" y="0" type="line"/>
			<point x="284" y="15" type="line"/>
			<point x="407" y="359" type="line"/>
			<point x="447" y="344" type="line"/>
		</contour>
		<contour>
			<point x="89" y="323" type="line"/>
			<point x="65" y="358" type="line"/>
			<point x="153" y="417" type="line"/>
			<point x="177" y="382" type="line"/>
		</contour>
		<contour>
			<point x="436" y="201" type="line"/>
			<point x="410" y="235" type="line"/>
			<point x="647" y="417" type="line"/>
			<point x="673" y="383" type="line"/>
		</contour>
		<contour>
			<point x="562" y="0" type="line"/>
			<point x="521" y="15" type="line"/>
			<point x="644" y="359" type="line"/>
			<point x="684" y="344" type="line"/>
		</contour>
		<contour>
			<point x="600" y="0" type="line"/>
			<point x="576" y="35" type="line"/>
			<point x="657" y="92" type="line"/>
			<point x="681" y="57" type="line"/>
		</contour>
	</outline>
</glyph>
<glyph name="n.ss01" format="2">
	<advance width="471"/>
	<anchor x="236" y="400" name="top"/>
	<anchor x="236" y="0" name="bottom"/>
	<outline>
		<contour>
			<point x="411" y="0" type="line"/>
			<point x="368" y="0" type="line"/>
			<point x="368" y="356" type="line"/>
			<point x="411" y="356" type="line"/>
		</contour>
		<contour>
			<point x="103" y="0" type="line"/>
			<point x="60" y="0" type="line"/>
			<point x="60" y="356" type="line"/>
			<point x="103" y="356" type="line"/>
		</contour>
		<contour>
			<point x="367" y="357" type="line"/>
			<point x="105" y="357" type="line"/>
			<point x="105" y="400" type="line"/>
			<point x="367" y="400" type="line"/>
		</contour>
	</outline>
</glyph>
<glyph name="n.ss02" format="2">
	<advance width="503"/>
	<anchor x="254" y="400" name="top"/>
	<anchor x="254" y="0" name="bottom"/>
	<outline>
		<contour>
			<point x="91" y="0" type="line"/>
			<point x="50" y="15" type="line"/>
			<point x="191" y="417" type="line"/>
			<point x="232" y="403" type="line"/>
		</contour>
		<contour>
			<point x="201" y="201" type="line"/>
			<point x="175" y="235" type="line"/>
			<point x="412" y="417" type="line"/>
			<point x="438" y="383" type="line"/>
		</contour>
		<contour>
			<point x="330" y="0" type="line"/>
			<point x="289" y="15" type="line"/>
			<point x="413" y="362" type="line"/>
			<point x="453" y="347" type="line"/>
		</contour>
		<contour>
			<point x="368" y="0" type="line"/>
			<point x="344" y="35" type="line"/>
			<point x="425" y="92" type="line"/>
			<point x="449" y="57" type="line"/>
		</contour>
		<contour>
			<point x="86" y="323" type="line"/>
			<point x="62" y="358" type="line"/>
			<point x="155" y="420" type="line"/>
			<point x="179" y="385" type="line"/>
		</contour>
	</outline>
</glyph>
<glyph name="o.ss01" format="2">
	<advance width="477"/>
	<anchor x="239" y="200" name="center"/>
	<anchor x="421" y="10" name="ogonek"/>
	<anchor x="239" y="400" name="top"/>
	<anchor x="447" y="400" name="topright"/>
	<anchor x="239" y="0" name="bottom"/>
	<outline>
		<contour>
			<point x="83" y="133" type="line"/>
			<point x="40" y="133" type="line"/>
			<point x="40" y="269" type="line"/>
			<point x="83" y="269" type="line"/>
		</contour>
		<contour>
			<point x="437" y="133" type="line"/>
			<point x="394" y="133" type="line"/>
			<point x="394" y="269" type="line"/>
			<point x="437" y="269" type="line"/>
		</contour>
		<contour>
			<point x="300" y="0" type="line"/>
			<point x="176" y="0" type="line"/>
			<point x="176" y="43" type="line"/>
			<point x="300" y="43" type="line"/>
		</contour>
		<contour>
			<point x="300" y="358" type="line"/>
			<point x="176" y="358" type="line"/>
			<point x="176" y="400" type="line"/>
			<point x="300" y="400" type="line"/>
		</contour>
		<contour>
			<point x="393" y="270" type="line"/>
			<point x="302" y="357" type="line"/>
			<point x="331" y="388" type="line"/>
			<point x="423" y="301" type="line"/>
		</contour>
		<contour>
			<point x="84" y="270" type="line"/>
			<point x="55" y="301" type="line"/>
			<point x="145" y="388" type="line"/>
			<point x="175" y="357" type="line"/>
		</contour>
		<contour>
			<point x="144" y="12" type="line"/>
			<point x="53" y="100" type="line"/>
			<point x="83" y="131" type="line"/>
			<point x="174" y="43" type="line"/>
		</contour>
		<contour>
			<point x="332" y="11" type="line"/>
			<point x="302" y="42" type="line"/>
			<point x="393" y="132" type="line"/>
			<point x="423" y="101" type="line"/>
		</contour>
	</outline>
</glyph>
<glyph name="o.ss02" format="2">
	<advance width="468"/>
	<anchor x="234" y="200" name="center"/>
	<anchor x="421" y="10" name="ogonek"/>
	<anchor x="234" y="400" name="top"/>
	<anchor x="448" y="400" name="topright"/>
	<anchor x="234" y="0" name="bottom"/>
	<outline>
		<contour>
			<point x="374" y="357" type="line"/>
			<point x="94" y="357" type="line"/>
			<point x="94" y="400" type="line"/>
			<point x="374" y="400" type="line"/>
		</contour>
		<contour>
			<point x="418" y="44" type="line"/>
			<point x="375" y="44" type="line"/>
			<point x="375" y="356" type="line"/>
			<point x="418" y="356" type="line"/>
		</contour>
		<contour>
			<point x="374" y="0" type="line"/>
			<point x="94" y="0" type="line"/>
			<point x="94" y="43" type="line"/>
			<point x="374" y="43" type="line"/>
		</contour>
		<contour>
			<point x="93" y="44" type="line"/>
			<point x="50" y="44" type="line"/>
			<point x="50" y="356" type="line"/>
			<point x="93" y="356" type="line"/>
		</contour>
	</outline>
</glyph>
<glyph name="p.ss01" format="2">
	<advance width="461"/>
	<outline>
		<contour>
			<point x="114" y="557" type="line"/>
			<point x="114" y="600" type="line"/>
			<point x="382" y="600" type="line"/>
			<point x="382" y="557" type="line"/>
		</contour>
		<contour>
			<point x="383" y="304" type="line"/>
			<point x="383" y="556" type="line"/>
			<point x="426" y="556" type="line"/>
			<point x="426" y="304" type="line"/>
		</contour>
		<contour>
			<point x="123" y="260" type="line"/>
			<point x="123" y="303" type="line"/>
			<point x="382" y="303" type="line"/>
			<point x="382" y="260" type="line"/>
		</contour>
		<contour>
			<point x="70" y="0" type="line"/>
			<point x="70" y="556" type="line"/>
			<point x="113" y="556" type="line"/>
			<point x="113" y="0" type="line"/>
		</contour>
	</outline>
</glyph>
<glyph name="p.ss02" format="2">
	<advance width="467"/>
	<outline>
		<contour>
			<point x="113" y="0" type="line"/>
			<point x="70" y="0" type="line"/>
			<point x="70" y="554" type="line"/>
			<point x="113" y="554" type="line"/>
		</contour>
		<contour>
			<point x="410" y="557" type="line"/>
			<point x="117" y="557" type="line"/>
			<point x="117" y="600" type="line"/>
			<point x="410" y="600" type="line"/>
		</contour>
		<contour>
			<point x="149" y="231" type="line"/>
			<point x="119" y="262" type="line"/>
			<point x="418" y="550" type="line"/>
			<point x="447" y="519" type="line"/>
		</contour>
	</outline>
</glyph>
<glyph name="q.ss01" format="2">
	<advance width="461"/>
	<outline>
		<contour>
			<point x="347" y="557" type="line"/>
			<point x="79" y="557" type="line"/>
			<point x="79" y="600" type="line"/>
			<point x="347" y="600" type="line"/>
		</contour>
		<contour>
			<point x="78" y="304" type="line"/>
			<point x="35" y="304" type="line"/>
			<point x="35" y="556" type="line"/>
			<point x="78" y="556" type="line"/>
		</contour>
		<contour>
			<point x="338" y="260" type="line"/>
			<point x="79" y="260" type="line"/>
			<point x="79" y="303" type="line"/>
			<point x="338" y="303" type="line"/>
		</contour>
		<contour>
			<point x="391" y="0" type="line"/>
			<point x="348" y="0" type="line"/>
			<point x="348" y="556" type="line"/>
			<point x="391" y="556" type="line"/>
		</contour>
	</outline>
</glyph>
<glyph name="q.ss02" format="2">
	<advance width="467"/>
	<outline>
		<contour>
			<point x="354" y="0" type="line"/>
			<point x="354" y="554" type="line"/>
			<point x="397" y="554" type="line"/>
			<point x="397" y="0" type="line"/>
		</contour>
		<contour>
			<point x="57" y="557" type="line"/>
			<point x="57" y="600" type="line"/>
			<point x="350" y="600" type="line"/>
			<point x="350" y="557" type="line"/>
		</contour>
		<contour>
			<point x="318" y="231" type="line"/>
			<point x="20" y="519" type="line"/>
			<point x="49" y="551" type="line"/>
			<point x="348" y="262" type="line"/>
		</contour>
	</outline>
</glyph>
<glyph name="r.ss01" format="2">
	<advance width="332"/>
	<outline>
		<contour>
			<point x="103" y="0" type="line"/>
			<point x="60" y="0" type="line"/>
			<point x="60" y="356" type="line"/>
			<point x="103" y="356" type="line"/>
		</contour>
		<contour>
			<point x="327" y="357" type="line"/>
			<point x="104" y="357" type="line"/>
			<point x="104" y="400" type="line"/>
			<point x="327" y="400" type="line"/>
		</contour>
	</outline>
</glyph>
<glyph name="r.ss02" format="2">
	<advance width="377"/>
	<outline>
		<contour>
			<point x="160" y="352" type="line"/>
			<point x="149" y="393" type="line"/>
			<point x="361" y="448" type="line"/>
			<point x="372" y="406" type="line"/>
		</contour>
		<contour>
			<point x="128" y="49" type="line"/>
			<point x="85" y="53" type="line"/>
			<point x="115" y="353" type="line"/>
			<point x="158" y="349" type="line"/>
		</contour>
		<contour>
			<point x="220" y="0" type="line"/>
			<point x="10" y="0" type="line"/>
			<point x="10" y="43" type="line"/>
			<point x="220" y="43" type="line"/>
		</contour>
	</outline>
</glyph>
<glyph name="t.ss01" format="2">
	<advance width="349"/>
	<outline>
		<contour>
			<point x="196" y="0" type="line"/>
			<point x="153" y="0" type="line"/>
			<point x="153" y="400" type="line"/>
			<point x="196" y="400" type="line"/>
		</contour>
		<contour>
			<point x="195" y="462" type="line"/>
			<point x="153" y="471" type="line"/>
			<point x="210" y="727" type="line"/>
			<point x="251" y="718" type="line"/>
		</contour>
		<contour>
			<point x="339" y="412" type="line"/>
			<point x="10" y="412" type="line"/>
			<point x="10" y="455" type="line"/>
			<point x="339" y="455" type="line"/>
		</contour>
	</outline>
</glyph>
<glyph name="t.ss02" format="2">
	<advance width="318"/>
	<outline>
		<contour>
			<point x="294" y="291" type="line"/>
			<point x="10" y="431" type="line"/>
			<point x="29" y="469" type="line"/>
			<point x="313" y="329" type="line"/>
		</contour>
		<contour>
			<point x="154" y="430" type="line"/>
			<point x="111" y="430" type="line"/>
			<point x="111" y="700" type="line"/>
			<point x="154" y="700" type="line"/>
		</contour>
		<contour>
			<point x="154" y="44" type="line"/>
			<point x="111" y="44" type="line"/>
			<point x="111" y="359" type="line"/>
			<point x="154" y="359" type="line"/>
		</contour>
		<contour>
			<point x="312" y="0" type="line"/>
			<point x="155" y="0" type="line"/>
			<point x="155" y="43" type="line"/>
			<point x="312" y="43" type="line"/>
		</contour>
	</outline>
</glyph>
<glyph name="y.ss01" format="2">
	<advance width="509"/>
	<anchor x="255" y="400" name="top"/>
	<anchor x="255" y="0" name="bottom"/>
	<outline>
		<contour>
			<point x="228" y="235" type="line"/>
			<point x="5" y="589" type="line"/>
			<point x="41" y="612" type="line"/>
			<point x="264" y="258" type="line"/>
		</contour>
		<contour>
			<point x="167" y="0" type="line"/>
			<point x="130" y="21" type="line"/>
			<point x="467" y="612" type="line"/>
			<point x="504" y="591" type="line"/>
		</contour>
	</outline>
</glyph>
<glyph name="y.ss02" format="2">
	<advance width="512"/>
	<anchor x="256" y="400" name="top"/>
	<anchor x="256" y="0" name="bottom"/>
	<outline>
		<contour>
			<point x="398" y="0" type="line"/>
			<point x="17" y="0" type="line"/>
			<point x="17" y="43" type="line"/>
			<point x="398" y="43" type="line"/>
		</contour>
		<contour>
			<point x="442" y="44" type="line"/>
			<point x="399" y="44" type="line"/>
			<point x="399" y="600" type="line"/>
			<point x="442" y="600" type="line"/>
		</contour>
		<contour>
			<point x="157" y="271" type="line"/>
			<point x="114" y="271" type="line"/>
			<point x="114" y="600" type="line"/>
			<point x="157" y="600" type="line"/>
		</contour>
		<contour>
			<point x="183" y="235" type="line"/>
			<point x="158" y="270" type="line"/>
			<point x="373" y="420" type="line"/>
			<point x="397" y="385" type="line"/>
		</contour>
		<contour>
			<point x="397" y="146" type="line"/>
			<point x="17" y="45" type="line"/>
			<point x="5" y="87" type="line"/>
			<point x="386" y="188" type="line"/>
		</contour>
	</outline>
</glyph>
